<?xml version="1.0" encoding="utf-8"?>
<!-- Generator: Adobe Illustrator 16.2.0, SVG Export Plug-In . SVG Version: 6.00 Build 0)  -->
<!DOCTYPE svg PUBLIC "-//W3C//DTD SVG 1.1//EN" "http://www.w3.org/Graphics/SVG/1.1/DTD/svg11.dtd">
<svg version="1.1" id="图层_1" xmlns="http://www.w3.org/2000/svg" xmlns:xlink="http://www.w3.org/1999/xlink" x="0px" y="0px"
	 width="210px" height="120px" viewBox="0 0 210 120" enable-background="new 0 0 210 120" xml:space="preserve">
<g>
	<path fill="#77BC1F" d="M77.162,83.544c0,0.864,0.315,1.405,1.133,1.893c5.563,2.827,13.18,3.497,19.749,3.456
		c21.99,0,34.795-13.074,34.795-29.5c0-16.42-12.805-28.285-34.795-28.285c-6.558-0.042-14.344,1.539-19.49,4.27
		c-1.014,0.568-1.392,1.374-1.392,2.478V83.544z"/>
	<path fill="#FFFFFF" d="M91.477,78.553V53.839c2.742-7.281,7.527-11.392,14.697-11.18c3.965,0.116,8.094,2.388,9.781,5.834
		l6.878,0.657c0.186,0.036,0.24,0.266,0.104,0.407l-5.581,5.519c-0.29,15.404-11.332,23.471-24.759,24.336
		C91.888,79.459,91.477,79.066,91.477,78.553z"/>
	<path fill="#77BC1F" d="M111.511,52.608c0,1.709-1.396,3.093-3.118,3.093c-1.724,0-3.122-1.384-3.122-3.093
		c0-1.708,1.398-3.093,3.122-3.093C110.115,49.515,111.511,50.899,111.511,52.608"/>
</g>
</svg>
