<?xml version="1.0" encoding="utf-8"?>
<!-- Generator: Adobe Illustrator 16.2.0, SVG Export Plug-In . SVG Version: 6.00 Build 0)  -->
<!DOCTYPE svg PUBLIC "-//W3C//DTD SVG 1.1//EN" "http://www.w3.org/Graphics/SVG/1.1/DTD/svg11.dtd">
<svg version="1.1" id="图层_1" xmlns="http://www.w3.org/2000/svg" xmlns:xlink="http://www.w3.org/1999/xlink" x="0px" y="0px"
	 width="210px" height="120px" viewBox="0 0 210 120" enable-background="new 0 0 210 120" xml:space="preserve">
<g>
	<path fill-rule="evenodd" clip-rule="evenodd" fill="#00544A" d="M128.908,49.889l-0.381-0.763l2.671-2.289l0,0
		c0.254-0.254,0.382-0.382,0.382-0.636l0.51-0.254l0.635,1.779l-0.508,0.255c0,0,0,0,0-0.127c0-0.128-0.127-0.128-0.127-0.255
		h-0.256c0,0,0,0.126-0.127,0.126l0,0l-0.509,0.383l0.382,1.145h0.637l0.127-0.128l0,0c0.127,0,0.254,0,0.254-0.126
		c0-0.127,0-0.127-0.127-0.382l0.508-0.127l0.637,1.526l-0.51,0.127c-0.127-0.255-0.381-0.382-0.889-0.255h-0.127H128.908z
		 M129.672,49.254h1.398l-0.38-0.764L129.672,49.254z M130.943,54.723V54.34c0.127-0.126,0.383-0.126,0.637-0.254l1.652-0.508
		c0.383,0,0.51-0.127,0.637,0c0.127,0,0.254,0.126,0.254,0.253l0.51-0.127l-0.383-1.398l-0.508,0.126v0.382
		c-0.127,0.128-0.254,0.255-0.637,0.255l-2.035,0.509l2.799-2.544l-0.127-0.763l-2.925,0.763c-0.382,0.127-0.637,0.127-0.765,0.127
		c0,0-0.126-0.127-0.126-0.255l-0.636,0.128l0.508,1.398l0.382-0.126c0-0.254,0-0.382,0.128-0.382c0-0.127,0.254-0.254,0.635-0.254
		l1.146-0.381l-2.163,2.035l0.509,1.526L130.943,54.723z M78.42,61.717c0.126,0.127,0,0.254,0,0.383
		c-0.127,0-0.382,0.125-0.637,0.125l-1.78,0.129c-0.253,0.127-0.508,0.127-0.635,0c-0.127,0-0.127-0.129-0.127-0.254h-0.509
		l0.381,3.307l1.527,0.381l0.127-0.381c-0.381-0.129-0.637-0.383-0.89-0.637c-0.254-0.254-0.381-0.508-0.508-0.764
		c0-0.254,0-0.381,0.127-0.381c0-0.128,0.254-0.128,0.381-0.128l1.017-0.127l0.128,0.127c0,0.128-0.128,0.255-0.128,0.382
		c-0.126,0.127-0.38,0.254-0.636,0.254l0.128,0.383l1.908-0.254v-0.383h-0.637c0-0.127-0.127-0.254-0.127-0.382v-0.254h0.637
		c0.127-0.128,0.381-0.128,0.381,0c0.127,0,0.127,0.127,0.127,0.382c0.127,0.254,0,0.508-0.127,0.762
		c-0.126,0.256-0.381,0.51-0.635,0.764l0.254,0.381l1.271-0.762l-0.381-3.18L78.42,61.717z M77.783,57.393l-0.127,0.381
		c0.255,0.128,0.51,0.254,0.637,0.509c0.127,0.126,0.127,0.382,0.127,0.636l0,0l-2.417-0.127c-0.381,0-0.508,0-0.635-0.127
		c-0.127,0-0.127-0.127-0.127-0.255l-0.509-0.126l-0.127,2.035h0.508c0-0.254,0.128-0.381,0.128-0.381
		c0.127,0,0.381-0.127,0.762-0.127l2.417,0.127c0,0,0,0,0,0.127c0,0.254-0.127,0.38-0.254,0.635
		c-0.128,0.127-0.383,0.256-0.764,0.381l0.126,0.383l1.4-0.383l0.127-3.178L77.783,57.393z M79.437,55.74l-0.127,0.89l-3.433,0.51
		l0,0c-0.381,0-0.635,0.126-0.635,0.381l-0.637-0.127l0.382-1.908l0.509,0.128c0,0,0,0,0,0.127s0,0.127,0,0.254
		c0.127,0,0.127,0.127,0.254,0.127h0.127l0,0l0.636-0.127l0.254-1.145l-0.509-0.254H76.13l0,0c-0.127-0.128-0.253,0-0.253,0
		c-0.127,0-0.127,0.127-0.127,0.254h-0.637l0.382-1.654l0.508,0.128c0,0.254,0.127,0.508,0.51,0.763h0.127L79.437,55.74z
		 M78.42,55.867l-1.146-0.764l-0.127,0.891L78.42,55.867z M79.564,50.653l-0.255,0.253c0.255,0.255,0.382,0.509,0.511,0.764
		c0,0.127,0,0.382-0.128,0.636l0,0l-2.29-0.763c-0.254-0.128-0.509-0.128-0.509-0.254c-0.126-0.127-0.126-0.255-0.126-0.383
		l-0.509-0.253l-0.635,1.907l0.508,0.127l0.255-0.255c0.127,0,0.381,0,0.763,0.128l2.289,0.764l0,0
		c-0.127,0.254-0.254,0.508-0.508,0.636c-0.127,0-0.382,0.127-0.763,0.127v0.509h1.398l1.145-3.052L79.564,50.653z M80.836,50.017
		l0.763-0.762c0.128-0.382,0.097-0.667,0-1.019c-0.097-0.351-0.412-0.666-0.635-0.763c-0.224-0.097-0.382-0.127-0.637-0.127
		c-0.126,0-0.381,0-0.507,0c0,0.127-0.158,0.157-0.256,0.254c-0.098,0.097-0.255,0.382-0.508,0.509c0,0.126-0.127,0.126-0.127,0.126
		c-0.382,0.509-0.636,0.637-0.891,0.509c-0.126,0-0.255-0.127-0.255-0.254c-0.127-0.255,0-0.381,0-0.636
		c0.128-0.255,0.383-0.382,0.637-0.509c0.381-0.126,0.762-0.254,1.144-0.254V46.71l-1.653-0.382l-0.128,0.382l0.255,0.127
		c-0.255,0.127-0.382,0.254-0.509,0.382c-0.126,0.126-0.254,0.254-0.254,0.507c-0.254,0.383-0.224,0.794-0.127,1.146
		c0.098,0.351,0.381,0.635,0.764,0.89c0.381,0.127,0.635,0.127,0.89,0.127c0.255-0.127,0.508-0.381,0.891-0.763
		c0,0,0.128,0,0.128-0.126c0.507-0.509,0.762-0.764,1.016-0.637c0.127,0,0.127,0.128,0.127,0.255c0.127,0.127,0,0.255,0,0.508
		c-0.127,0.128-0.285,0.413-0.508,0.509c-0.226,0.098-0.509,0.127-0.891,0.127v0.382l1.272,0.381l0.254-0.381L80.836,50.017
		L80.836,50.017z M124.076,39.207l0.381,0.508l1.272,1.272l0.509,0.508l-0.509,0.382l-0.764,0.763l-0.381,0.381l-0.509-0.508
		l-1.271-1.399l-0.382-0.381l0.382-0.382l0.891-0.764L124.076,39.207z M125.602,38.444l2.418,2.543l-2.799,2.543
		c0,0.127-0.127,0.127-0.127,0.127c-0.128,0-0.128,0-0.254-0.127l-0.383-0.382v0.255c-0.127,0.127-0.127,0.254-0.254,0.254
		c0,0.127-0.127,0.127-0.127,0.255c0.381,0.381,0.637,0.508,0.764,0.636h0.381l0.254-0.255l3.053-2.798l0.51-0.508l-0.51-0.509
		l-2.416-2.543l-0.51-0.636l-0.636,0.508L125.602,38.444z M126.748,40.479l-1.782-1.908l-0.509-0.509l-0.508,0.509l0.508,0.509
		l1.781,1.908l0.51,0.508l0.508-0.508L126.748,40.479z M124.585,42.004l0.636-0.635l-1.145-1.145l-0.635,0.635L124.585,42.004z
		 M119.625,33.229c-0.127,0.381-0.127,0.509-0.254,0.763v0.509c-0.127,0.254-0.127,0.509,0,0.763c0,0.254,0.127,0.509,0.254,0.891
		c0.127,0.254,0.255,0.636,0.508,0.89c0.256-0.254,0.51-0.382,0.51-0.382c0.127,0,0.127,0,0.254-0.126l-0.381-0.381
		c0,0-0.127-0.128-0.127-0.255c-0.128-0.126-0.158-0.285-0.256-0.508c-0.097-0.224-0.126-0.509-0.126-0.763
		c0.126-0.255,0.126-0.382,0.126-0.509c0.128-0.127,0.128-0.253,0.128-0.253c0-0.127,0.128-0.127,0.128-0.256L119.625,33.229
		L119.625,33.229z M115.682,36.027c0.128-0.127,0.383-0.127,0.51-0.253c0.255,0,0.51-0.128,0.637-0.255
		c0.254-0.127,0.508-0.254,0.762-0.381c0.256-0.127,0.382-0.255,0.382-0.255l0.128-0.127c0.127,0.255,0.254,0.509,0.508,0.763
		c-0.127,0.127-0.254,0.127-0.254,0.127l-1.271,0.636c-0.254,0-0.51,0.127-0.764,0.254c0.637,0.381,1.398,0.636,2.035,1.018
		c0-0.382,0-0.51-0.127-0.637v-0.381c0.254,0,0.508,0,0.636,0c0.127,0,0.127,0,0.127,0c0.126,0.89,0.255,1.653,0.255,2.163
		c-0.382,0.126-0.637,0.126-0.637,0.126l-0.254,0.127v-0.253c0.127-0.128,0-0.255,0-0.51c-0.254-0.127-0.764-0.382-1.525-0.635
		c-0.637-0.255-1.019-0.382-1.146-0.51c-0.253,0-0.381-0.127-0.635-0.127c0.127-0.381,0.127-0.509,0.127-0.636
		c0-0.255,0-0.255,0-0.255H115.682L115.682,36.027z M115.81,34.628c0.382,0,0.794-0.158,1.146-0.255
		c0.351-0.097,0.762-0.254,1.017-0.381c0.255-0.254,0.636-0.382,1.018-0.635c-0.255-0.128-0.382-0.383-0.509-0.636l-0.127,0.127
		c-0.254,0.126-0.508,0.381-0.89,0.509c-0.255,0.127-0.636,0.253-1.018,0.381c-0.255,0.127-0.637,0.127-0.891,0.127l0.126,0.126
		C115.682,34.119,115.81,34.374,115.81,34.628L115.81,34.628z M106.526,34.882l0.128-0.763l0.635-3.687l0.127-0.764l0.764,0.126
		l3.433,0.637l0.765,0.126l-0.129,0.636l-0.636,3.943c0,0.126,0,0.254-0.126,0.254c0,0.127-0.127,0.254-0.382,0.254
		c-0.127,0-0.382,0-0.764,0c0,0,0-0.127,0-0.254c0-0.127,0-0.254-0.127-0.381v-0.255c0.127,0,0.254,0.127,0.382,0.127
		c0.127,0,0.254,0,0.254,0c0-0.127,0-0.127,0.128-0.254l0.509-3.561l-3.434-0.509l-0.127,0.763h0.127
		c0.127,0,0.254-0.127,0.381-0.127c0.127,0.127,0.254,0.254,0.254,0.508c0.127-0.126,0.127-0.254,0.127-0.381
		c0,0,0-0.127,0.127-0.254v-0.254c0.255,0.127,0.383,0.254,0.764,0.254c0,0.127-0.127,0.127-0.127,0.254c0,0.127,0,0.127,0,0.127
		l-0.127,0.382c0.127-0.128,0.382-0.128,0.382-0.254h0.128c0.125,0.126,0.253,0.254,0.253,0.381
		c0.127-0.255,0.127-0.509,0.127-0.636l0.127-0.127c0.255,0.127,0.51,0.127,0.764,0.254c-0.127,0-0.127,0.127-0.127,0.127
		l-0.127,0.381c0,0.254-0.128,0.382-0.128,0.509l-0.254,0.381c0.254,0.509,0.382,0.891,0.382,0.891v0.127
		c-0.128,0.126-0.382,0.253-0.637,0.508v-0.381l-0.127-0.382c-0.253,0.382-0.509,0.637-0.509,0.637
		c-0.127,0.127-0.254,0.255-0.381,0.255l-0.128-0.128c-0.127-0.127-0.255-0.127-0.382-0.381c0.255-0.126,0.382-0.254,0.51-0.382
		c0.127-0.253,0.254-0.381,0.381-0.508l0.128-0.254c0-0.254-0.128-0.381-0.128-0.508c0-0.127-0.127-0.255-0.254-0.509
		c-0.127,0.253-0.255,0.381-0.255,0.509l-0.127,0.127c0.127,0.254,0.255,0.636,0.382,0.891l-0.764,0.381v-0.509
		c-0.127,0.128-0.127,0.255-0.254,0.255c0,0.126-0.254,0.254-0.508,0.508c0,0,0-0.126-0.129-0.126c0-0.127-0.126-0.256-0.254-0.382
		l-0.127,0.763l-0.127,0.764L106.526,34.882z M107.543,33.357c0.254-0.128,0.383-0.255,0.383-0.383
		c0.127-0.126,0.254-0.253,0.381-0.508c-0.127-0.382-0.254-0.636-0.254-0.764l-0.127-0.254L107.543,33.357z M100.677,33.229
		l1.271-0.255l-0.128-0.635l-1.271,0.254L100.677,33.229z M100.422,31.958l1.398-0.255l-0.127-0.763l-1.399,0.254L100.422,31.958z
		 M98.768,33.61l1.145-0.253l-0.127-0.636l-1.145,0.127L98.768,33.61z M97.496,30.94l0.636-0.127l1.273-0.127v-0.382l-0.127-0.509
		l0.762-0.126l0.127,0.509v0.381l1.653-0.255l0.51-0.126v0.509l0.381,2.416l0.127,0.636l-0.762,0.127v-0.127l-1.272,0.127
		l0.126,0.636v0.127c0,0.127,0.127,0.127,0.254,0.127l0.764-0.127c0.253,0,0.509-0.127,0.509-0.127c0.127,0,0.253-0.128,0.38-0.128
		v-0.635c0.382,0.127,0.636,0.254,0.891,0.254c-0.127,0.381-0.127,0.763-0.255,0.763c0,0.127-0.127,0.255-0.254,0.255
		c0,0.127-0.127,0.127-0.382,0.127c-0.127,0.126-0.508,0.126-0.889,0.126c-0.382,0.127-0.636,0.127-0.891,0.127
		c-0.254,0.127-0.381,0.127-0.508,0c-0.127,0-0.255-0.127-0.255-0.127c0-0.126-0.127-0.254-0.127-0.382l-0.127-0.89l-1.145,0.254
		l0,0l-0.763,0.127l-0.127-0.508l-0.381-2.417L97.496,30.94z M98.514,32.212l1.145-0.128l-0.128-0.763l-1.145,0.255L98.514,32.212z
		 M89.611,35.646l-0.127-0.381l-0.128-0.382l3.435-1.78l0.254,0.382l0.127,0.254l0.764-0.381l-0.254-0.255l-0.254-0.636
		l-0.255-0.382l-0.508,0.382l-1.653,0.763c0.127,0,0.127-0.127,0.127-0.127c-0.127-0.128-0.381-0.128-0.763-0.254
		c-0.127,0.254-0.254,0.381-0.254,0.509l-0.128,0.127c0.128,0,0.255,0.126,0.382,0.126l-1.399,0.764l-0.636,0.255l0.127,0.382
		l0.38,0.635l0.128,0.254L89.611,35.646z M91.519,37.299c0.255-0.382,0.509-0.763,0.637-1.018l-0.128-0.127
		c-0.254,0.381-0.381,0.636-0.635,0.89c-0.127,0.255-0.381,0.637-0.762,1.018l-0.255-0.255c0,0-0.127-0.126-0.382-0.253
		c0.128-0.128,0.412-0.285,0.509-0.382c0.096-0.097,0.255-0.254,0.509-0.509l0.381-0.763l0,0l-1.145,1.145l-0.255-0.254
		c0,0-0.127-0.128-0.381-0.254c0.127,0,0.381-0.254,0.636-0.381c0.254-0.255,0.635-0.636,0.89-1.017l-0.763,0.381l-0.382,0.255
		l-0.381-0.636l0.509-0.127l2.289-1.272l0.509-0.254l0.253,0.635l-0.508,0.254l-0.762,0.382h0.254
		c-0.128,0.255-0.254,0.509-0.382,0.636c0.254,0,0.382,0.127,0.509,0.127l0.127,0.127c0.254-0.508,0.382-0.89,0.509-1.017
		l0.126-0.382c0,0,0.127,0.127,0.255,0.127c0,0,0.253,0,0.509,0.128l-0.382,0.763l0.382,0.381l0.763,0.381h1.017
		c0,0.128,0,0.255-0.127,0.382v0.509c-0.509-0.127-0.89-0.127-1.145-0.255c-0.254,0-0.381-0.126-0.635-0.254
		c-0.254-0.127-0.381-0.382-0.636-0.635l-0.126,0.253c0,0.128,0.126,0.128,0.126,0.255c0,0,0.127,0.254,0.255,0.381
		c0.127,0.255,0.127,0.382,0.253,0.509v0.509c-0.126,0.254-0.381,0.381-0.762,0.635c-0.127-0.254-0.254-0.381-0.382-0.381
		l-0.254-0.128c0.381-0.126,0.508-0.253,0.508-0.381c0.127,0,0.127-0.127,0-0.254v-0.254l-0.127-0.127
		c-0.127,0.254-0.254,0.509-0.509,0.891c-0.126,0.254-0.381,0.508-0.509,0.763l-0.636,0.636c-0.125-0.127-0.252-0.255-0.38-0.255
		l-0.254-0.126C90.757,38.189,91.265,37.807,91.519,37.299L91.519,37.299z M84.905,43.658l2.544-2.67l-2.926-2.798l-2.542,2.67
		L84.905,43.658z M80.964,40.987l0.382-0.509l2.797-2.797l0.381-0.509l0.51,0.509l2.924,2.797l0.509,0.381l-0.509,0.636v-0.126
		l-2.67,2.671l0.127,0.127l-0.51,0.508l-0.508-0.508l-3.052-2.798L80.964,40.987z M84.143,42.895l0.509-0.381l0.509-0.636
		l-0.637-0.508l-0.381,0.381l-0.381,0.381l-0.509-0.381l0.381-0.381l0.509-0.51l-0.509-0.381l-0.508,0.509l-0.381,0.508
		l-0.509-0.508l0.382-0.381l1.653-1.654l0.381-0.381l0.509,0.381l-0.382,0.382l-0.636,0.635l0.509,0.382l0.509-0.509l0.254-0.381
		l0.508,0.508l-0.382,0.255h0.763v0.509l0.381-0.382l0.382,0.382l-0.382,0.381l-1.652,1.781l-0.382,0.382L84.143,42.895z
		 M85.669,41.369l-0.636-0.636l0.381-0.255c0,0.127,0,0.255-0.127,0.381h0.763L85.669,41.369z M130.817,57.011l-0.382-1.908
		l0.508-0.127c0,0.255,0.127,0.255,0.255,0.382h0.636l1.654-0.382c0.254,0,0.508-0.126,0.635-0.126c0-0.127,0.127-0.254,0-0.382
		l0.637-0.127l0.254,1.908l-0.51,0.127c0-0.254-0.127-0.254-0.254-0.381h-0.635l-1.654,0.381c-0.254,0-0.509,0.128-0.635,0.128
		c0,0.126-0.128,0.254,0,0.381L130.817,57.011z M131.58,61.717c0-0.254,0-0.381,0.127-0.381c0.127-0.127,0.254-0.127,0.637-0.127
		l1.652-0.129h0.764c0,0.129,0.127,0.256,0.127,0.383h0.508l-0.126-1.908h-0.509c0,0.127,0,0.255-0.127,0.382
		c-0.129,0-0.256,0.127-0.637,0.127h-0.764l-0.127-1.399l0.764-0.127c0.381,0,0.635,0,0.635,0.127c0.129,0,0.256,0.127,0.256,0.254
		h0.509l-0.128-1.908h-0.637c0.129,0.254,0,0.382,0,0.382c-0.127,0.127-0.381,0.127-0.762,0.127l-1.652,0.127h-0.638
		c-0.126-0.127-0.126-0.127-0.126-0.381h-0.636l0.127,2.035l0.509-0.127c0-0.126,0.126-0.254,0.254-0.381
		c0.303-0.152,0.685-0.127,1.018-0.127l0.127,1.526c0,0,0,0-0.508,0c-0.256,0-0.51,0-0.637-0.127c-0.128,0-0.128-0.127-0.128-0.255
		h-0.509l0.127,1.907H131.58z M131.07,62.48l-0.253-0.127l0.126-0.254l1.654-0.383V62.1c-0.381,0.125-0.637,0.254-0.891,0.508
		c-0.255,0.254-0.381,0.381-0.381,0.636c0,0.382,0.126,0.636,0.381,0.89c0.254,0.254,0.764,0.383,1.271,0.383
		c0.51,0,0.891,0,1.145-0.129c0.381-0.254,0.51-0.508,0.637-0.89c0-0.254-0.158-0.411-0.256-0.636
		c-0.096-0.225-0.381-0.508-0.635-0.762l0.254-0.383c0.51,0.254,0.764,0.508,1.018,0.891c0.128,0.254,0.254,0.636,0.128,1.145
		c0,0.635-0.255,1.018-0.765,1.398c-0.381,0.381-1.016,0.508-1.652,0.381c-0.635,0-1.145-0.254-1.653-0.635
		c-0.381-0.51-0.508-0.891-0.381-1.526v-0.509C130.943,62.734,131.07,62.607,131.07,62.48L131.07,62.48z M129.418,70.492
		c0.127-0.127,0.127-0.254,0.254-0.254c0.127-0.127,0.381,0,0.637,0.127l1.652,0.508l0.51,0.256
		c0.127,0.126,0.127,0.254,0.127,0.508l0.508,0.127l0.637-1.908l-0.51-0.127l-0.254,0.255c-0.127,0-0.381,0-0.635-0.128
		l-0.764-0.254l0.127-0.127c0-0.127,0.127-0.254,0.254-0.254c0.129-0.128,0.383-0.128,0.637,0l0.127-0.382l-2.034-0.636
		l-0.128,0.254c0.255,0.127,0.508,0.256,0.508,0.382c0.128,0.126,0.128,0.254,0,0.509v0.127l-0.635-0.254
		c-0.255,0-0.383-0.128-0.383-0.256v-0.381c0.128-0.254,0.256-0.508,0.51-0.637c0.255-0.253,0.508-0.38,0.89-0.38l-0.126-0.382
		l-1.273,0.127l-1.145,3.053L129.418,70.492z M127.764,73.926c-0.254-0.509-0.254-1.145,0.128-1.652
		c0.255-0.51,0.636-0.891,1.146-1.145c0.508-0.129,1.144-0.129,1.78,0.254c0.635,0.254,1.017,0.636,1.272,1.145
		c0.127,0.508,0.127,1.145-0.129,1.652c-0.254,0.638-0.635,1.019-1.271,1.146c-0.51,0.126-1.019,0.126-1.653-0.128
		C128.4,74.817,128.02,74.435,127.764,73.926L127.764,73.926z M129.037,72.019c-0.382,0-0.51,0.255-0.764,0.509
		c-0.127,0.254,0,0.508,0.127,0.89c0.255,0.255,0.539,0.539,1.018,0.763c0.479,0.225,1.018,0.255,1.272,0.255
		c0.38,0,0.636-0.126,0.762-0.509c0.128-0.254,0.128-0.509-0.126-0.891c-0.128-0.254-0.509-0.508-1.018-0.762
		C129.799,72.019,129.418,72.019,129.037,72.019L129.037,72.019z M123.822,78.632c0.127-0.128,0.254-0.128,0.381-0.128
		s0.254,0.128,0.51,0.383l1.271,1.143c0.254,0.255,0.381,0.383,0.381,0.51s0,0.254-0.127,0.381l0.382,0.383l1.017-1.145
		l-0.381-0.256c-0.127,0.127-0.255,0.127-0.381,0.127c-0.127,0-0.255-0.127-0.51-0.381l-1.525-1.398l3.688,0.891l0.51-0.509
		l-2.162-2.036c-0.255-0.254-0.382-0.381-0.382-0.508c-0.128-0.127,0-0.254,0.127-0.381l-0.382-0.255l-1.018,1.017l0.381,0.383
		c0.128-0.127,0.255-0.256,0.383-0.256c0,0,0.254,0.256,0.509,0.382l0.891,0.892l-2.799-0.764l-1.144,1.271L123.822,78.632z
		 M121.023,81.175c0-0.636,0.285-1.175,0.764-1.526s1.018-0.508,1.654-0.381c0.508,0,1.016,0.381,1.524,0.891
		c0.384,0.508,0.636,1.017,0.509,1.652c0,0.51-0.283,1.048-0.762,1.398c-0.479,0.352-1.018,0.51-1.654,0.51
		c-0.509-0.127-1.017-0.383-1.525-1.018C121.15,82.193,121.023,81.684,121.023,81.175L121.023,81.175z M123.059,80.029
		c0.383,0.129,0.637,0.383,1.018,0.764c0.381,0.51,0.509,0.891,0.509,1.145c0.128,0.383,0,0.637-0.255,0.891
		c-0.254,0.127-0.508,0.255-0.889,0.127c-0.255-0.127-0.637-0.508-1.019-0.89c-0.254-0.382-0.508-0.763-0.508-1.146
		c-0.128-0.381,0-0.636,0.254-0.762C122.423,79.902,122.678,79.902,123.059,80.029L123.059,80.029z M115.301,85.244h0.381
		c0-0.381,0-0.636,0.128-0.764c0-0.252,0.255-0.381,0.382-0.508h0.127l1.146,2.035c0.126,0.382,0.253,0.51,0.253,0.635
		c-0.127,0.129-0.127,0.256-0.381,0.383l0.254,0.381l1.781-0.889l-0.256-0.383h-0.381c-0.127-0.127-0.254-0.254-0.381-0.509
		l-1.145-2.161l0,0c0.255-0.129,0.508-0.256,0.763-0.129c0.128,0,0.382,0.129,0.763,0.383l0.255-0.383l-1.144-0.889l-2.799,1.525
		L115.301,85.244z M113.012,84.608l0.891-0.254l2.162,2.544l0,0c0.254,0.254,0.508,0.381,0.764,0.381l0.127,0.51l-1.781,0.635
		l-0.127-0.508l0,0c0.127,0,0.254-0.127,0.254-0.127v-0.256l0,0c0-0.127,0-0.127-0.127-0.127l-0.382-0.508l-1.144,0.508l0.126,0.51
		v0.127l0,0c0,0.127,0.128,0.254,0.128,0.254h0.381l0.255,0.381l-1.526,0.637l-0.254-0.509c0.254-0.128,0.381-0.382,0.381-0.89l0,0
		L113.012,84.608z M113.648,85.5v1.271l0.762-0.254L113.648,85.5z M107.416,85.754l2.289-0.254c0.509-0.129,1.018-0.129,1.272,0
		c0.254,0.254,0.509,0.508,0.509,0.89c0.126,0.253,0,0.509-0.127,0.763c-0.128,0.127-0.255,0.381-0.637,0.51l1.018,0.889
		c0.127,0.127,0.254,0.255,0.383,0.255c0.125,0,0.254,0.128,0.381,0v0.509l-1.145,0.254l-1.654-1.652l-0.381,0.127l0.127,0.508
		c0,0.255,0.127,0.509,0.254,0.637c0,0,0.128,0.127,0.381,0v0.636l-1.906,0.254l-0.127-0.509c0.254,0,0.381-0.127,0.381-0.254
		c0.127,0,0.127-0.255,0-0.637l-0.254-1.652c0-0.254-0.127-0.508-0.254-0.636c0,0-0.129-0.128-0.383,0L107.416,85.754z
		 M109.324,87.406L109.324,87.406h0.127c0.382-0.127,0.635-0.127,0.89-0.254c0.127-0.254,0.127-0.381,0.127-0.635
		c0-0.128-0.127-0.383-0.254-0.383c-0.253-0.127-0.381-0.127-0.763-0.127c-0.127,0-0.255,0.127-0.255,0.127
		c-0.127,0.127-0.127,0.255,0,0.508L109.324,87.406z M103.856,86.518c-0.382,0.381-0.636,1.016-0.509,1.652
		c0,0.636,0.127,1.271,0.636,1.653c0.381,0.382,0.89,0.509,1.525,0.509c0.637,0,1.146-0.255,1.526-0.637
		c0.382-0.381,0.509-1.018,0.509-1.652c0-0.637-0.254-1.271-0.635-1.653c-0.382-0.382-0.892-0.509-1.527-0.509
		S104.236,86.135,103.856,86.518L103.856,86.518z M106.145,86.771c0.127,0.381,0.254,0.762,0.254,1.271
		c0.128,0.508,0,1.017-0.127,1.271c-0.255,0.381-0.51,0.509-0.764,0.509c-0.381,0-0.635-0.128-0.763-0.382
		c-0.254-0.382-0.381-0.764-0.381-1.271s0.127-1.018,0.254-1.271c0.127-0.381,0.382-0.509,0.763-0.509
		C105.635,86.39,105.891,86.518,106.145,86.771L106.145,86.771z M99.786,85.5l2.163,0.254c0.509,0,0.762,0.254,1.017,0.508
		c0.255,0.256,0.382,0.51,0.255,1.018c0,0.383-0.127,0.637-0.509,0.764c-0.253,0.254-0.635,0.254-1.018,0.254l-0.763-0.127
		c0,0,0,0,0,0.508c0,0.256,0,0.51,0,0.637s0.127,0.127,0.382,0.127l-0.127,0.509l-1.907-0.127l0.127-0.636
		c0.126,0.127,0.254,0,0.381,0c0-0.128,0.127-0.382,0.127-0.637l0.254-1.652v-0.764c-0.127,0-0.254-0.127-0.381-0.127V85.5z
		 M101.058,87.662L101.058,87.662h0.127c0.381,0.127,0.635,0,0.764-0.129c0.127,0,0.253-0.254,0.253-0.508s-0.03-0.412-0.126-0.508
		c-0.098-0.098-0.256-0.256-0.51-0.256c-0.126,0-0.254,0-0.254,0c-0.127,0.128-0.127,0.256-0.127,0.51L101.058,87.662z
		 M95.716,84.229l2.162,0.635c0.508,0.127,0.89,0.381,1.017,0.637c0.255,0.254,0.255,0.508,0.255,0.89
		c-0.127,0.382-0.255,0.509-0.509,0.636c-0.127,0.127-0.381,0.254-0.763,0.254l0.508,1.271c0,0.127,0,0.255,0.128,0.383
		c0.127,0,0.253,0.126,0.381,0.126l-0.254,0.509l-1.145-0.381l-0.636-2.035l-0.38-0.127l-0.255,0.508c0,0.256-0.127,0.51,0,0.637
		c0,0.127,0.128,0.127,0.255,0.254l-0.127,0.51l-1.908-0.637l0.127-0.508c0.254,0.127,0.381,0.127,0.508,0l0.254-0.51l0.508-1.653
		c0-0.382,0.128-0.509,0-0.636c0-0.127-0.127-0.254-0.254-0.254L95.716,84.229z M96.606,86.39l0.127,0.128h0.126
		c0.382,0.125,0.636,0.125,0.764,0c0.254,0,0.381-0.128,0.508-0.383c0-0.127-0.03-0.412-0.127-0.509
		c-0.097-0.097-0.254-0.255-0.509-0.382h-0.38c-0.129,0.127-0.256,0.256-0.256,0.382L96.606,86.39z M92.155,83.209
		c-0.509,0.127-0.89,0.51-1.273,1.146c-0.252,0.636-0.38,1.146-0.252,1.78c0.252,0.508,0.635,0.891,1.144,1.271
		c0.636,0.256,1.145,0.256,1.653,0.127c0.509-0.254,1.018-0.635,1.271-1.271c0.382-0.636,0.382-1.145,0.254-1.653
		c-0.127-0.636-0.508-1.017-1.144-1.272C93.3,83.083,92.664,82.955,92.155,83.209L92.155,83.209z M94.062,84.48
		c0,0.383-0.126,0.764-0.381,1.273c-0.128,0.508-0.509,0.889-0.763,1.018c-0.255,0.254-0.636,0.254-0.891,0.127
		c-0.254-0.256-0.381-0.381-0.509-0.764c0-0.381,0.157-0.793,0.383-1.271c0.224-0.479,0.508-0.764,0.762-1.017
		c0.381-0.128,0.636-0.255,0.89,0C93.936,83.973,94.062,84.229,94.062,84.48L94.062,84.48z M90.882,82.193l0.255-0.256l0.254,0.256
		l-0.51,1.525l-0.507-0.127c0.127-0.383,0.127-0.637,0.127-1.018c0-0.254-0.127-0.509-0.381-0.637
		c-0.255-0.254-0.509-0.254-0.89-0.127c-0.383,0.127-0.636,0.383-1.019,0.764c-0.253,0.381-0.507,0.762-0.507,1.145
		c0,0.381,0.127,0.636,0.381,0.89c0.254,0.128,0.509,0.255,0.762,0.255c0.383,0,0.637-0.127,0.891-0.255l0.254,0.509
		c-0.381,0.254-0.89,0.383-1.271,0.254c-0.381,0-0.763-0.127-1.145-0.381c-0.381-0.382-0.763-0.891-0.763-1.398
		c0-0.509,0.127-1.145,0.509-1.654c0.509-0.508,0.889-0.89,1.525-0.89c0.509-0.128,1.018,0,1.527,0.382
		c0.127,0,0.255,0.127,0.382,0.254C90.757,81.811,90.882,81.938,90.882,82.193L90.882,82.193z M84.651,76.215l1.272,1.526
		c0.508,0.509,0.637,1.146,0.637,1.653c-0.128,0.508-0.383,1.018-0.891,1.398c-0.636,0.51-1.146,0.637-1.653,0.637
		c-0.509-0.127-1.019-0.382-1.526-1.018l-1.145-1.525l0.381-0.255c0.126,0.127,0.254,0.127,0.38,0.127l0.51-0.255l1.271-1.145
		c0.382-0.127,0.509-0.382,0.509-0.508c0,0,0-0.127-0.127-0.256L84.651,76.215z M83.125,79.395
		c-0.254,0.127-0.381,0.254-0.381,0.381c0,0,0,0.127,0.127,0.254c0.254,0.255,0.635,0.51,0.89,0.51
		c0.381-0.127,0.762-0.255,1.144-0.51c0.51-0.381,0.764-0.762,0.764-1.018c0.127-0.38,0-0.762-0.254-1.016
		c0-0.127-0.127-0.127-0.254-0.127c0,0-0.127,0-0.382,0.127L83.125,79.395z M82.872,74.689c0.126,0.128,0.126,0.254,0.126,0.381
		l-0.507,0.51l-1.399,1.016c-0.254,0.129-0.509,0.256-0.635,0.256l-0.255-0.256l-0.509,0.382l1.145,1.526l0.509-0.254
		c-0.127-0.254-0.127-0.381-0.127-0.381c0-0.128,0.254-0.383,0.509-0.51l1.398-1.018c0.255-0.127,0.381-0.254,0.508-0.254
		c0.128,0,0.255,0.127,0.382,0.254l0.381-0.381l-1.145-1.526L82.872,74.689z M80.709,70.873c0.127,0.256,0.127,0.382,0.127,0.51
		c-0.127,0-0.254,0.127-0.636,0.381l-1.399,0.764c-0.381,0.127-0.508,0.254-0.635,0.254c-0.128,0-0.254-0.127-0.383-0.254
		l-0.381,0.254l0.891,1.653l0.508-0.255c-0.127-0.127-0.127-0.254-0.127-0.381c0.127-0.127,0.255-0.254,0.636-0.382l0.382-0.254
		l0.254,0.382l-1.018,1.907l0.508,1.144l0.509-0.254c-0.126-0.127-0.126-0.254-0.126-0.381s0.126-0.254,0.126-0.381l0.636-1.271
		c0.254,0.253,0.382,0.381,0.636,0.381c0.254,0.128,0.509,0,0.763-0.128c0.381-0.127,0.636-0.382,0.636-0.763
		c0-0.254-0.151-0.672-0.382-1.145c-0.982-2.012-1.017-2.035-1.017-2.035L80.709,70.873z M80.964,72.527
		c0.254-0.128,0.382-0.128,0.382-0.128c0.126,0,0.253,0.128,0.381,0.255c0.126,0.254,0.126,0.381,0.126,0.635
		c-0.126,0.128-0.126,0.256-0.381,0.383c-0.126,0.127-0.381,0.127-0.508,0c-0.254-0.127-0.382-0.255-0.637-0.637v-0.127h-0.126
		L80.964,72.527z M80.582,69.602h0.127l0.127,0.254l-1.145,0.891l-0.382-0.381c0.255-0.254,0.511-0.51,0.637-0.764v-0.763
		c-0.126-0.255-0.382-0.382-0.637-0.382c-0.381-0.127-0.763,0-1.271,0.127c-0.509,0.255-0.89,0.381-1.145,0.637
		c-0.126,0.254-0.253,0.508-0.126,0.891c0.126,0.127,0.254,0.381,0.381,0.381c0.254,0.127,0.381,0.127,0.635,0
		c0.128,0,0.255-0.127,0.255-0.127c0.128-0.127,0.128-0.254,0-0.382l0.509-0.255l0.636,1.654l-0.509,0.254
		c-0.127-0.127-0.127-0.254-0.253-0.254c-0.127,0-0.254,0-0.509,0l-1.019,0.508l-0.253-0.636L76.893,71
		c-0.126-0.127-0.38-0.254-0.508-0.381s-0.255-0.254-0.255-0.508c-0.253-0.51-0.127-1.019,0.127-1.398
		c0.255-0.51,0.764-0.892,1.399-1.146c0.637-0.128,1.145-0.255,1.653,0c0.511,0.254,0.891,0.509,1.146,1.146
		c0,0.126,0.126,0.252,0.126,0.38S80.582,69.348,80.582,69.602L80.582,69.602z M118.862,82.574c0.127-0.127,0.253-0.127,0.382-0.127
		l0.508,0.508l0.891,1.399c0.127,0.382,0.254,0.509,0.254,0.636s-0.127,0.254-0.254,0.381l0.254,0.383l1.653-1.018l-0.253-0.508
		c-0.128,0.126-0.255,0.126-0.382,0.126c-0.128,0-0.255-0.255-0.382-0.508l-0.891-1.399c-0.254-0.254-0.382-0.51-0.382-0.637
		c0.128-0.127,0.128-0.254,0.255-0.254l-0.255-0.509l-1.653,1.018L118.862,82.574z"/>
	<radialGradient id="SVGID_1_" cx="93.4219" cy="49.7451" r="33.2175" gradientUnits="userSpaceOnUse">
		<stop  offset="0" style="stop-color:#FFFFFC"/>
		<stop  offset="1" style="stop-color:#006654"/>
	</radialGradient>
	<path fill-rule="evenodd" clip-rule="evenodd" fill="url(#SVGID_1_)" d="M127.265,60.318c0,10.5-7.458,19.244-17.315,21.477
		c-3.334-1.166-6.266-3.855-8.432-7.538c0.686,0.032,1.381,0.052,2.084,0.052c9.919,0,18.314-3.309,21.493-7.887
		c-4.451,3.562-11.573,5.978-19.586,5.978c-1.761,0-3.479-0.114-5.134-0.331c-0.503-1.091-0.947-2.245-1.322-3.454
		c2.31,0.325,4.78,0.452,7.347,0.351c9.805-0.399,17.957-4.026,20.865-8.775C127.264,60.232,127.265,60.275,127.265,60.318
		L127.265,60.318z M105.829,82.33c-3.094-1.143-5.79-4.182-7.637-8.367c-1.469-0.193-2.882-0.459-4.225-0.793
		c1.095,2.754,2.558,5.142,4.292,6.988c-2.364-1.455-4.409-4.066-5.903-7.432c-3.223-0.977-5.952-2.352-7.944-3.99
		C87.748,76.738,95.698,82.346,105,82.346C105.277,82.346,105.554,82.34,105.829,82.33L105.829,82.33z M82.923,63.199
		c-0.125-0.942-0.189-1.904-0.189-2.881c0-9.23,5.696-17.103,13.804-20.388c-4.072,3.737-6.799,11.071-6.799,19.497
		c0,1.874,0.138,3.693,0.396,5.432c-2.026-0.814-3.833-1.83-5.357-3.016c1.252,1.67,3.167,3.12,5.567,4.27
		c0.223,1.199,0.506,2.354,0.841,3.455C87.539,67.957,84.655,65.75,82.923,63.199L82.923,63.199z M104.179,38.306
		c-7.1,2.428-12.405,11.76-12.405,22.903c0,1.478,0.092,2.928,0.271,4.336c1.268,0.405,2.608,0.738,4.004,0.989
		c-0.299-1.86-0.459-3.815-0.459-5.835c0-9.538,3.561-17.677,8.521-20.73c-3.943,4.198-6.486,11.192-6.486,18.95
		c0,2.8,0.334,5.485,0.949,7.976c1.897,0.201,3.879,0.262,5.918,0.164c10.583-0.334,19.408-4.963,22.375-10.893
		C124.891,45.965,115.777,38.291,105,38.291C104.725,38.291,104.452,38.297,104.179,38.306L104.179,38.306z M97.257,71.525
		c-1.493-0.326-2.918-0.74-4.259-1.229c-0.307-1.088-0.558-2.213-0.753-3.373c1.27,0.479,2.644,0.883,4.1,1.204
		C96.593,69.311,96.9,70.445,97.257,71.525z"/>
	<path fill="#00544A" d="M129.214,60.318c0,6.615-2.723,12.592-7.099,16.921c-4.398,4.353-10.465,7.038-17.115,7.038
		c-6.698,0-12.752-2.674-17.133-7.008c-4.378-4.33-7.081-10.319-7.081-16.951c0-6.632,2.703-12.621,7.081-16.953
		c4.38-4.333,10.435-7.008,17.133-7.008c6.65,0,12.717,2.688,17.115,7.039C126.491,47.726,129.214,53.701,129.214,60.318
		L129.214,60.318z M128.604,60.318c0-6.448-2.653-12.272-6.916-16.49c-4.287-4.241-10.203-6.861-16.688-6.861
		c-6.532,0-12.435,2.607-16.703,6.83c-4.266,4.222-6.901,10.057-6.901,16.521c0,6.463,2.635,12.299,6.901,16.52
		c4.267,4.224,10.171,6.83,16.703,6.83c6.484,0,12.4-2.619,16.688-6.861C125.95,72.588,128.604,66.766,128.604,60.318z"/>
</g>
</svg>
