<?xml version="1.0" encoding="utf-8"?>
<!-- Generator: Adobe Illustrator 16.2.0, SVG Export Plug-In . SVG Version: 6.00 Build 0)  -->
<!DOCTYPE svg PUBLIC "-//W3C//DTD SVG 1.1//EN" "http://www.w3.org/Graphics/SVG/1.1/DTD/svg11.dtd">
<svg version="1.1" id="图层_1" xmlns="http://www.w3.org/2000/svg" xmlns:xlink="http://www.w3.org/1999/xlink" x="0px" y="0px"
	 width="210px" height="120px" viewBox="0 0 210 120" enable-background="new 0 0 210 120" xml:space="preserve">
<path fill-rule="evenodd" clip-rule="evenodd" fill="#009944" d="M135.396,59.998l-0.009,0.624l-0.035,0.624l-0.058,0.65
	l-0.088,0.645l-0.108,0.648l-0.128,0.641l-0.161,0.641l-0.184,0.639l-0.206,0.637l-0.233,0.625l-0.254,0.621l-0.28,0.617
	l-0.296,0.611l-0.327,0.604l-0.348,0.6l-0.37,0.587l-0.396,0.582L131.5,71.16l-0.434,0.566l-0.459,0.555l-0.475,0.544l-0.5,0.536
	l-0.515,0.52l-0.547,0.506l-0.551,0.507l-0.578,0.485l-0.599,0.474l-0.609,0.457l-0.632,0.446l-0.646,0.44l-0.667,0.424
	l-0.678,0.405l-0.694,0.389l-0.708,0.375l-0.719,0.365l-0.735,0.344l-0.755,0.328l-0.758,0.316l-0.777,0.297l-0.784,0.278
	l-0.789,0.261l-0.808,0.252l-0.812,0.227l-0.823,0.209l-0.83,0.193l-0.833,0.178l-0.842,0.16l-0.846,0.139l-0.857,0.119
	l-0.854,0.105l-0.864,0.086l-0.861,0.061l-0.87,0.052l-0.868,0.026l-0.859,0.011l-0.872-0.009l-0.868-0.024l-0.87-0.042
	l-0.863-0.065l-0.859-0.085l-0.859-0.101l-0.853-0.12l-0.851-0.135l-0.839-0.154l-0.839-0.173l-0.83-0.196l-0.823-0.209
	l-0.809-0.227l-0.812-0.241l-0.794-0.261l-0.784-0.281l-0.779-0.291L90.1,79.865l-0.752-0.32L88.614,79.2l-0.729-0.36l-0.709-0.376
	l-0.694-0.384l-0.684-0.41l-0.664-0.415l-0.648-0.431l-0.631-0.449l-0.617-0.463l-0.597-0.474l-0.58-0.481l-0.559-0.499
	l-0.541-0.509l-0.523-0.521l-0.498-0.531l-0.485-0.541l-0.457-0.555l-0.442-0.561l-0.419-0.572l-0.39-0.578l-0.375-0.591
	l-0.351-0.595l-0.327-0.604l-0.308-0.609l-0.282-0.615l-0.246-0.623l-0.244-0.633l-0.205-0.626l-0.187-0.638l-0.163-0.639
	l-0.135-0.641l-0.112-0.651l-0.087-0.648l-0.065-0.646l-0.038-0.648l-0.016-0.653l0.016-0.653l0.031-0.648l0.063-0.653l0.089-0.649
	l0.101-0.64l0.143-0.646l0.161-0.644l0.177-0.632l0.212-0.633l0.229-0.631l0.257-0.618l0.28-0.617l0.298-0.611l0.326-0.601
	l0.353-0.601l0.369-0.59l0.397-0.582l0.41-0.569l0.438-0.561l0.457-0.555l0.478-0.546l0.504-0.532l0.522-0.522l0.535-0.509
	l0.561-0.501l0.574-0.487l0.599-0.469l0.618-0.463l0.625-0.452l0.647-0.427l0.668-0.422l0.675-0.407l0.691-0.388l0.711-0.379
	l0.726-0.358l0.741-0.344l0.745-0.325l0.761-0.317l0.774-0.294l0.786-0.284l0.794-0.262l0.807-0.242l0.809-0.232l0.826-0.207
	l0.829-0.196l0.83-0.172l0.846-0.159l0.849-0.14l0.851-0.118l0.865-0.102l0.857-0.086l0.865-0.064l0.862-0.046l0.872-0.032
	l0.87-0.007l0.865,0.007l0.866,0.028l0.868,0.046l0.864,0.064l0.861,0.081l0.853,0.109l0.856,0.116l0.847,0.137l0.85,0.155
	l0.835,0.172l0.829,0.192l0.823,0.211l0.813,0.227l0.805,0.246l0.793,0.262l0.792,0.28l0.767,0.292l0.769,0.313l0.747,0.329
	l0.735,0.344l0.721,0.36l0.713,0.371l0.696,0.391l0.68,0.408l0.663,0.419l0.653,0.434l0.626,0.443l0.622,0.464l0.592,0.475
	l0.577,0.486l0.559,0.493l0.543,0.513l0.521,0.522l0.495,0.532l0.487,0.539l0.455,0.558l0.436,0.56l0.418,0.571l0.395,0.581
	l0.371,0.589l0.352,0.598l0.329,0.603l0.3,0.61l0.279,0.616l0.256,0.622l0.238,0.628l0.206,0.632l0.188,0.636l0.157,0.64
	l0.133,0.646l0.116,0.646l0.087,0.648l0.062,0.645l0.035,0.654L135.396,59.998L135.396,59.998z M113.271,67.428l0.384,0.046
	l0.726,0.006h0.744l1.264-0.019l0.971-0.084l0.794-0.058l0.709-0.112l0.715-0.141l0.625-0.205l0.624-0.226l0.569-0.255l0.541-0.281
	l0.479-0.315l0.455-0.368l0.428-0.373l0.369-0.398l0.34-0.45l0.313-0.429l0.286-0.484l0.252-0.451l0.232-0.611l0.192-0.57
	l0.196-0.681l0.093-0.663l0.007-0.473l-0.009-0.542l-0.02-0.53l-0.106-0.591l-0.159-0.538l-0.172-0.54l-0.226-0.541l-0.283-0.589
	l-0.322-0.579l-0.376-0.606l-0.377-0.522l-0.394-0.442l-0.426-0.416l-0.436-0.368l-0.457-0.337l-0.535-0.343l-0.505-0.27
	l-0.471-0.209l-0.534-0.219l-0.446-0.14l-0.506-0.132l-0.383-0.073l-0.541-0.055l-0.436-0.007l-0.433,0.05l-0.406,0.048l-0.41,0.119
	l-0.303,0.139l-0.371,0.223l-0.362,0.245l-0.376,0.3l-0.322,0.355l-0.27,0.387l-0.217,0.41l-0.152,0.4l-0.163,0.472l-0.163,0.587
	l-0.126,0.5l-0.135,0.634l-0.117,0.593l-0.146,0.614l-0.2,0.654l-0.222,0.666l-0.263,0.582l-0.284,0.544l-0.338,0.507l-0.396,0.457
	l-0.397,0.427l-0.454,0.396l-0.471,0.396l-0.528,0.342l-0.572,0.316l-0.658,0.245l-0.545,0.173l-0.504,0.128l-0.488,0.085
	l-0.439,0.066l-0.552,0.051l-0.637,0.008l-0.665-0.037l-0.658-0.069l-0.653-0.122l-0.756-0.224l-0.737-0.269l-0.544-0.328
	l-0.582-0.395l-0.439-0.361l-0.366-0.342l-0.407-0.434l-0.36-0.451l-0.493-0.775l-0.388-0.825l-0.297-0.895l-0.258-1.074
	l-0.261-1.312l-0.186-0.796l-0.222-0.716l-0.438-0.76l-0.385-0.529l-0.36-0.394l-0.368-0.301l-0.419-0.262l-0.403-0.209
	l-0.413-0.142l-0.419-0.126l-0.415-0.05l-0.437-0.033l-0.477,0.039l-0.591,0.072l-0.656,0.147l-0.617,0.197l-0.582,0.219
	l-0.549,0.25l-0.459,0.279l-0.46,0.282l-0.466,0.37l-0.42,0.398l-0.424,0.434l-0.345,0.454l-0.256,0.37l-0.292,0.44l-0.261,0.447
	l-0.273,0.599l-0.28,0.639l-0.245,0.656l-0.138,0.635l-0.104,0.66l-0.062,0.652v0.625l0.068,0.638l0.123,0.637l0.184,0.613
	l0.25,0.648l0.305,0.646l0.318,0.54l0.426,0.561l0.451,0.553l0.413,0.41l0.452,0.386l0.474,0.355l0.475,0.335l0.515,0.273
	l0.572,0.213l0.561,0.172l0.59,0.127l0.59,0.101l0.417,0.065l0.403,0.052l0.628,0.043l0.828,0.05l0.809,0.008l0.672,0.008h0.758
	h0.815l0.084,4.803l0.227,1.197l0.245,0.816l0.264,0.613l0.4,0.74l0.406,0.605l0.542,0.553l0.465,0.404l0.605,0.455l0.648,0.381
	l0.731,0.398l0.714,0.316l0.722,0.205l0.807,0.113l0.68,0.074l0.705,0.038l0.8-0.012l0.688-0.072l0.592-0.134l0.528-0.164
	l0.555-0.191l0.508-0.203l0.508-0.283l0.702-0.453l0.683-0.568l0.627-0.652l0.548-0.686l0.471-0.819l0.373-0.825l0.312-0.879
	l0.18-0.873L113.271,67.428L113.271,67.428z M111.954,46.888l-0.029-0.683l-0.102-0.682l-0.167-0.662l-0.23-0.651l-0.291-0.615
	l-0.354-0.587l-0.409-0.546l-0.459-0.502l-0.511-0.452l-0.55-0.403l-0.581-0.341l-0.62-0.278l-0.641-0.218l-0.654-0.149
	l-0.667-0.085l-0.675-0.014l-0.674,0.056l-0.665,0.119l-0.646,0.192l-0.631,0.25l-0.599,0.321l-0.563,0.375l-0.525,0.431
	l-0.476,0.483l-0.434,0.528l-0.375,0.57l-0.314,0.609l-0.255,0.633l-0.199,0.663l-0.126,0.672l-0.065,0.686l0.007,0.687l0.074,0.683
	l0.142,0.675l0.205,0.652l0.264,0.633l0.328,0.602l0.385,0.561l0.441,0.523l0.483,0.47l0.535,0.426l0.574,0.371l0.601,0.3
	l0.632,0.25l0.651,0.175l0.663,0.11l0.671,0.047l0.677-0.03l0.667-0.093l0.658-0.16l0.64-0.229l0.605-0.293l0.581-0.353l0.537-0.406
	l0.508-0.465l0.448-0.508l0.399-0.557l0.343-0.589l0.28-0.628l0.221-0.647l0.159-0.668l0.086-0.626L111.954,46.888z"/>
</svg>
