<?xml version="1.0" encoding="utf-8"?>
<!-- Generator: Adobe Illustrator 16.2.0, SVG Export Plug-In . SVG Version: 6.00 Build 0)  -->
<!DOCTYPE svg PUBLIC "-//W3C//DTD SVG 1.1//EN" "http://www.w3.org/Graphics/SVG/1.1/DTD/svg11.dtd">
<svg version="1.1" id="图层_1" xmlns="http://www.w3.org/2000/svg" xmlns:xlink="http://www.w3.org/1999/xlink" x="0px" y="0px"
	 width="210px" height="120px" viewBox="0 0 210 120" enable-background="new 0 0 210 120" xml:space="preserve">
<path fill-rule="evenodd" clip-rule="evenodd" fill="#02478E" d="M81.896,37.598c2.325-1.694,4.828-2.96,7.507-3.799
	c0.011-0.002,0.022-0.005,0.033-0.009c0.372-0.116,0.748-0.224,1.126-0.322v0.002c-0.363,0.278-0.691,0.543-0.983,0.794
	c-0.292,0.25-0.521,0.461-0.685,0.631c-0.353,0.375-0.6,0.671-0.741,0.891c-0.237,0.369-0.328,0.735-0.271,1.096
	c0.057,0.361,0.298,0.589,0.724,0.685s0.868,0.131,1.328,0.11c0.022,0.517,0.127,1.073,0.316,1.668
	c0.137,0.434,0.346,0.961,0.624,1.582c0.599,1.216,1.367,2.462,2.307,3.738c0.746,1.015,1.678,2.145,2.794,3.39
	c3.529,3.801,7.367,6.964,11.515,9.487c1.714,0.995,3.168,1.725,4.359,2.19c1.672,0.652,3.254,0.984,4.745,1
	c1.228,0.076,2.211,0.082,2.95,0.02c1.09-0.092,2.105-0.355,3.048-0.79c0.318-0.143,0.689-0.346,1.113-0.61
	c0.394-0.245,0.887-0.614,1.479-1.107c0.021,0.361,0.035,0.725,0.044,1.091c0.004,0.222,0.006,0.443,0.006,0.667
	c0,0.582-0.016,1.158-0.047,1.728c-0.002,0.611-0.045,1.146-0.133,1.605c0,0.004-0.001,0.007-0.002,0.011
	c-0.1,0.463-0.257,0.878-0.47,1.247c-0.215,0.372-0.511,0.722-0.891,1.048c-0.948,0.686-2.208,1.108-3.778,1.27
	c-0.895,0.105-1.865,0.094-2.91-0.037c-0.825-0.102-1.779-0.291-2.865-0.568c-2.459-0.673-5.051-1.757-7.775-3.252
	c-4.896-2.681-9.467-6.194-13.714-10.541c-0.857-0.917-1.582-1.727-2.173-2.429c-0.758-0.9-1.418-1.763-1.98-2.589
	c-1.225-1.714-2.159-3.371-2.802-4.971c-0.152-0.383-0.264-0.673-0.332-0.868c-0.122-0.341-0.182-0.641-0.179-0.901
	c0.376-0.606,0.634-1.056,0.774-1.345c0.25-0.523,0.397-1.014,0.442-1.472c-0.049-0.212-0.086-0.352-0.113-0.416
	c-0.066-0.153-0.161-0.252-0.282-0.295c-0.208-0.106-0.477-0.161-0.804-0.163c-0.376,0.022-0.655,0.031-0.834,0.026
	c-0.602,0.085-1.426,0.256-2.472,0.516C81.894,37.602,81.895,37.6,81.896,37.598z M79.044,39.972
	c-0.374,0.745-0.611,1.315-0.711,1.713c-0.109,0.438-0.148,0.83-0.115,1.178c0.033,0.348,0.099,0.596,0.199,0.748
	c0.101,0.152,0.225,0.265,0.373,0.341c0.146,0.075,0.409,0.097,0.786,0.065c0.377-0.032,0.771-0.087,1.183-0.163
	c0.324,1.347,0.624,2.351,0.9,3.01c0.25,0.6,0.59,1.307,1.02,2.121c0.654,1.163,1.434,2.339,2.339,3.528
	c0.785,1.031,1.694,2.108,2.729,3.233c1.925,2.056,4.016,3.984,6.274,5.782c2.206,1.759,4.547,3.374,7.021,4.849
	c2.319,1.373,4.571,2.492,6.756,3.355c1.413,0.546,2.699,0.967,3.857,1.264c1.408,0.361,2.745,0.573,4.008,0.638
	c1.198,0.112,2.361,0.048,3.489-0.196c1.198-0.258,2.072-0.53,2.622-0.815c0.549-0.286,0.931-0.504,1.145-0.656
	c0.172-0.122,0.425-0.325,0.76-0.608c-0.535,1.494-1.207,2.933-2.016,4.313c-0.699,0.708-1.341,1.262-1.926,1.662
	c-0.636,0.434-1.348,0.784-2.133,1.05c-0.572,0.206-1.258,0.327-2.058,0.362h-0.083c-2.818,0.031-5.701-0.395-8.65-1.279
	c-2.682-0.804-5.362-1.969-8.038-3.492c-3.376-1.914-6.72-4.375-10.032-7.384c-0.115-0.087-0.287-0.249-0.515-0.488
	c-0.208-0.22-0.384-0.376-0.525-0.468c-1.949-1.897-3.668-3.747-5.157-5.55c-1.7-2.058-3.155-4.121-4.367-6.188
	c-0.016-0.04-0.189-0.363-0.522-0.971c-0.213-0.39-0.327-0.732-0.342-1.027c0.095-0.804,0.146-1.36,0.153-1.668
	c0.014-0.629-0.063-1.178-0.229-1.645c-0.062-0.191-0.166-0.362-0.313-0.515c-0.142-0.149-0.308-0.261-0.498-0.335
	c-0.486-0.098-0.949-0.043-1.392,0.164c-0.442,0.207-0.964,0.625-1.566,1.256c-0.001,0.001-0.002,0.001-0.003,0.002
	c0.002-0.002,0.004-0.004,0.007-0.006c0.637-1.186,1.372-2.331,2.205-3.435c0.814-1.077,1.72-2.116,2.72-3.116
	C78.613,40.386,78.828,40.178,79.044,39.972z M72.076,51.018c0.016,0.244,0.032,0.49,0.05,0.738c0.018,0.244,0.035,0.49,0.053,0.738
	c0.02,0.269,0.049,0.53,0.087,0.788c0.035,0.233,0.087,0.464,0.156,0.694c0.076,0.251,0.188,0.485,0.336,0.705
	c0.137,0.202,0.318,0.356,0.542,0.462c0.233,0.109,0.473,0.138,0.721,0.087c0.235-0.047,0.465-0.109,0.691-0.187
	c0.088-0.026,0.175-0.055,0.259-0.085c1.69,4.419,4.648,8.71,8.873,12.872c2.2,2.121,4.572,4.031,7.118,5.732
	c2.554,1.708,5.228,3.168,8.021,4.381c1.462,0.613,2.837,1.116,4.124,1.512c1.48,0.453,2.904,0.781,4.273,0.982
	c1.766,0.279,3.385,0.369,4.858,0.27c1.694-0.115,3.326-0.529,4.896-1.241c-0.038,0.038-0.076,0.075-0.113,0.112
	c-1.68,1.653-3.467,3.045-5.363,4.179c-0.165,0.098-0.33,0.194-0.496,0.288c-3.052,0.629-6.13,0.603-9.235-0.078
	c-4.198-0.793-8.488-2.549-12.87-5.267c-3.285-2.062-6.122-4.255-8.51-6.576c-0.251-0.19-0.545-0.472-0.884-0.845
	c-0.432-0.478-0.71-0.775-0.834-0.893c-0.817-0.936-1.436-1.69-1.854-2.268c-0.633-0.877-1.115-1.723-1.446-2.537
	c-0.006-1.136-0.079-2.119-0.216-2.951c-0.137-0.834-0.448-1.551-0.934-2.15c-0.152-0.184-0.341-0.308-0.567-0.369
	c-0.225-0.062-0.434-0.06-0.626,0.006C72.745,60.229,72.35,60.497,72,60.92c-0.246,0.3-0.452,0.613-0.616,0.943
	c-0.165,0.33-0.309,0.635-0.431,0.916c-0.099,0.229-0.22,0.539-0.362,0.928c-0.003-0.021-0.006-0.041-0.008-0.063
	c-0.145-1.185-0.218-2.399-0.218-3.645c0-3.271,0.499-6.333,1.497-9.19c0.052-0.146,0.104-0.292,0.158-0.439
	C72.042,50.588,72.061,50.804,72.076,51.018z M99.823,33.249c-0.458,0.182-0.806,0.438-1.043,0.764
	c-0.17,0.333-0.155,0.693,0.046,1.081c0.153,0.288,0.399,0.576,0.738,0.864c0.361,0.246,0.654,0.42,0.88,0.521
	c0.348,0.155,0.704,0.238,1.066,0.249c1.043,2.304,2.746,4.548,5.108,6.729c2.707,2.393,5.432,4.122,8.174,5.188
	c1.33,0.534,2.595,0.82,3.795,0.857c0.453,0.022,0.886-0.024,1.3-0.14c0.442-0.126,0.829-0.324,1.159-0.592
	c0.399-0.322,0.718-0.938,0.956-1.848c0.218,0.398,0.427,0.799,0.622,1.207c0.125,0.286,0.242,0.564,0.356,0.834
	c0.292,0.683,0.465,1.334,0.519,1.954c0.064,0.738-0.047,1.394-0.332,1.968c-0.191,0.458-0.504,0.862-0.941,1.213
	c-0.379,0.301-0.831,0.55-1.358,0.747c-1.362,0.435-2.92,0.425-4.673-0.027c-2.485-0.56-4.94-1.58-7.367-3.06
	c-2.145-1.31-4.238-2.96-6.283-4.951c-2.457-2.424-4.382-4.844-5.775-7.261c-0.432-0.868-0.671-1.359-0.718-1.472
	c-0.241-0.576-0.369-1.102-0.382-1.579c0.54-0.306,0.974-0.582,1.299-0.827s0.508-0.511,0.549-0.795
	c0.046-0.299-0.057-0.569-0.31-0.811c-0.173-0.166-0.431-0.329-0.774-0.488c-0.755-0.328-1.737-0.562-2.944-0.701l0.005-0.003
	c0.036-0.006,0.071-0.01,0.106-0.015c0.088-0.013,0.176-0.025,0.264-0.037c1.277-0.168,2.588-0.253,3.935-0.253
	c1.19,0,2.353,0.067,3.487,0.2c0.102,0.011,0.203,0.022,0.306,0.036c0.163,0.02,0.326,0.042,0.49,0.066
	c0.024,0.003,0.049,0.007,0.073,0.01l-1.053,0.07C100.593,33.011,100.167,33.112,99.823,33.249z M107.23,37.288
	c0.321-0.09,0.605-0.245,0.854-0.469c0.534-0.474,0.609-0.978,0.227-1.509c-0.332-0.464-0.723-0.863-1.173-1.196
	c3.702,1.319,7.057,3.481,10.062,6.486c1.058,1.058,2.011,2.158,2.859,3.302c0.006,0.179-0.045,0.335-0.154,0.469
	c-0.204,0.211-0.461,0.336-0.771,0.376c-0.228,0.032-0.57,0.027-1.029-0.017c-0.57-0.057-1.166-0.224-1.788-0.498
	c-0.706-0.353-1.235-0.613-1.585-0.782c-1.416-0.833-2.662-1.661-3.738-2.485c-1.27-0.968-2.371-1.977-3.307-3.028
	c-0.024-0.042-0.109-0.147-0.256-0.314C107.316,37.492,107.25,37.38,107.23,37.288z M133.662,79.885l0.292,4.752l2.958-4.752h2.725
	l-1.971,6.965h-1.688l1.552-5.482l-3.34,5.482h-1.751l-0.229-5.482l-1.551,5.482h-1.689l1.971-6.965H133.662z M127.727,83.889
	h-3.758l-0.838,2.961h-1.817l1.97-6.965h6.175l-0.333,1.18h-4.355l-0.466,1.647h3.759L127.727,83.889z M102.492,87.068
	c-1.514,0.244-3.078,0.367-4.692,0.367c-1.853,0-3.64-0.16-5.36-0.481c-4.407-0.821-8.375-2.697-11.903-5.628
	c-0.438-0.355-0.868-0.725-1.286-1.107c-0.049-0.044-0.097-0.088-0.145-0.133c-0.048-0.043-0.097-0.087-0.145-0.131
	c-0.471-0.439-0.918-0.891-1.341-1.354c-0.251-0.271-0.495-0.546-0.731-0.823c-0.234-0.274-0.461-0.553-0.682-0.834
	c-1.822-2.264-3.218-4.705-4.188-7.322c-0.019-0.052-0.038-0.104-0.057-0.155c0.386,0.035,0.652,0.084,0.799,0.146
	c0.159,0.066,0.31,0.154,0.452,0.263c0.143,0.108,0.315,0.13,0.517,0.065c0.202-0.065,0.351-0.098,0.445-0.094
	c0.785,0.963,1.903,2.262,3.357,3.895c0.39,0.407,0.968,1.027,1.734,1.858c0.685,0.724,1.292,1.312,1.821,1.764
	c2.047,1.968,4.208,3.638,6.483,5.012c2.441,1.472,4.943,2.556,7.507,3.257c1.93,0.547,4.183,0.928,6.759,1.146
	c0.606,0.067,1.159,0.104,1.66,0.112c0.043,0,0.086,0,0.128,0c-0.1,0.011-0.193,0.02-0.281,0.029
	C103.062,86.973,102.777,87.023,102.492,87.068z"/>
</svg>
