<?xml version="1.0" encoding="utf-8"?>
<!-- Generator: Adobe Illustrator 16.2.0, SVG Export Plug-In . SVG Version: 6.00 Build 0)  -->
<!DOCTYPE svg PUBLIC "-//W3C//DTD SVG 1.1//EN" "http://www.w3.org/Graphics/SVG/1.1/DTD/svg11.dtd">
<svg version="1.1" id="图层_1" xmlns="http://www.w3.org/2000/svg" xmlns:xlink="http://www.w3.org/1999/xlink" x="0px" y="0px"
	 width="210px" height="120px" viewBox="0 0 210 120" enable-background="new 0 0 210 120" xml:space="preserve">
<g>
	<polygon fill-rule="evenodd" clip-rule="evenodd" fill="#DA251D" points="91.175,51.181 96.729,54.295 96.702,43.096 
		96.767,42.844 96.854,42.613 96.958,42.399 97.075,42.201 97.211,42.023 97.359,41.859 97.519,41.715 97.694,41.59 97.872,41.479 
		98.067,41.387 98.263,41.308 98.465,41.251 98.674,41.206 98.884,41.175 99.097,41.164 99.309,41.164 99.521,41.179 99.73,41.213 
		99.937,41.258 100.137,41.319 100.331,41.396 100.517,41.483 100.692,41.585 100.859,41.7 101.015,41.829 101.155,41.974 
		101.284,42.125 101.395,42.293 101.489,42.472 101.565,42.666 101.62,42.868 101.653,43.084 101.653,52.687 107.353,52.732 
		107.371,43.118 107.405,42.901 107.463,42.7 107.538,42.509 107.634,42.334 107.743,42.176 107.872,42.026 108.013,41.894 
		108.165,41.772 108.329,41.669 108.504,41.574 108.688,41.498 108.88,41.433 109.073,41.384 109.274,41.346 109.476,41.323 
		109.681,41.312 109.887,41.319 110.089,41.338 110.288,41.369 110.487,41.415 110.677,41.476 110.858,41.552 111.034,41.638 
		111.196,41.742 111.353,41.856 111.495,41.985 111.618,42.129 111.732,42.286 111.829,42.457 111.904,42.643 111.956,42.841 
		111.995,43.053 112.113,54.261 117.321,51.287 117.427,41.585 117.36,41.088 117.25,40.601 117.102,40.129 116.914,39.672 
		116.69,39.231 116.437,38.81 116.147,38.41 115.832,38.026 115.487,37.668 115.119,37.33 114.724,37.018 114.309,36.729 
		113.876,36.468 113.423,36.231 112.956,36.022 112.478,35.846 111.983,35.698 111.485,35.584 110.977,35.504 110.46,35.456 
		109.943,35.444 109.427,35.47 108.909,35.531 108.395,35.629 107.885,35.775 107.379,35.953 106.886,36.178 106.399,36.448 
		105.927,36.759 105.472,37.118 105.031,37.524 104.61,37.977 104.31,37.512 103.97,37.094 103.603,36.722 103.2,36.387 
		102.771,36.102 102.317,35.85 101.839,35.646 101.345,35.478 100.833,35.353 100.309,35.265 99.772,35.215 99.229,35.204 
		98.679,35.227 98.127,35.288 97.579,35.383 97.032,35.512 96.493,35.68 95.965,35.877 95.448,36.105 94.946,36.368 94.464,36.661 
		94.005,36.984 93.568,37.333 93.158,37.718 92.773,38.128 92.428,38.566 92.117,39.03 91.843,39.521 91.606,40.034 91.421,40.574 
		91.28,41.141 91.188,41.726 91.175,51.181 	"/>
	<polygon fill-rule="evenodd" clip-rule="evenodd" fill="#DA251D" points="118.279,52.356 112.731,55.809 122.531,61.213 
		122.722,61.393 122.881,61.578 123.021,61.771 123.136,61.973 123.227,62.178 123.295,62.389 123.341,62.598 123.37,62.811 
		123.379,63.023 123.367,63.234 123.337,63.445 123.291,63.65 123.229,63.855 123.153,64.053 123.063,64.248 122.957,64.43 
		122.839,64.609 122.71,64.775 122.569,64.936 122.421,65.08 122.262,65.215 122.094,65.336 121.919,65.441 121.737,65.529 
		121.547,65.602 121.356,65.658 121.159,65.691 120.958,65.711 120.757,65.703 120.552,65.678 120.346,65.629 120.145,65.553 
		111.752,60.898 108.947,65.863 117.341,70.541 117.512,70.678 117.665,70.828 117.789,70.982 117.899,71.148 117.987,71.324 
		118.05,71.508 118.101,71.697 118.131,71.889 118.144,72.086 118.139,72.283 118.12,72.482 118.085,72.68 118.032,72.877 
		117.968,73.066 117.888,73.258 117.798,73.439 117.694,73.617 117.58,73.785 117.455,73.947 117.317,74.094 117.174,74.23 
		117.021,74.355 116.858,74.467 116.69,74.563 116.513,74.643 116.335,74.703 116.144,74.74 115.954,74.762 115.76,74.762 
		115.56,74.74 115.358,74.693 115.155,74.623 105.476,68.953 105.43,75.49 113.804,80.092 114.275,80.275 114.754,80.414 
		115.236,80.51 115.726,80.564 116.22,80.584 116.71,80.564 117.2,80.51 117.687,80.418 118.167,80.289 118.645,80.129 
		119.108,79.939 119.564,79.715 120,79.465 120.427,79.182 120.833,78.875 121.22,78.539 121.59,78.178 121.931,77.795 
		122.246,77.393 122.538,76.961 122.801,76.516 123.028,76.049 123.227,75.564 123.386,75.068 123.511,74.551 123.594,74.021 
		123.64,73.48 123.64,72.926 123.599,72.359 123.509,71.785 123.367,71.203 123.174,70.617 123.724,70.58 124.252,70.484 
		124.762,70.344 125.243,70.154 125.703,69.918 126.142,69.641 126.551,69.326 126.938,68.973 127.296,68.584 127.627,68.164 
		127.931,67.721 128.203,67.252 128.45,66.758 128.663,66.248 128.846,65.721 128.998,65.18 129.115,64.629 129.199,64.07 
		129.248,63.506 129.263,62.939 129.241,62.377 129.184,61.814 129.085,61.262 128.952,60.715 128.777,60.186 128.563,59.668 
		128.31,59.17 128.015,58.691 127.675,58.24 127.296,57.813 126.871,57.414 126.403,57.047 118.279,52.356 	"/>
	<polygon fill-rule="evenodd" clip-rule="evenodd" fill="#DA251D" points="103.888,75.352 103.913,68.777 94.256,74.436 
		94.005,74.506 93.762,74.547 93.522,74.564 93.294,74.563 93.069,74.535 92.857,74.49 92.651,74.422 92.454,74.334 92.269,74.234 
		92.094,74.117 91.926,73.984 91.771,73.84 91.631,73.68 91.497,73.512 91.379,73.336 91.277,73.15 91.183,72.961 91.106,72.762 
		91.041,72.561 90.992,72.355 90.962,72.15 90.942,71.945 90.942,71.74 90.958,71.537 90.992,71.34 91.044,71.145 91.112,70.955 
		91.2,70.777 91.311,70.607 91.436,70.443 91.585,70.293 91.755,70.156 100.05,65.328 97.224,60.371 88.91,65.191 88.704,65.27 
		88.498,65.324 88.298,65.354 88.101,65.359 87.907,65.344 87.712,65.309 87.528,65.256 87.349,65.184 87.173,65.092 87.006,64.99 
		86.847,64.867 86.694,64.736 86.555,64.594 86.421,64.438 86.3,64.275 86.189,64.098 86.091,63.92 86.003,63.738 85.932,63.547 
		85.874,63.354 85.829,63.16 85.802,62.963 85.79,62.768 85.795,62.574 85.817,62.385 85.858,62.193 85.916,62.014 85.999,61.836 
		86.099,61.668 86.22,61.51 86.364,61.361 86.527,61.225 96.147,55.486 90.827,52.382 82.526,57.262 82.131,57.569 81.767,57.912 
		81.433,58.277 81.132,58.668 80.865,59.083 80.63,59.517 80.429,59.965 80.258,60.434 80.122,60.912 80.015,61.404 79.943,61.898 
		79.901,62.402 79.894,62.908 79.916,63.42 79.973,63.928 80.061,64.43 80.183,64.934 80.335,65.422 80.521,65.902 80.738,66.369 
		80.987,66.826 81.269,67.26 81.583,67.678 81.93,68.072 82.307,68.441 82.72,68.787 83.161,69.105 83.636,69.389 84.146,69.641 
		84.681,69.852 85.254,70.033 85.858,70.17 85.608,70.66 85.419,71.162 85.281,71.672 85.194,72.184 85.159,72.701 85.175,73.219 
		85.235,73.736 85.342,74.246 85.49,74.756 85.681,75.254 85.904,75.74 86.167,76.219 86.466,76.68 86.793,77.123 87.155,77.553 
		87.537,77.957 87.952,78.342 88.39,78.703 88.849,79.033 89.323,79.332 89.821,79.604 90.331,79.846 90.854,80.045 91.391,80.211 
		91.938,80.33 92.489,80.41 93.048,80.447 93.609,80.438 94.173,80.379 94.734,80.27 95.293,80.109 95.845,79.889 103.888,75.352 	
		"/>
	<polygon fill-rule="evenodd" clip-rule="evenodd" fill="#DA251D" points="104.515,56.596 104.665,56.6 104.822,56.612 
		104.97,56.631 105.118,56.657 105.263,56.691 105.407,56.732 105.547,56.779 105.683,56.832 105.817,56.894 105.946,56.96 
		106.071,57.034 106.194,57.109 106.312,57.193 106.425,57.284 106.535,57.38 106.638,57.478 106.737,57.582 106.831,57.692 
		106.923,57.806 107.007,57.924 107.083,58.045 107.155,58.171 107.224,58.301 107.284,58.432 107.337,58.57 107.383,58.71 
		107.425,58.855 107.458,59 107.485,59.148 107.503,59.296 107.516,59.453 107.521,59.603 107.516,59.761 107.503,59.912 
		107.485,60.065 107.458,60.213 107.425,60.357 107.383,60.502 107.337,60.637 107.284,60.775 107.224,60.908 107.155,61.041 
		107.083,61.168 107.007,61.289 106.923,61.408 106.831,61.521 106.737,61.627 106.638,61.734 106.535,61.834 106.425,61.928 
		106.312,62.014 106.194,62.1 106.071,62.178 105.946,62.25 105.817,62.32 105.683,62.377 105.547,62.434 105.407,62.479 
		105.263,62.521 105.118,62.555 104.97,62.582 104.822,62.602 104.665,62.611 104.515,62.617 104.357,62.611 104.206,62.602 
		104.054,62.582 103.906,62.555 103.762,62.521 103.617,62.479 103.481,62.434 103.345,62.377 103.211,62.32 103.078,62.25 
		102.952,62.178 102.831,62.1 102.713,62.014 102.599,61.928 102.493,61.834 102.386,61.734 102.288,61.627 102.192,61.521 
		102.105,61.408 102.022,61.289 101.942,61.168 101.87,61.041 101.802,60.908 101.744,60.775 101.687,60.637 101.642,60.502 
		101.601,60.357 101.565,60.213 101.539,60.065 101.52,59.912 101.509,59.761 101.506,59.603 101.509,59.453 101.52,59.296 
		101.539,59.148 101.565,59 101.601,58.855 101.642,58.71 101.687,58.57 101.744,58.432 101.802,58.301 101.87,58.171 
		101.942,58.045 102.022,57.924 102.105,57.806 102.192,57.692 102.288,57.582 102.386,57.478 102.493,57.38 102.599,57.284 
		102.713,57.193 102.831,57.109 102.952,57.034 103.078,56.96 103.211,56.894 103.345,56.832 103.481,56.779 103.617,56.732 
		103.762,56.691 103.906,56.657 104.054,56.631 104.206,56.612 104.357,56.6 104.515,56.596 	"/>
	<path fill-rule="evenodd" clip-rule="evenodd" fill="#DA251D" d="M105.001,29.576l1.564,0.038l1.542,0.119l1.521,0.194l1.497,0.27
		l1.472,0.339l1.443,0.411l1.408,0.478l1.384,0.544l1.345,0.608l1.311,0.673l1.272,0.73l1.231,0.794l1.193,0.849l1.147,0.901
		l1.105,0.958l1.056,1.004l1.003,1.057l0.959,1.107l0.899,1.149l0.848,1.194l0.794,1.232l0.729,1.274l0.672,1.312l0.607,1.347
		l0.545,1.384l0.477,1.411l0.412,1.445l0.338,1.472l0.271,1.499l0.192,1.521l0.118,1.544l0.037,1.567l-0.037,1.565l-0.118,1.547
		l-0.192,1.521l-0.271,1.498l-0.338,1.473l-0.412,1.443l-0.477,1.414l-0.545,1.381l-0.607,1.348l-0.672,1.311l-0.729,1.273
		l-0.794,1.236l-0.848,1.191l-0.899,1.15l-0.959,1.104l-1.003,1.059l-1.056,1.008l-1.105,0.953l-1.147,0.906l-1.193,0.848
		l-1.231,0.791l-1.272,0.73l-1.311,0.674l-1.345,0.607l-1.384,0.549l-1.408,0.475l-1.443,0.41l-1.472,0.344l-1.497,0.266
		l-1.521,0.193l-1.542,0.117l-1.564,0.039l-1.566-0.039l-1.543-0.117l-1.52-0.193l-1.496-0.266l-1.47-0.344l-1.444-0.41L94.55,88.58
		l-1.381-0.549l-1.346-0.607l-1.311-0.674l-1.272-0.73l-1.234-0.791l-1.188-0.848l-1.152-0.906l-1.102-0.953l-1.057-1.008
		L82.5,80.455l-0.952-1.104l-0.905-1.15l-0.849-1.191l-0.789-1.236L78.275,74.5l-0.673-1.311l-0.608-1.348l-0.546-1.381
		l-0.476-1.414l-0.41-1.443l-0.342-1.473l-0.267-1.498l-0.193-1.521l-0.117-1.547l-0.039-1.565l0.039-1.567l0.117-1.544l0.193-1.521
		l0.267-1.499l0.342-1.472l0.41-1.445l0.476-1.411l0.546-1.384l0.608-1.347l0.673-1.312l0.729-1.274l0.789-1.232l0.849-1.194
		l0.905-1.149l0.952-1.107l1.007-1.057l1.057-1.004l1.102-0.958l1.152-0.901l1.188-0.849l1.234-0.794l1.272-0.73l1.311-0.673
		l1.346-0.608l1.381-0.544l1.412-0.478l1.444-0.411l1.47-0.339l1.496-0.27l1.52-0.194l1.543-0.119L105.001,29.576L105.001,29.576z
		 M105.001,31.774l1.45,0.038l1.434,0.106l1.409,0.182l1.391,0.248l1.36,0.315l1.342,0.381l1.31,0.44l1.281,0.506l1.246,0.566
		l1.215,0.624l1.183,0.68l1.143,0.734l1.106,0.787l1.065,0.836l1.024,0.887l0.98,0.935l0.935,0.981l0.884,1.023l0.837,1.069
		l0.786,1.107l0.733,1.145l0.679,1.183l0.625,1.217l0.565,1.247l0.507,1.282l0.438,1.312l0.38,1.343l0.316,1.361l0.248,1.392
		l0.182,1.411l0.106,1.433l0.038,1.452l-0.038,1.452l-0.106,1.436l-0.182,1.41l-0.248,1.393l-0.316,1.365l-0.38,1.34l-0.438,1.311
		l-0.507,1.281l-0.565,1.252l-0.625,1.217l-0.679,1.184l-0.733,1.143l-0.786,1.107l-0.837,1.064l-0.884,1.025l-0.935,0.98
		l-0.98,0.934l-1.024,0.887l-1.065,0.84l-1.106,0.785l-1.143,0.738l-1.183,0.676l-1.215,0.623l-1.246,0.566l-1.281,0.506
		l-1.31,0.441l-1.342,0.385l-1.36,0.313l-1.391,0.25l-1.409,0.18l-1.434,0.109l-1.45,0.035l-1.451-0.035l-1.434-0.109l-1.409-0.18
		l-1.392-0.25l-1.363-0.313l-1.338-0.385l-1.311-0.441l-1.279-0.506l-1.251-0.566l-1.216-0.623l-1.182-0.676l-1.144-0.738
		l-1.104-0.785l-1.064-0.84l-1.022-0.887l-0.979-0.934l-0.936-0.98l-0.885-1.025l-0.84-1.064l-0.783-1.107l-0.736-1.143
		l-0.678-1.184l-0.621-1.217l-0.567-1.252l-0.504-1.281l-0.441-1.311l-0.384-1.34l-0.313-1.365l-0.25-1.393l-0.178-1.41
		l-0.111-1.436l-0.034-1.452l0.034-1.452l0.111-1.433l0.178-1.411l0.25-1.392l0.313-1.361l0.384-1.343l0.441-1.312l0.504-1.282
		l0.567-1.247l0.621-1.217l0.678-1.183l0.736-1.145l0.783-1.107l0.84-1.069l0.885-1.023l0.936-0.981l0.979-0.935l1.022-0.887
		l1.064-0.836l1.104-0.787l1.144-0.734l1.182-0.68l1.216-0.624l1.251-0.566l1.279-0.506l1.311-0.44l1.338-0.381l1.363-0.315
		l1.392-0.248l1.409-0.182l1.434-0.106L105.001,31.774L105.001,31.774z"/>
</g>
</svg>
