<?xml version="1.0" encoding="utf-8"?>
<!-- Generator: Adobe Illustrator 16.2.0, SVG Export Plug-In . SVG Version: 6.00 Build 0)  -->
<!DOCTYPE svg PUBLIC "-//W3C//DTD SVG 1.1//EN" "http://www.w3.org/Graphics/SVG/1.1/DTD/svg11.dtd">
<svg version="1.1" id="图层_1" xmlns="http://www.w3.org/2000/svg" xmlns:xlink="http://www.w3.org/1999/xlink" x="0px" y="0px"
	 width="210px" height="120px" viewBox="0 0 210 120" enable-background="new 0 0 210 120" xml:space="preserve">
<path fill-rule="evenodd" clip-rule="evenodd" fill="#C6000B" d="M103.886,48.299v-4.671H88.718v4.671l0,0v4.663l0,0v4.681l0,0l0,0
	h4.667l0,0h4.625v4.672h-4.625h-4.667v4.683v4.66v4.061v0.608h15.168v-4.669H93.385v-4.66h9.335V66.37v-4.055v-4.672v-4.681h-4.717
	h-4.618v-4.663H103.886z M74.604,60c0-16.789,13.6-30.392,30.393-30.392c16.792,0,30.399,13.604,30.399,30.392
	c0,16.791-13.607,30.392-30.399,30.392C88.203,90.392,74.604,76.791,74.604,60z M79.308,60c0-14.176,11.506-25.69,25.688-25.69
	c14.185,0,25.687,11.514,25.687,25.69c0,14.185-11.502,25.689-25.687,25.689C90.813,85.689,79.308,74.185,79.308,60z
	 M106.242,71.668v4.668h15.152v-4.668l0,0v-4.666l0,0v-4.667l0,0l0,0h-4.676l0,0h-4.644v-4.672h4.644h4.676v-4.676v-4.68v-4.056
	v-0.613h-15.152v4.669h10.477v4.68h-9.339v0.605v4.071v4.672v4.667h4.727h4.612v4.666H106.242z"/>
</svg>
