<?xml version="1.0" encoding="utf-8"?>
<!-- Generator: Adobe Illustrator 16.2.0, SVG Export Plug-In . SVG Version: 6.00 Build 0)  -->
<!DOCTYPE svg PUBLIC "-//W3C//DTD SVG 1.1//EN" "http://www.w3.org/Graphics/SVG/1.1/DTD/svg11.dtd">
<svg version="1.1" id="图层_1" xmlns="http://www.w3.org/2000/svg" xmlns:xlink="http://www.w3.org/1999/xlink" x="0px" y="0px"
	 width="210px" height="120px" viewBox="0 0 210 120" enable-background="new 0 0 210 120" xml:space="preserve">
<path fill-rule="evenodd" clip-rule="evenodd" fill="#E50012" d="M137.41,40.932h2.188c3.043,0,2.927,0.73,2.927,2.157v26.934
	c0,1.188-0.584,1.561-2.194,1.561h-2.92v-8.166c0.518,0,0.945-0.364,0.945-0.809c0-0.441-0.428-0.807-0.945-0.807V40.932z
	 M125.016,40.932h12.395v20.871c-0.527,0-0.945,0.365-0.945,0.807c0,0.444,0.418,0.809,0.945,0.809v8.166h-1.399
	c-1.841,1.461-5.765,3.288-10.995,4.765v-2.046c5.182-1.834,10.182-4.427,9.646-5.537c-0.648-1.37-1.569,0.035-2.408-0.73
	c-0.848-0.766,0.288-1.743,2.162-2.495c1.883-0.759,1.364-2.544-0.65-1.945c-1.068,0.315-4.309,1.609-8.75,2.817v-3.358
	c0.256,0.329,0.723,0.555,1.257,0.555h3.941c1.423,0,1.874-1.062,1.874-1.911V45.605c0-0.077,0-0.154-0.016-0.225
	c0-0.021,0.008-0.042,0.008-0.063l0,0c0-0.794-0.799-1.441-1.76-1.441c-1.481,0-2.953,0-4.433,0c-0.313,0-0.609,0.07-0.872,0.189
	V40.932L125.016,40.932z M125.016,71.457c0.024-0.014,0.049-0.029,0.072-0.041c2.42-1.54,2.807-2.742-0.072-2.003V71.457
	L125.016,71.457z M125.016,61.965c0.256-0.332,0.723-0.556,1.257-0.556h1.835v-3.921h-3.092V61.965L125.016,61.965z M125.016,55.281
	h3.092V51.93h-3.092V55.281L125.016,55.281z M125.016,49.576h3.092v-2.825h-2.22c-0.313,0-0.609-0.071-0.872-0.19V49.576z
	 M111.856,40.932h13.159v3.134c-0.526,0.254-0.88,0.717-0.88,1.251l0,0c0,0.527,0.354,0.998,0.88,1.244v3.015h-1.604v-5.77h-3.851
	v17.449c-0.895,0.013-1.617,0.575-1.617,1.265l0,0c0,0.695,0.738,1.257,1.651,1.257h2.204c1.135,0,1.703-0.632,1.612-2.521v-3.767
	h1.604v4.477c-0.125,0.162-0.189,0.343-0.189,0.541l0,0c0,0.195,0.064,0.386,0.189,0.548v3.358
	c-3.734,1.02-8.316,1.981-13.159,2.248v-5.326h3.741c1.127,0,2.04-0.779,2.04-1.743v-15.12c0-0.956-0.913-1.834-2.04-1.834
	c-1.135,0-2.246,0-3.372,0c-0.13,0-0.255,0.02-0.369,0.049V40.932L111.856,40.932z M125.016,76.349
	c-3.793,1.075-8.275,1.974-13.159,2.417v-1.961c4.045-0.302,7.542-0.814,9.696-1.405c1.127-0.31,2.303-0.688,3.463-1.097V76.349
	L125.016,76.349z M125.016,51.93h-1.604v3.351h1.604V51.93L125.016,51.93z M125.016,69.413v2.044
	c-1.762,1.063-7.09,2.102-13.159,2.684v-2.163c4.836-0.478,9.31-1.279,11.628-2.094C124.077,69.68,124.578,69.524,125.016,69.413
	L125.016,69.413z M111.856,60.783h1.594v-6.395h-1.594V60.783L111.856,60.783z M111.856,51.972h1.646V46.96h-1.276
	c-0.13,0-0.255-0.013-0.369-0.042V51.972z M96.245,40.932h15.611v3.753c-0.527,0.132-0.922,0.555-0.922,1.053v0.126
	c0,0.493,0.395,0.914,0.922,1.055v5.053h-1.86V44.67c-1.273-0.021-2.549-0.034-3.873-0.034c0,5.65-0.059,11.306-0.059,16.955
	c0,0.964,0.922,1.743,2.049,1.743h3.743v5.326c-0.207,0.014-0.413,0.021-0.618,0.027c-5.864,0.255-11.259-0.084-14.993-0.449v-4.602
	h4.894v-2.551h-4.894V54.55h5.074c0-0.892,0-1.784,0-2.677h-5.074v-1.777h0.831l3.905-5.166h-4.112l-0.624,0.83V40.932
	L96.245,40.932z M111.856,78.766c-2.196,0.195-4.475,0.309-6.803,0.302c-3.075-0.014-6.029-0.197-8.809-0.521V76.84
	c5.082,0.415,10.741,0.338,15.611-0.035V78.766L111.856,78.766z M111.856,54.388h-1.812v6.395h1.812V54.388L111.856,54.388z
	 M111.856,71.978v2.163c-3.997,0.387-8.324,0.578-12.166,0.451c-1.144-0.035-2.295-0.148-3.445-0.316V71.9
	c0.79,0.113,1.67,0.225,2.648,0.316C102.579,72.588,107.373,72.427,111.856,71.978z M86.672,40.932h9.573v4.828l-1.35,1.785h-1.809
	c-0.863,0-1.572,0.569-1.572,1.264l0,0c0,0.667,0.65,1.216,1.473,1.258l-0.025,0.029h3.283v1.777H90.3v-7.87h-3.628V40.932
	L86.672,40.932z M96.245,78.547c-3.487-0.399-6.703-1.004-9.573-1.734v-1.645c0.74,0.21,1.505,0.407,2.311,0.597
	c2.131,0.514,4.624,0.858,7.263,1.075V78.547L96.245,78.547z M96.245,54.55v6.536H96.03V54.55H96.245L96.245,54.55z M96.245,63.637
	h-2.646c-0.758,0-1.375-0.528-1.375-1.174V54.55h-5.552v11.868c0.921,0,1.669,0.641,1.669,1.428s-0.748,1.419-1.669,1.419v2.445
	c2.862,1.062,6.192,2.065,9.573,2.565V71.9c-5.395-0.788-6.637-1.961-6.49-3.227c0.42-1.334,1.35-1.081,1.35-1.081
	s1.967,0.329,5.141,0.646V63.637z M80.733,40.932h5.938v3.071h-0.263v7.87h-5.676v-1.792h3.701h0.929v-2.367H82.47l-1.736-2.088
	V40.932L80.733,40.932z M86.672,76.813c-2.204-0.57-4.194-1.203-5.938-1.861v-1.947c1.62,0.759,3.611,1.503,5.938,2.164V76.813
	L86.672,76.813z M86.672,54.55v11.868c-0.913,0-1.661,0.641-1.661,1.428s0.748,1.419,1.661,1.419v2.445
	c-2.376-0.892-4.442-1.819-5.938-2.551v-5.551h1.053c0.459,0.007,1.529-0.388,2.361-2.284l2.188-6.774H86.672L86.672,54.55z
	 M80.733,59.666l1.629-5.116h-1.629V59.666z M70.42,40.932h10.313v4.693l-0.584-0.695h-4.046l4.013,5.15h0.033h0.584v1.792h-2.813
	h-0.223c-0.822,0-1.488,0.569-1.488,1.271v0.134c0,0.702,0.666,1.271,1.488,1.271h0.223h2.813v5.116l-0.403,1.266h-2.212h-0.223
	c-0.813,0-1.488,0.568-1.488,1.271v0.133c0,0.695,0.675,1.272,1.488,1.272h0.223h2.615v5.551c-1.291-0.618-2.162-1.089-2.483-1.25
	c-1.268-0.64-1.901-1.265-2.797,0.274c-0.584,1.004,1.241,2.95,5.28,4.82v1.947c-2.788-1.07-4.943-2.222-6.301-3.297h-5.197
	c-1.611,0-1.744-0.443-1.744-1.631V43.089c0-0.196-0.008-0.379-0.017-0.554v-0.33C67.509,41.34,67.87,40.932,70.42,40.932z"/>
</svg>
