<?xml version="1.0" encoding="utf-8"?>
<!-- Generator: Adobe Illustrator 16.2.0, SVG Export Plug-In . SVG Version: 6.00 Build 0)  -->
<!DOCTYPE svg PUBLIC "-//W3C//DTD SVG 1.1//EN" "http://www.w3.org/Graphics/SVG/1.1/DTD/svg11.dtd">
<svg version="1.1" id="图层_1" xmlns="http://www.w3.org/2000/svg" xmlns:xlink="http://www.w3.org/1999/xlink" x="0px" y="0px"
	 width="210px" height="120px" viewBox="0 0 210 120" enable-background="new 0 0 210 120" xml:space="preserve">
<path fill="#231815" d="M79.261,51.007c-0.039,0.023-0.386,0.238-0.433,0.263c-0.695,0.396-1.212,0.592-2.167,1.19
	c-0.395-0.184-0.938-0.285-1.323-0.047l-0.606,0.5c-0.274-0.872,0.885-1.476-0.001-2.263c-0.439-0.446-1.316-0.181-1.511-0.945
	c-0.384-0.886-1.177-0.038-1.385-1.083c-0.324-2.177-0.972-4.205-1.003-6.493c1.103-0.426,2.141-1.533,2.171-2.715
	c-0.116-0.894-0.475-1.923-1.461-2.211c-1.432-0.47-2.979-0.049-4.151,0.636c0,0-0.55,0.064-0.748-0.127
	c-0.707-0.681-3.163-0.696-4.21,0.244c-0.572,0.399-0.635,0.74-1.049,1.315c-0.019,0.076-0.297,0.211-0.478,0.163
	c-1.528-0.163-3.128,0.146-3.748,1.642c-0.467,0.89-0.056,1.892,0.576,2.576c0.448,0.49,1.188,0.658,1.929,0.578
	c1.217,2.15,2.129,4.442,2.793,6.809c-0.393,0.363-0.412,0.982-0.726,1.357c-0.164,0.039-0.392,0.113-0.537,0.308
	c-0.577,1.105,1.024,1.717,0.949,2.898c0.007,0.098,0.075,0.259,0.118,0.274c0.043,0.11,0.145,0.209,0.421,0.297
	c-0.037,0.257-0.539,0.522-0.539,0.874c-0.331,0.312-0.769,0.551-1.179,0.446c-0.802-0.328-1.275,0.382-1.829,0.827
	c-0.188,0.152-0.387,0.089-0.618,0.308c-0.203,0.184-0.237,0.366-0.394,0.529c-0.646,0.665-1.661,1.045-2.438,1.56
	c-0.665-0.24-0.872-0.542-1.57-0.918c-0.068-0.057-0.329-0.241-0.336-0.221c-0.268-0.13-0.55-0.201-0.769-0.042
	c-0.329,0.212-0.108,0.5-0.011,0.724c-0.696-0.342-1.33,0.004-0.948,0.558c-0.479-0.067-0.744,0.321-0.632,0.444
	c0.17,0.234,0.652,0.589,0.866,0.643c-0.908-0.15-1.127,0.404-0.718,0.879c0.853,0.872,1.811,0.648,2.797,1.228
	c-0.215,0.313-0.264,0.856-0.073,1.206c0.216,0.262,0.713,0.556,1.069,0.238c0.168-0.161,0.156-0.618,0.377-0.783
	c0.053-0.056,0.599,0.108,0.999-0.768c1.047,0.029,2.75-0.246,3.687,0.408c0.412,0.292,1.46-0.102,1.261,0.768
	c-0.95,1.049-2.162,2.11-2.101,3.604c0.707,0.718,1.566,1.364,2.447,1.812c-0.385,1.37-0.713,2.743-0.846,4.194
	c0.523,0.678,1.385,0.687,2.072,1.157c0.118,0.841-1.443,2.431,0.021,2.601c-0.959,0.92-1.582,1.316-1.829,2.828
	c0.55,1.933,3.366,1.879,5.419,1.531c0.633-0.129,0.96-0.658,1.179-1.188c0.063-0.495-0.077-0.919-0.102-1.397
	c0.956,0.029,1.864,0.636,2.832,0.95c3.009,1.043,5.007,1.19,5.422-0.063c0.153-1.164-0.561-2.234-1.605-2.607l-2.171-0.674
	c-0.031-0.451,0.267-0.928,0.519-1.346c1.264-0.475,2.697-0.955,4.15-0.563l0.278-0.082c0.355-1.523-0.165-2.945,0.184-4.475
	c0.932-3.557,1.959-8.266-0.166-11.635c0.194-0.679,0.904-0.683,1.323-1.135c0.407-0.764,1.729-1.266,1.118-2.342
	c0.219-0.794,0.934-1.375,1.599-2.082c1.237,0.126,2.202,1.602,3.49,0.889c0.386,0.103,0.83-0.137,0.859-0.505
	c0.298-0.655,0.022-1.395-0.287-1.969c-0.877-1.161-2.06-1.475-3.165-2.263c0.295-0.388,0.324-0.921-0.056-1.263
	c-0.411-0.358-1.014-0.427-1.19-0.26c-0.551,0.541,0.049,1.034-1.23,1.635c-0.15,0.087-0.299,0.143-0.471,0.314
	C79.257,50.869,79.261,51.007,79.261,51.007z"/>
<path fill="#FFFFFF" d="M74.024,55.754l0.583,0.503l-0.392-1.132C74.024,55.286,74.088,55.549,74.024,55.754z"/>
<path fill="#FFFFFF" d="M64.131,63.23l-0.27,1.078c-0.495,0.079-1.014-0.055-1.239-0.365C63.203,63.784,63.25,62.913,64.131,63.23z"
	/>
<path fill="#FFFFFF" d="M68.8,55.899c0.434-0.186,0.826-0.287,1.26-0.056c0.225,0.158-0.135,0.389-0.186,0.422
	c-0.332,0.164-0.884,0.21-1.218,0.001C68.588,56.219,68.442,56.069,68.8,55.899z"/>
<path fill="#FFFFFF" d="M66.448,38.085c-1.151-0.66-2.671-0.396-3.767,0.264c-0.606,0.558-0.884,1.849-2.027,1.508
	c-0.914-0.023-2.038-0.051-2.644,0.636c-0.381,0.499-0.61,1.029-0.61,1.658c0.117,0.687,0.693,1.42,1.414,1.628
	c0,0,0.475,0.134,0.662,0c0.031-0.054-0.062-0.234,0.045-0.312h0.142c1.733,2.205,2.405,4.749,3.297,7.276
	c0.864-0.458,1.486-0.672,2.017-0.741c0.08-0.236,0.239-0.464,0.448-0.559c0.199-0.09,0.539-0.053,0.895,0.133
	c0.979-0.326,1.5-0.335,2.151-0.405c0.054-0.122,0.33-0.336,0.52-0.411c0.452-0.174,1.04,0.046,1.279,0.291
	c0.366,0.031,0.73,0.067,1.073,0.149c-0.144-2.845-1.059-5.516-0.982-8.201c0.463,0.063,0.366,0.595,0.445,0.57
	c0.634-0.195,1.169-0.752,1.546-1.292c0.38-0.707,0.153-1.652-0.338-2.261c-0.693-0.629-1.738-0.628-2.647-0.493
	C68.405,37.736,67.557,38.741,66.448,38.085z"/>
<path fill="#231815" d="M63.618,42.966c-0.475-0.265-0.984-0.61-1.628-0.4l-0.021,0.002v0.022v0.021v0.019l0.021,0.003
	c0.438-0.067,0.955,0.248,1.31,0.471c2.419,1.422,3.252,0.076,3.893-0.744c0.351-0.445,0.486-0.626,0.83-0.809l0.241-0.112
	L68.1,41.468c-0.564,0.137-0.925,0.544-1.274,0.945c-0.196,0.23-0.417,0.476-0.651,0.65c-0.278,0.198-0.567,0.298-0.899,0.305l0,0
	h-0.004C65.271,43.368,64.429,43.428,63.618,42.966z"/>
<path fill="#FFFFFF" d="M74.492,53.861c-0.276,2.025,1.092,3.59,2.885,4.592c0.333,0.137,0.826,0.169,1.05-0.122
	c0.218-0.733,1.494-0.874,0.887-1.818c-0.195,0.154-0.438,0.394-0.468,0.681c0.029-0.022,0.084-0.078,0.138-0.047l0.053,0.047
	c-0.767,0.688-1.703-0.129-2.364-0.414c-0.693-0.632-1.32-1.393-1.32-2.343c0.132-0.472-0.035-1.102,0.349-1.392v0.313
	c0.217-0.18,0.584-0.3,0.644-0.619c-0.226-0.105-0.59-0.249-0.811-0.013C75.287,53.202,74.731,53.441,74.492,53.861z"/>
<path fill="#FFFFFF" d="M59.435,58.637c-0.147,0.123-0.481,0.104-0.592,0.175c-0.711,0.538-0.326,1.555-0.326,2.296
	c0.302,1.105,1.071,2.376,2.334,2.714c0.782,0.046,1.803-0.145,1.824-0.274l0.007-0.107c-1.049,0.025-1.933-0.889-2.456-1.783
	c-0.469-1.003-0.854-2.443,0.08-3.397c0.107-0.289,0.494,0.131,0.384-0.314C59.976,57.734,59.806,58.324,59.435,58.637z"/>
<path fill="#FFFFFF" d="M71.32,78.947c-0.305-0.211,0.131-0.447,0.112-0.674c-0.725,0.23-1.623,0.896-2.478,0.475
	c-0.382-0.103-0.431,0.18-0.899,0.298c0.357,0.613,1.063,0.509,1.703,0.769c1.168,0.15,2.002,0.963,2.39,0.035
	c0.824-0.633,1.894-0.107,2.828-0.449c-0.157-0.427-0.712-0.58-1.096-0.763c-0.689-0.138-0.731,1.451-1.648,0.368l0.439-0.732
	C72.127,78.391,72.148,79.737,71.32,78.947z"/>
<path fill="#FFFFFF" d="M63.544,78.788c-0.387,0.258-0.71,0.645-0.875,1.065c1.212,0.609,1.649,0.947,4.114,0.804l0.851,0.203
	c0.066-2.009-0.914-2.36-1.968-2.538C64.871,78.191,64.292,78.237,63.544,78.788z"/>
<polygon fill="#FFFFFF" points="67.856,79.41 67.826,79.463 68.159,79.695 68.185,79.648 "/>
<path fill="#231815" d="M64.161,79.737l-0.13,0.235c0.56,0,1.403,0,1.975,0.257c0.146-0.028,0.283-0.265,0.138-0.364
	C65.589,79.51,64.747,79.363,64.161,79.737z"/>
<path fill="#FFFFFF" d="M68.379,79.838c2.036,1.022,5.59,1.981,6.871,1.505c0.198-0.024,0.46-0.196,0.479-0.391v-0.236
	c-1.568,0.869-4.17-0.103-6.101-0.548C69.193,80.092,68.791,79.805,68.379,79.838z"/>
<path fill="#FFFFFF" d="M61.92,81.237c0.341,1.397,2.673,1.559,4.623,1.149c0.436-0.115,0.765-0.16,0.938-0.527
	c-0.163,0.036-0.438,0.232-1.137,0.318C64.61,82.521,63.1,82.238,61.92,81.237z"/>
<path fill="#F5DAD9" d="M70.978,57.529v0.264c-0.114,0.475-0.522,0.687-0.989,0.762c-0.225-0.179-0.578-0.31-0.658-0.576
	c0,0,0.585-0.088,0.873-0.168C70.488,57.734,70.978,57.529,70.978,57.529z"/>
<path fill="#F5DAD9" d="M73.22,51.207v0.212c0.212-0.185,0.464-0.292,0.709-0.32l0.063,0.142c-0.245,0.154-0.52,0.186-0.57,0.527
	c0.252,0.604,0.378,1.308,0.52,1.912c0.907-0.267-0.082-1.369,0.603-1.902c0-0.387,0.077-0.974-0.386-1.07
	C73.713,50.6,73.326,50.864,73.22,51.207z"/>
<path fill="#F5DAD9" d="M68.632,49.828c-0.156,0.088-0.188-0.009-0.245-0.096c-0.032-0.068-0.026-0.182,0.005-0.258
	c-0.567,0.021-1.255,0.1-1.857,0.335c0.121,0.086,0.338,0.202,0.17,0.374c-0.005,0.012-0.095,0.023-0.14,0.002
	c-0.312-0.177-0.589-0.546-0.94-0.414c-0.427,0.214-0.214,0.668-0.443,0.953c-0.075,0.081-0.171,0.025-0.197-0.016
	c-0.062-0.035-0.102-0.268-0.066-0.388c-0.359,0.021-0.649,0.178-0.956,0.388c0.473,0.944,0.07,1.967-0.644,2.674
	c-0.328-0.445-0.942-0.76-1.52-0.625c-0.433,0.208-0.328,0.69-0.181,0.894c0.406,0.577,0.906,1.157,0.989,1.893
	c0.056,0.211,0.493,0.267,0.665,0.05c0.135-0.103-0.056-0.367,0.182-0.445c0.366,0.682,1.022,1.366,1.798,1.756
	c1.793,1.135,4.627,1.179,6.385-0.064c1.121-0.873,2.037-2.055,1.92-3.525c-0.142-1.451-1.168-2.492-2.107-3.646
	c-0.309-0.212-0.585-0.304-1.003-0.28c-0.17,0.571-0.139-0.126-1.058-0.253C68.891,49.055,68.759,49.456,68.632,49.828z"/>
<path fill="#F5DAD9" d="M53.286,59.852c-0.339,0.525,0.688,0.898,0.936,1.189c-0.631-0.088-2.051-1.005-2.043-0.461
	c0.352,0.402,1.503,0.786,1.717,0.901c-0.662,0.024-1.241-0.528-1.979-0.495c-0.527,0.427,1.185,0.918,1.703,1.315
	c-0.603,0.052-1.784-0.473-1.889-0.089c-0.105,0.634,0.833,0.79,1.175,0.93c0.692,0.213,1.438,0.262,2.042,0.68
	c-0.082,0.422-0.659,0.816-0.246,1.265c0.745,0.392,0.31-0.999,1.237-0.818c0,0,0.247,0.03,0.523-0.634l2.942-0.134
	c-0.905-1.024-1.57-2.156-1.412-3.606c-0.825,0.398-1.53,0.66-2.302,1.184l-2.278-1.279L53.286,59.852z"/>
<path fill="#F5DAD9" d="M80.953,50.195c-0.392,0.37-1.076,0.499-1.185,1.076c-1.376,0.759-2.491,1.126-4.028,2.5
	c-0.105,1.251,0.399,2.375,1.537,2.98c0.382,0.177,1.031,0.574,1.398,0.04l2.366-2.913l-0.232-0.264
	c1.199,0.072,2.229,1.189,3.435,1.3c0.073,0.006,0.056,0,0.131-0.086c0.214-1.051-1.741-1.125-2.123-2.336
	c-0.356-0.45-0.658-0.611-1.434-0.384c0.196-0.238,0.562-0.278,0.94-0.264c0.684,0.187,0.857,0.596,1.187,1.146
	c0.704,0.377,1.589,1.277,2.308,1.563c0.215-0.129,0.215-0.365,0.051-0.525l-1.318-0.944l-0.302,0.233
	c0.216-0.964,0-1.156-0.084-1.579c0.337,0.345,0.989,0.608,1.458,0.927c-0.728-0.923-1.794-1.556-2.868-1.895
	c0.029,0.239,0.285,0.667-0.079,0.761c0.079-0.591-0.713-1.012-0.037-1.71c0.214-0.18-0.243-0.522-0.55-0.63
	C80.958,49.03,81.211,49.909,80.953,50.195z"/>
<path fill="#F5DAD9" stroke="#F5DAD9" stroke-width="0.406" d="M83.962,52.312c-0.178,0.647,0.655,0.811,1.084,1.16l0.479,0.328
	C85.576,53.039,84.547,52.678,83.962,52.312z"/>
<path fill="#231815" d="M69.545,52.946c-0.163,0.264-0.71,0.56-1.224,0.379c-0.137,0.125-0.406,0.154-0.584,0.053
	c-0.179-0.107-0.214-0.314-0.181-0.502c-0.325,0.199-0.075,0.546,0.058,0.625c0.106,0.073,0.362,0.193,0.746,0.004
	c0.516,0.155,1.127-0.045,1.266-0.439c0.318-0.094,0.465-0.219,0.414-0.497c0,0-0.04-0.131-0.115-0.16
	c-0.064-0.031-0.115-0.06-0.115-0.06l-0.026,0.022C69.971,52.502,69.991,52.867,69.545,52.946z"/>
<path fill="#231815" d="M61.798,53.251c0.279,0.03,0.658,0.015,0.884,0.41c-0.317,0.532,0.407,0.6,0.32,1.107l0.18,0.008
	C62.911,54.147,62.868,52.841,61.798,53.251z"/>
<path fill="#FFFFFF" d="M69.883,61.218l0.051-0.267c0.581,0.369,1.259,0.127,1.493-0.134l0.616,0.596
	c0.513,0.413,0.554,0.896,1.581,1.357c0.355-0.183,0.537-0.469,0.721-0.86c0.132,0.022,0.201,0.145,0.295,0.132
	c0.16-0.02,0.232-0.14,0.363-0.304c0.121-0.174,0.349-0.559,0.415-0.799c-0.002-0.172-0.891-0.931-1.449-1.197l0.762-0.399
	c-0.389-1.452-0.565-1.652-1.13-2.664l0.286-0.634c1.598,1.259,2.744,3.043,3.641,4.925c1.901,4.004-0.038,7.573-0.583,11.182
	c-0.188,1.181,0.419,2.232,0.011,3.341c-2.451-0.287-4.376,0.982-6.719,1.09c-3.079-0.021-5.918-0.726-8.394-2.009
	c0.021-2.475,1.04-4.589,1.497-6.905c0.087-0.757,0.747-1.454-0.548-2.315c-0.463-0.394-1.024-0.708-0.724-1.339l0.119,0.08
	c0.415,0.655,1.261,0.527,1.931,0.705c1.037-2.104,0.916-5.129-0.136-7.157c0.624,0.149,1.048,0.286,1.516,0.55
	c0.583,0.92,0.95,1.655,1.131,2.729c0.007,0.058,0.122,0.475,0.14,0.529c0.011,0.096-0.259,0.52-0.241,0.613
	c0.289,0.416,0.751,0.951,1.173,1.122c0.124,0.052,0.124-0.058,0.199-0.171l0.141-0.323c0.616,0.189,0.851,0.787,1.434,0.683
	c0.086-0.475,0.129-1.287,0.314-1.734L69.883,61.218z"/>
<path fill="#231815" d="M68.665,56.897c0.325,0.271,1.017,0.321,1.403,0.086l0.329-0.27C69.878,56.927,69.244,57.192,68.665,56.897z
	"/>
<path fill="#231815" d="M69.633,51.812c-0.004,0.008-0.007,0.014-0.007,0.014"/>
<path fill="#231815" d="M69.341,50.635c0.562-0.807,1.174-0.21,1.174-0.21c0.252,0.362,0.278,0.857,0.062,1.268
	c0,0.018,0.256,0.069,0.324,0.1c0.016,0.002-0.095,0.036-0.101,0.039c-0.299-0.104-0.76-0.037-1.083-0.003c-0.035,0-0.088,0-0.114,0
	c-0.003,0-0.003,0-0.003,0c-0.026-0.003-0.033-0.003-0.026-0.007C69.405,51.76,69.011,51.319,69.341,50.635z"/>
<path fill="#FFFFFF" d="M69.734,51.754c-0.03-0.033-0.048-0.01-0.06-0.146c-0.139-0.475,0.199-1.11,0.595-1.202
	c0,0,0.117-0.031,0.191,0c0,0-0.622-0.416-0.952,0.318c-0.249,0.555,0,0.928,0.146,1.069C69.701,51.775,69.743,51.764,69.734,51.754
	z"/>
<path fill="#231815" d="M66.065,52.704L66.065,52.704c0,0-0.441-0.316-0.254-1.071c0.232-0.998,0.987-0.638,0.987-0.638
	c0.138,0.1,0.115,0.089,0.182,0.148c0.31,0.32,0.353,0.719,0.305,1.153c0,0.02,0.196,0.01,0.284,0.023
	c0.038,0.012,0.029,0.045,0.017,0.059c-0.474-0.059-1.241,0.217-1.644,0.475C65.869,52.881,65.904,52.807,66.065,52.704z"/>
<path fill="#FFFFFF" d="M66.243,52.581l0.101-0.038c0.162-0.16,0.031-0.093-0.075-0.458c-0.104-0.417,0.137-1.045,0.524-1.014
	c-0.019-0.016-0.049-0.031-0.061-0.031c-0.267-0.071-0.664-0.037-0.771,0.736c-0.014,0.646,0.248,0.806,0.248,0.806l0,0
	C66.225,52.575,66.243,52.581,66.243,52.581z"/>
<path fill="#FFFFFF" d="M68.573,78.383c-1.211,0.477-2.188,0.369-2.188,0.369c-0.32-0.035-1.588,0.017-2.871-0.555
	c-0.08-0.024-0.14-0.06-0.194-0.104"/>
<path fill="#231815" d="M63.32,78.5c0.055,0.043,0.114,0.078,0.199,0.109c1.278,0.571,2.546,0.517,2.866,0.554
	c0,0,0.977,0.106,2.188-0.375v-0.405c-1.211,0.477-2.188,0.369-2.188,0.369c-0.32-0.035-1.588,0.017-2.871-0.555
	c-0.08-0.024-0.14-0.06-0.194-0.104V78.5z"/>
<path fill="#EC821B" d="M74.216,55.126l0.392,1.132l-0.583-0.503C74.088,55.549,74.024,55.286,74.216,55.126z"/>
<path fill="#EC821B" d="M71.665,59.283c1.019,0.049,1.166-0.054,1.882,0.173l0.698-0.303c-0.084-0.354-0.283-1.251-0.789-2.022
	C72.902,57.778,72.684,58.562,71.665,59.283z"/>
<path fill="#EC821B" d="M60.455,58.718c-0.58,1.205-0.068,2.593,0.776,3.663c0.956,0.952,2.117,0.279,2.968,0.37
	c0.289-1.84,0.071-4.789-1.297-5.298C62.428,57.617,61.428,57.925,60.455,58.718z"/>
<path fill="#EC821B" d="M77.141,59.092c0,0,0.198-0.041,0.296-0.242c-0.267-0.039-1.093-0.704-1.093-0.704
	C76.425,58.412,76.81,59.125,77.141,59.092z"/>
<path fill="#EC821B" d="M66.202,58.499c0.446,0.896,0.646,1.51,0.922,2.454c0.651-0.734,1.21-1.037,2.017-1.239l0.108-0.019
	C68.204,59.246,67.374,59.01,66.202,58.499z"/>
<path fill="#EC821B" d="M62.622,63.943c0.226,0.311,0.744,0.444,1.239,0.365l0.27-1.078C63.25,62.913,63.203,63.784,62.622,63.943z"
	/>
<path fill="#EC821B" d="M60.243,68.18c-0.058,0.953,1.073,1.265,1.731,1.629h0.243c0.306-1.237,0.742-2.314,0.82-3.654
	c-0.474-0.354-0.809-0.96-1.4-0.314C60.983,66.504,60.489,67.313,60.243,68.18z"/>
<path fill="#EC821B" d="M69.395,76.972c-0.179,0.461-0.265,1.015-0.338,1.351c0.401,0.466,2.213-0.363,2.897-0.655l0.38-1.187
	C72.334,76.48,70.355,77.008,69.395,76.972z"/>
<path fill="#EC821B" d="M68.917,76.902c-1.78-0.181-3.328-0.291-5.014-0.851c-0.112,0.454-1.288,1.843-0.389,2.146
	c1.283,0.571,2.551,0.52,2.871,0.555c0,0,0.977,0.107,2.188-0.369l0.037-0.105C68.69,77.922,68.813,77.377,68.917,76.902"/>
<path fill="#231815" d="M64.313,79.395c0.604-0.135,1.433-0.031,1.977,0.255c0.135-0.021,0.307-0.26,0.135-0.364
	c-0.488-0.373-1.23-0.37-1.833-0.258C64.423,79.131,64.396,79.26,64.313,79.395z"/>
<path fill="#43AD3C" d="M75.382,79.648c0.22,0.236,0.264,0.324,0.341,0.64c-1.034,0.635-2.47,0.325-3.543,0.144l0,0
	C72.992,79.075,74.333,80.363,75.382,79.648z"/>
<path fill="#43AD3C" d="M62.057,80.687c0.049,0.421,0.553,0.536,0.855,0.741c1.435,0.497,3.496,0.658,4.753-0.124
	c-0.597-0.41-1.017-0.271-1.703-0.263c-1.022,0.021-2.158,0.023-3.244-0.791C62.393,80.05,62.161,80.342,62.057,80.687z"/>
<path fill="#43AD3C" d="M71.343,58.364c0.132-0.22,0.256-0.456,0.492-0.604l0.045-0.034l0.009,0.051
	c0.075,0.243-0.061,0.462-0.187,0.676c-0.134,0.203-0.245,0.393-0.165,0.577c1.089-1.304,2.185-2.851,2.341-4.605
	c-0.24,0.724-0.802,1.462-1,1.704l-0.002,0.007c-0.106,0.128-0.32,0.331-0.329,0.341c-0.188,0.204-0.381,0.38-0.56,0.554
	c-0.477,0.445-0.896,0.826-1.018,1.508l0.219,0.099C71.245,58.553,71.294,58.454,71.343,58.364z"/>
<path fill="#43AD3C" d="M67.798,58.732c0.517,0.213,1.047,0.437,1.576,0.635v-0.106l-1.714-0.934l-0.053-0.019l0.042-0.039
	l0.135-0.132l0.021-0.018l0.014,0.008c0.29,0.084,0.546,0.224,0.804,0.361c0.297,0.167,0.608,0.336,0.959,0.393l0.104-0.138
	c-0.162-0.2-0.464-0.368-0.65-0.477c-0.083-0.053-0.132-0.081-0.16-0.098c-0.232-0.053-0.325-0.053-0.434-0.053
	c-0.128-0.004-0.291-0.004-0.722-0.078l-0.731-0.118c-0.026-0.006-2.255-0.564-3.165-1.61c-0.474-0.031-0.864,0.286-1.175,0.616
	l0.004,0.103C64.447,57.343,66.144,58.048,67.798,58.732z"/>
<path fill="#43AD3C" stroke="#43AD3C" stroke-width="0.406" d="M70.587,59.332c0.203,0.027,0.392,0.278,0.499,0.419l0.04,0.057l0,0
	h0.005c0.068,0.137,0.123,0.208,0.243,0.314c0.156-0.528-0.091-1.075-0.666-1.397c-0.311-0.044-0.717-0.018-0.861,0.318l0.568,0.294
	l0.031,0.021C70.497,59.333,70.546,59.328,70.587,59.332z"/>
<path fill="#43AD3C" d="M70.095,60.477c0.053,0.025,0.108,0.054,0.166,0.09c0.271,0.166,0.554,0.332,0.83,0.094
	c0.146-0.184,0.021-0.4-0.097-0.594c-0.016-0.038-0.034-0.063-0.042-0.093c-0.063-0.056-0.12-0.111-0.162-0.166
	c-0.114-0.125-0.214-0.245-0.413-0.352l-0.051-0.027l0.029-0.011l-0.592,0.05C69.566,59.937,69.925,60.328,70.095,60.477z"/>
<path fill="#43AD3C" d="M72.411,61.251c0.278,0.181,0.434,0.372,0.579,0.537c0.159,0.2,0.308,0.368,0.62,0.496l0.054-0.057
	c0.181-0.159,0.252-0.228,0.373-0.532c-0.049-0.088-0.175-0.254-0.291-0.402c-0.087-0.116-0.164-0.215-0.199-0.276l0.063-0.047
	l0.961,0.676c0.117-0.159,0.239-0.362,0.301-0.579c-0.013-0.059-0.031-0.147-0.105-0.215c-0.67-0.622-1.732-1.33-3.007-1.182
	c-0.018,0.078-0.016,0.165,0,0.257c0.018,0.182,0.026,0.377-0.119,0.524L72.411,61.251z"/>
<path fill="#43AD3C" d="M68.414,60.943v-0.004h0.007l0.355-0.328l0.068,0.041c-0.036,0.101-0.102,0.234-0.17,0.4
	c-0.161,0.37-0.376,0.871-0.482,1.205l0.912,0.58c0.014-0.282,0.145-0.598,0.277-0.945c0.273-0.695,0.552-1.416-0.005-1.908
	c-0.846-0.021-1.412,0.639-1.968,1.277l-0.051,0.059c-0.08,0.081-0.383,0.539-0.413,0.67l0.669,0.658
	C67.679,62.174,68.069,61.382,68.414,60.943z"/>
<path fill="#43AD3C" d="M71.568,78.586c-0.052,0.184,0.05,0.184,0.191,0.238c0.296-0.02,0.396-0.416,0.464-0.633
	C71.897,78.109,71.618,78.322,71.568,78.586z"/>
<path fill="#43AD3C" d="M73.414,78.453c-0.329,0.078-0.415,0.898-0.858,0.451C72.752,78.666,72.999,78.164,73.414,78.453z"/>
<path fill="#43AD3C" d="M64.416,79.786c0.572-0.026,1.1,0.028,1.602,0.179C65.604,79.629,64.911,79.576,64.416,79.786z"/>
<path fill="#43AD3C" d="M64.642,79.205c0.494-0.024,1.104,0.027,1.602,0.185C65.852,79.152,65.136,78.808,64.642,79.205z"/>
<path fill="#231815" d="M73.34,71.941l-0.022-0.078l0,0l0,0V71.86l0,0h-0.002l0,0v-0.003h-0.012l-0.006,0.006v0.002l0,0l0,0
	l0.002,0.008h0.004l0.012-0.008h0.008l-0.006-0.002l-0.002-0.018L73.3,71.852l0.004-0.006h0.012l0,0l-0.012-0.004l0,0v-0.008H73.3
	l-0.002,0.008h-0.009l0,0v0.004h0.004l-0.004-0.004c0,0,0,0-0.009,0.004h-0.003l0,0h-0.004v0.006v0.006l0,0v0.008v0.018l0.007-0.01
	l0.009-0.01v-0.006v-0.012l0.011-0.012l-0.011,0.008l-0.009,0.004l-0.775,0.319l0,0l-0.012,0.005l0.012,0.006v0.002h0.006
	l0.009,0.003v0.007l0.001-0.01v-0.002l0,0v-0.004v-0.007H72.52l0,0l0,0c-0.007-0.006-0.009,0-0.026,0v0.005l-0.009,0.002l0,0v0.004
	v0.002l0,0v0.003v0.007l0,0l0,0l0,0l0,0l0.009-0.007l0,0l-0.009,0.007v0.011V72.2h0.012l0.009-0.002l0,0l0,0v-0.005v-0.006l0,0
	h-0.012h-0.009v0.011c0,0,0,0,0.035,0.083l0.009,0.007h0.002l0,0h-0.002l0,0v0.008v0.002v0.007l0.002-0.002l0.007-0.005h0.009v-0.01
	v0.005v0.005l0,0l0.001-0.002v-0.008l0,0h-0.001v0.005v-0.005l0,0l-0.018,0.015l0.018-0.005l0.01-0.01l0.771-0.315h0.005h0.009
	l-0.009-0.008l-0.005-0.007V71.95h-0.003h-0.008l0.002,0.008v0.007l0,0l-0.002,0.008l0,0h0.002h0.006l0,0c0,0.008,0.003,0,0.012,0
	l0,0l0,0h0.005l0,0l-0.009-0.015v0.007l0.004,0.008h0.005l0,0h0.008v-0.008l0,0v-0.007V71.95l0,0h-0.004H73.34h-0.009l0.004,0.008
	l0.005-0.008h-0.005v0.008l0.013,0.007V71.95L73.34,71.941v-0.002h-0.005h-0.004h-0.005v0.002v0.005l0.005,0.004l0.004-0.004
	l-0.004-0.007l-0.005,0.002l0,0v0.005v0.004l0,0h0.005h0.004h0.005h0.008h-0.004l-0.004-0.004V71.941z"/>
<path fill="#231815" d="M72.243,72.357l-0.011-0.006l-0.02-0.054l-0.005-0.01h-0.004v-0.003l-0.012,0.003h-0.008v0.005l-0.002,0.003
	l-0.003,0.002l0.005,0.007l0,0l0.008,0.002h0.012v0.004v-0.006l0.004-0.002v-0.007v-0.008v-0.003l-0.004,0.003h-0.012h-0.008
	l-0.327,0.056H71.84h-0.005h-0.007l0.007,0.008l0,0v0.004l0.005,0.002l0.004,0.015l0.002-0.015l0.001-0.002v-0.004h0.011v-0.008
	h-0.011h-0.001H71.84h-0.005h-0.007l0.007,0.008l0,0l0.009,0.021c0.022,0.051,0.022,0.051,0.022,0.054l0.009,0.006l0.005-0.006
	l0.004-0.01l0,0v-0.002l0,0L71.88,72.41v0.004l-0.014,0.002l0,0v0.007l0.009,0.009l0.005,0.001v0.009l0.004-0.009l0,0l0.005-0.001
	v-0.006l0.009-0.01h-0.009l0,0l-0.005-0.002H71.88V72.41l-0.005,0.006l0,0v0.01l-0.009,0.006v0.004l0.014-0.003h0.004h0.005
	l0.331-0.055l0.013-0.004h0.011h0.012l-0.011-0.005L72.243,72.357v-0.002l-0.011-0.004l0,0h-0.009l-0.004,0.006v0.012v0.003v0.002
	v0.004l0.013-0.004l0,0h0.011l0.012,0.004l-0.011-0.006L72.243,72.357z"/>
<path fill="#231815" d="M64.423,70.379l-0.579-1.082l-0.024-0.037l-0.007-0.016l-0.007-0.003l-0.002-0.018v-0.009v0.015
	l-0.013,0.012v0.009v0.01v0.048c-0.022,0.356,0.196,0.616,0.401,0.866l0.007,0.004v-0.004l0.005-0.006h0.002l-0.002-0.002
	l-0.005-0.005v-0.004v0.004l-0.007,0.005c-0.006,0.002-0.006,0.008-0.006,0.008c0.072,0.074,0.132,0.147,0.186,0.23l0,0v0.002v0.003
	l0.016,0.004l0,0l0.008-0.007h0.001v-0.002L64.396,70.4l0,0v0.006c0,0,0.001,0,0.021-0.016l0,0h0.007l0,0l0,0v-0.023l-0.007,0.018
	l-0.005,0.006l-0.009,0.014l0.014-0.014l0,0h0.007h0.006l0,0v-0.006l0,0L64.423,70.379l0.006,0.006
	C64.429,70.385,64.429,70.382,64.423,70.379l-0.007,0.003v0.003l0.007-0.003l0,0V70.379L64.423,70.379L64.423,70.379z"/>
<path fill="#231815" d="M64.593,70.086c0.807,1.365,2.302,2.041,3.646,2.529h0.005v0.006h0.013h0.007v-0.006l0,0v-0.006h-0.007
	h0.007l0,0h0.004l-0.011-0.005v0.005h0.007c0,0,0.004,0,0.011-0.023l0,0v-0.007l0,0v0.007v-0.007v-0.003v-0.003V72.57h-0.006
	l-0.001-0.002l0,0c-1.17-0.43-2.729-1.313-3.629-2.513l0,0l-0.006-0.008l0,0l0,0l0,0h-0.016l0,0l-0.001,0.002l-0.015,0.017h-0.009
	v0.004l0,0h-0.002v0.005l0.002,0.006v0.001V70.086z"/>
<path fill="#231815" d="M68.588,72.717l0.038,0.022c0.09,0.042,0.175,0.084,0.312,0.061v-0.06c-0.036-0.007-0.063-0.019-0.103-0.031
	c-0.065-0.024-0.139-0.051-0.229-0.051L68.588,72.717z"/>
<path fill="#231815" d="M68.605,72.695c0.11,0.051,0.186,0.098,0.329,0.076C68.824,72.746,68.734,72.695,68.605,72.695z"/>
<path fill="#231815" d="M73.472,71.873c1.818-0.566,2.879-1.849,3.424-3.049c0.033-0.069,0.022-0.141,0.06-0.21
	c-0.784,1.351-1.957,2.536-3.534,3.192L73.472,71.873z"/>
<path fill="#231815" d="M66.289,54.25c0.231,0.21,0.455,0.484,0.695,0.775c0.716,0.877,1.54,1.876,2.825,1.524h0.011l0.007-0.007
	c0.584-0.268,0.751-1.023,0.917-1.744c0.1-0.429,0.2-0.868,0.376-1.217c0,0,0.06-0.113,0.02-0.136
	c-0.042-0.02-0.146,0.05-0.146,0.05c-0.903,0.775-2.48,1.321-3.961,0.81c-0.13-0.045-0.265-0.08-0.385-0.113
	c-0.104-0.023-0.2-0.043-0.271-0.067c0,0-0.066-0.019-0.104,0.001C66.245,54.163,66.289,54.25,66.289,54.25z"/>
<path fill="#F5DAD9" d="M68.8,55.899c0.434-0.186,0.826-0.287,1.26-0.056c0.225,0.158-0.135,0.389-0.186,0.422
	c-0.332,0.164-0.884,0.21-1.218,0.001C68.588,56.219,68.442,56.069,68.8,55.899z"/>
<path fill="#FFFFFF" d="M68.285,55.986c0.436-0.449,1.071-0.607,1.64-0.5c0.226,0.128,0.333,0.056,0.412-0.142l0.385-1.394
	c-1.047,0.732-2.56,0.956-3.827,0.558C67.308,55.032,67.7,55.568,68.285,55.986z"/>
<path fill-rule="evenodd" clip-rule="evenodd" fill="#231815" stroke="#231815" stroke-width="0.0677" d="M151.911,45.961
	l0.326-0.197l0.652-0.064l0.391-0.326l1.435,0.131l0.195,0.065c0.131,0.13,0.175,0.392,0.131,0.782l-0.064,0.717
	c0,0.522,0.021,0.892,0.064,1.109l0.261,0.586c0,0.479-0.348,0.826-1.043,1.045l-1.892,0.455c-0.261,0-0.521-0.021-0.781-0.064
	c-0.523-0.131-0.761-0.436-0.718-0.913l0.326-1.956v-0.588l0.392-0.13l0.261-0.132L151.911,45.961z M149.303,49.416
	c-0.088,0.436-0.391,0.631-0.913,0.588l-0.522,0.586c-0.303,0.479-0.499,0.871-0.586,1.175l0.652,0.13l1.956-0.456
	c1.521-0.304,3.021-0.436,4.499-0.392l1.175,0.26c0.782,0.262,1.151,0.763,1.107,1.502l-0.194,0.455
	c-0.262,0.262-0.87,0.369-1.827,0.326l-4.043,0.326c-0.303,0.043-0.739,0.131-1.304,0.262c-1.129,0.348-2.217,0.912-3.261,1.695
	l-0.132,0.131c-0.042,0.086,0.154,0.064,0.588-0.066l1.305-0.195c0.913-0.131,1.521-0.152,1.826-0.064
	c0.043-0.131,0.151-0.262,0.326-0.393c0.349-0.305,0.804-0.434,1.369-0.391h0.782c0.521,0.086,0.695,0.283,0.521,0.587l-0.521,1.761
	c-0.217,1.696-0.087,3.869,0.393,6.52l0.129,0.393c0.044,0.348-0.042,0.719-0.261,1.109l-0.261,0.588
	c-0.217,0.348-0.521,0.434-0.912,0.26c-0.306-0.088-0.609-0.305-0.913-0.652c-0.565-0.695-0.849-1.717-0.849-3.064l-0.064-5.086
	c-0.523,0.043-1.065,0.107-1.631,0.193c-1.088,0.132-1.695,0.262-1.827,0.393l-0.39,0.326c-0.131,0.217-0.044,0.392,0.261,0.521
	l0.652-0.13c0.436-0.132,0.892-0.153,1.369-0.066l0.652,0.261c0.434,0.262,0.652,0.545,0.652,0.85
	c0.13,0.26-0.305,0.607-1.305,1.041l-2.348,1.305l0.065,0.262l0.521-0.326l0.782-0.131l0.522-0.195l1.434,0.195l0.261,0.393
	l0.131,0.455l-0.717,0.523l-0.065,0.193c-0.304,0.219-0.739,0.326-1.304,0.326l-0.913,0.197l-0.652,0.064l0.064,0.781
	c0.043,0.566,0.066,0.957,0.066,1.176v0.652c-0.087,0.477-0.37,0.805-0.849,0.979l-0.717,0.064l-0.196-0.262l-0.391-1.043
	l0.064-1.76c-0.607,0.348-1.13,0.477-1.565,0.391l-0.586-0.064l-0.196,0.064l-0.326-0.262v0.262l-0.064,0.26
	c-0.132,0.176-0.282,0.307-0.457,0.393l-0.327,0.521l-0.717,0.457l-0.456-0.457c-0.565-0.348-0.782-0.869-0.651-1.564
	c0-0.785,0.064-1.652,0.194-2.609c0.261-1.869,0.763-3.195,1.501-3.978c0.173-0.175,0.436-0.392,0.781-0.651
	c0.652-0.437,1.305-0.783,1.957-1.045c1.001-0.087,1.565-0.305,1.696-0.652c0.304-0.434,0.283-0.652-0.066-0.652l-4.368,1.566
	l-0.261,0.131l-1.696,3.26c-0.347,0.695-0.565,1.217-0.652,1.564l-0.391,1.24c-0.088,0.217-0.196,0.367-0.326,0.457l0.848,2.803
	c0.217,0.521,0.457,0.912,0.718,1.176l0.521,1.105c0.262,0.828,0.24,1.393-0.064,1.697c-0.521,0.783-0.913,1.24-1.174,1.369
	c-0.261,0.217-0.586,0.348-0.979,0.393c-0.695,0.129-1.282-0.195-1.761-0.979c-0.825-1.088-1.434-2.609-1.826-4.564l-0.065-0.262
	l-0.325-0.195l-0.718,0.457c-0.348,0.303-0.674,0.107-0.978-0.588c-0.087-0.086-0.153-0.262-0.197-0.523
	c-0.086-0.477,0.023-1.107,0.327-1.889l0.848-1.566c0.173-0.305,0.196-0.695,0.065-1.174c-0.044-0.174-0.021-0.369,0.064-0.586
	c0.131-0.436,0.522-0.74,1.175-0.913l1.63-5.218c0.044-0.305,0.174-0.652,0.392-1.045c0.347-0.738,0.87-1.325,1.565-1.76
	l0.979-0.391c0.738-0.305,1.39-0.369,1.956-0.195l0.979,0.717c0.478,0.696,0.478,1.564,0,2.607l4.043-1.237
	c0.738,0.043,1.021-0.218,0.848-0.784c0.13-0.434,0.305-0.891,0.522-1.369c0.435-0.912,0.998-1.479,1.694-1.695l0.979,0.065
	C149.303,48.721,149.521,48.981,149.303,49.416z M105.674,44.852l-0.064,1.238c-0.132,0.784-0.435,1.109-0.913,0.979l-0.392,0.064
	c-0.175,0.132-0.044,0.283,0.392,0.458l1.043,0.652c0.783,0.521,1.196,0.999,1.239,1.435l0.261,1.043
	c0,0.74-0.348,1.131-1.042,1.174c-0.307-0.043-0.61-0.043-0.914,0c-0.609,0.131-0.913,0.412-0.913,0.849l-0.392,0.717
	c-0.131,0.392,0.087,0.435,0.653,0.13l3.651-0.979l0.913-0.129c0.738,0.043,1.347,0.391,1.825,1.043l0.131,0.979
	c-0.088,0.651-0.478,1.129-1.175,1.434l-0.651,0.719c-0.435,0.607-0.696,1.326-0.782,2.15l-0.457,1.631
	c-0.435,1.262-0.979,2.283-1.631,3.066l-0.782,1.236c-0.695,0.74-1.608,0.893-2.738,0.457c-0.349-0.26-0.587-0.543-0.719-0.846
	c0-0.088,0-0.152,0-0.197c-0.042-0.086-0.173-0.02-0.391,0.197l-0.392,0.26c-0.261,0.262-0.391,0.5-0.391,0.717v2.543
	c-0.131,2.35-0.021,3.109,0.326,2.283c0.913-1,1.391-1.586,1.434-1.76c0.349-0.35,0.283-0.5-0.195-0.457
	c-0.13-0.088-0.195-0.195-0.195-0.326c-0.086-0.174,0.087-0.305,0.522-0.391h0.327l0.193-0.195l-0.261-0.133l0.132-0.324
	l0.651-0.197l0.848-0.391l1.239-0.326l1.109-0.064l0.847,0.521c0.608,0.914,0.696,1.5,0.262,1.76c0,0.35-0.588,0.59-1.761,0.719
	l-3.001,1.695c-0.391,0.219-0.303,0.283,0.261,0.195l0.914,0.197c0.738,0.174,1.305,0.434,1.695,0.781l0.651,0.781
	c0.392,0.609,0.414,1.111,0.065,1.5c-0.086,0.176-0.24,0.307-0.456,0.393c-0.479,0.131-1.151-0.066-2.021-0.588
	c-1.262-1.129-2.24-1.781-2.936-1.955c-0.088-0.045-0.196-0.064-0.326-0.064c-0.217,0-0.326,0.131-0.326,0.389l0.065,2.152
	c0.13,1.609,0.282,2.871,0.456,3.785l0.131,0.979c0,0.738-0.174,1.303-0.522,1.695c-0.218,0.172-0.456,0.283-0.717,0.324
	c-0.479,0.088-0.805-0.195-0.979-0.848c-0.435-1.52-1.107-2.824-2.021-3.912l-1.696-2.088c-0.132-0.086-0.196-0.174-0.196-0.262
	c0-0.174,0.24-0.217,0.717-0.129l0.588,0.391c0.479,0.262,0.805,0.521,0.979,0.783c0.782,0.869,1.021,0.848,0.717-0.064
	c-0.13-0.783-0.262-1.76-0.391-2.936c-0.217-2.348-0.217-4.391,0-6.131c-0.217,0.088-0.479,0.133-0.783,0.133
	c-0.564,0-1-0.197-1.303-0.59c-0.219-0.215-0.393-0.457-0.523-0.715c-0.129-0.523,0.262-0.957,1.174-1.305l0.587-0.262
	c0.479-0.217,0.892-0.305,1.239-0.262c0.088-0.217,0.131-0.477,0.131-0.781c0-0.521-0.239-0.805-0.718-0.848
	c-0.566,0.043-0.912-0.066-1.044-0.328c-0.174-0.086-0.281-0.217-0.325-0.389c-0.13-0.307,0.021-0.652,0.457-1.045
	c0.13-0.131,0.304-0.26,0.521-0.392c0.392-0.305,0.74-0.499,1.044-0.586l0.913-0.458c0.174-0.52,0.088-0.717-0.262-0.586
	l-1.499,0.783l-0.652,0.195l-1.108,0.651l-0.521,0.587l-0.783,0.262l-0.847-0.064l-1.044-0.459l-0.196-0.977l0.392-0.912
	l0.913-0.783l0.522-0.066l0.326,0.131l0.521,0.131l2.153-0.652c1.738-0.521,2.672-0.957,2.803-1.305l0.262-1.369l-1.435,0.392
	c-0.261,0.13-0.544,0.261-0.849,0.392c-0.607,0.26-0.978,0.455-1.108,0.586c-0.304,0.174-0.651,0.262-1.042,0.262
	c-0.828,0.043-1.501-0.262-2.023-0.913c-0.478-0.609-0.652-1.11-0.521-1.501c0.044-0.129,0.088-0.26,0.131-0.391
	c0.088-0.262,0.239-0.434,0.457-0.521l0.26-0.587l0.783-0.065l1.631-0.521l1.498-0.848c-0.652-0.131-1.021-0.326-1.107-0.588
	c-0.262-0.434-0.413-0.804-0.457-1.107l0.327-1.761c0.13-0.522,0.087-1.066-0.132-1.631c-0.391-0.522-0.455-0.999-0.195-1.435
	c-0.042-0.044,0-0.131,0.131-0.262c0.173-0.217,0.542-0.478,1.108-0.782l0.13-0.651l0.914-0.392l2.608,0.13
	c1.218,0.043,2.151,0.262,2.804,0.652l0.717,0.587C105.587,43.047,105.761,43.852,105.674,44.852z M143.368,61.285l-0.718,0.521
	l-0.521-0.064h-0.327l-0.325-0.131l-0.326-0.326l-0.326,0.457l0.064,1.891l-0.196,0.262l0.262,0.326l0.391-0.85l0.393-0.064
	l0.717-0.391l1.305-0.391l-0.132-1.24H143.368z M143.89,59.329v-0.978c-1.173,0.261-1.936,0.674-2.283,1.238
	c-0.174,0.262-0.237,0.5-0.194,0.719c0.173-0.262,0.63-0.502,1.369-0.719C143.172,59.459,143.542,59.373,143.89,59.329z
	 M145.455,61.285l0.848-0.588c0.26-0.348,0.217-0.498-0.13-0.455l-0.718,0.391V61.285z M146.042,68.133l0.717-0.195
	c0.044-0.35,0.174-0.717,0.392-1.109c0.392-0.738,0.913-1.217,1.565-1.434l0.978,0.195c0.566,0.262,0.783,0.717,0.652,1.369
	l-0.13,0.457l0.391,0.26l0.588-0.26l1.825-0.066c1.218,0.045,1.805,0.326,1.762,0.848l0.064,0.719
	c-0.088,0.434-0.544,0.607-1.369,0.521c-0.651,0-1.305,0.021-1.956,0.064c-1.392,0.129-2.088,0.371-2.088,0.719l-0.261,1.238
	c-0.131,1.262-0.195,2.871-0.195,4.826v1.434l-0.521,0.783l-0.261,0.654l-0.457,0.258l-0.456,0.066h-1.761
	c-1.522,0.652-2.739,0.979-3.652,0.979c-0.739,0.131-1.587,0.217-2.544,0.26c-1.956,0.045-3.499-0.129-4.63-0.52l0.262-0.131
	c0.434-0.045,1.456-0.023,3.064,0.064l2.805-0.326c2-0.303,3.347-0.783,4.043-1.436l1.305-0.846l0.261-6.914l-1.565,0.195
	l-2.151,0.521c0,0.088-0.087,0.174-0.262,0.262c-0.434,0.131-1.13,0.086-2.087-0.131c-0.173-0.086-0.304-0.26-0.392-0.523
	c-0.086-0.391,0.151-0.824,0.717-1.305l1.24-0.52C143.02,68.721,144.391,68.395,146.042,68.133z M127.521,59.459
	c0.392,0.044,0.652,0.176,0.782,0.393l0.522,0.521c0.261,0.434,0.13,0.891-0.391,1.369l-3.326,3.586l-0.131,0.195
	c0,0.131,0.152,0.131,0.457,0l2.738-0.977h0.718c0.477,0.088,0.76,0.303,0.848,0.65l0.13,0.326c0.044,0.307-0.043,0.654-0.261,1.045
	l-0.456,1.826c-0.348,1.217-0.499,1.936-0.456,2.15c0.216,0.783,0.021,1.328-0.587,1.631c-0.74,0.393-1.349,0.457-1.827,0.195
	l-1.695-0.389c0.174,3.041,0.217,4.738,0.13,5.086c0.087,1.041-0.064,1.631-0.456,1.762c-0.086,0.084-0.196,0.107-0.325,0.064
	c-0.305-0.088-0.565-0.438-0.782-1.043c-0.132-0.219-0.262-0.654-0.393-1.305c-0.173-1.26-0.151-2.871,0.066-4.826l0.26-2.414
	l-0.195-0.26l-0.196,0.26c-0.13,0.217-0.194,0.414-0.194,0.588l-0.131,1.305c-0.175,0.912-0.435,1.543-0.782,1.891l-0.262,0.391
	c-0.305,0.219-0.695,0.238-1.174,0.064c-0.086-0.043-0.195-0.107-0.326-0.193c-0.174-0.262-0.216-0.631-0.13-1.111
	c0.087-0.52,0.216-1.129,0.391-1.824c0.435-1.305,0.979-2.283,1.631-2.934c0.218-0.262,0.457-0.545,0.717-0.85
	c0.522-0.564,0.87-0.891,1.044-0.979V64.74c0-0.041,0-0.086,0-0.129c-0.086-0.086-0.281-0.064-0.587,0.064
	c-0.391,0.174-0.803,0.307-1.239,0.391c-0.868,0.176-1.391,0.066-1.565-0.326c-0.13-0.041-0.237-0.15-0.326-0.324
	c-0.13-0.391-0.15-0.936-0.064-1.631l0.456-0.195v-0.457l0.261-0.391l0.392,0.064l0.131-0.195l6.063-2.152H127.521z M124.848,70.545
	l0.587,0.197l0.586-0.064l0.261,0.064c0.435-0.043,0.652-0.391,0.652-1.045c0.044-0.348,0.044-0.781,0-1.303l-0.13-0.783
	c0.087-0.217-0.021-0.326-0.326-0.326l-0.457,0.064l-0.717,0.262c-0.13,0.043-0.238,0.131-0.326,0.26
	c-0.043,0.088-0.087,0.152-0.13,0.197V70.545z M142.976,73.545l0.393-0.064l0.783,0.064l0.129,0.588l-0.129,1.174l-0.849,1.369
	l-0.586,0.457c-0.218,0.088-0.479,0.131-0.783,0.131c-0.652,0-1.196-0.24-1.631-0.717l-0.456-0.652l0.065-0.326l0.129-0.262
	l-0.194-0.195v-0.391l0.326-0.262l0.261-0.326l0.195-0.393c0.175-0.26,0.392-0.498,0.652-0.715c0.521-0.348,1-0.262,1.436,0.26
	v0.195L142.976,73.545z M119.499,56.982l-0.979,0.651h-1.043l-0.913,0.718c-0.696,0.564-1.194,1.021-1.499,1.369l-0.457,0.391
	c-0.304,0.391-0.609,0.979-0.912,1.762v0.979c0.043,0.564,0.303,0.629,0.781,0.195c0.565-0.652,1.478-1.369,2.739-2.152
	c0.131-0.174,0.283-0.303,0.457-0.393c0.348-0.26,0.631-0.326,0.847-0.193l0.522,0.193c0.348,0.262,0.499,0.588,0.456,0.979
	l-0.717,2.348c-0.262,1.219-0.281,1.805-0.065,1.762l0.326,0.262c0.216,0.172,0.304,0.348,0.262,0.52
	c0.086,0.393-0.088,0.674-0.522,0.85l-1.108,0.977c-0.131,0.348-0.305,0.48-0.522,0.393c-0.304-0.088-0.477-0.195-0.521-0.328
	c-0.958,0.697-1.609,0.957-1.957,0.785v0.717c-0.086,0.305,0.131,0.305,0.652,0l1.044-0.523c0.738-0.348,1.304-0.52,1.694-0.52
	h0.326c0.217,0,0.348,0.107,0.392,0.326l0.064,0.391c0.043,0.348-0.064,0.783-0.326,1.305c0.479-0.131,0.738-0.305,0.784-0.521
	l0.325-0.195c0.262-0.088,0.349-0.047,0.262,0.129l-0.587,1.502c-0.608,1.041-1.393,1.889-2.349,2.541l-0.131,0.066
	c-0.174,0.086-0.305,0.215-0.391,0.391c-0.305,0.434-0.652,0.588-1.043,0.457c-0.391-0.217-0.565-0.588-0.522-1.109
	c0.045-0.174,0.132-0.348,0.261-0.521c0.262-0.391,0.609-0.695,1.044-0.912c0.651-0.219,0.87-0.521,0.651-0.912
	c0.219-0.566,0.088-0.764-0.391-0.588l-0.652,0.457c-0.391,0.348-0.543,0.65-0.456,0.912l-0.261,0.848
	c-0.261,0.479-0.74,0.631-1.436,0.455c-0.347-0.129-0.565-0.26-0.652-0.389c-0.869-0.914-1.391-1.545-1.563-1.893
	c-0.132-0.131-0.262-0.412-0.393-0.848c-0.304-0.826-0.413-1.957-0.326-3.391c0.043-2.174,0.175-3.479,0.392-3.914
	c0.261-0.826,0.217-1.26-0.131-1.305c-0.086-0.086-0.152-0.217-0.194-0.391c-0.044-0.348,0.108-0.738,0.456-1.174
	c0.565-0.738,1.194-1.478,1.891-2.217c1.349-1.564,2.238-2.5,2.674-2.805c0.13-0.174,0.305-0.348,0.522-0.521
	c0.435-0.305,0.826-0.457,1.173-0.457l0.783,0.066c0.565,0.043,0.935,0.238,1.108,0.586l0.261,0.588
	C119.76,56.155,119.717,56.59,119.499,56.982z M116.564,65.916c0-0.262,0.022-0.412,0.066-0.457c0.173-0.74,0.086-0.977-0.261-0.719
	c-0.175,0.133-0.371,0.326-0.588,0.588l-1.174,1.305c-0.131,0.871,0.261,0.85,1.174-0.064
	C116.218,66.393,116.479,66.178,116.564,65.916z M105.545,55.481l-2.544,0.782l-0.457,1.174l0.651,0.326l0.393,0.457l0.26,0.586
	l-0.456,0.85l-1.043,0.846l-0.457,0.523l-0.195,0.521l0.848-0.195c0.436,0,0.675,0.15,0.719,0.455c0,0.174-0.023,0.348-0.067,0.521
	c0.393,0.479,0.696,0.479,0.913,0l0.196-0.977l2.087-5.674C106.609,55.416,106.326,55.352,105.545,55.481z M89.044,52.482
	l0.587-0.588l1.891-0.326l1.239,0.522l0.457,1.435l-0.196,1.238l-1.24,1.893l-0.193,1.304l0.129,1.304
	c0,0.957-0.064,1.631-0.195,2.021l-0.195,1.957c-0.217,1.434-0.499,2.455-0.85,3.064l-3.128,6.262
	c-0.218,0.174-0.457,0.303-0.717,0.393c-0.523,0.172-0.936-0.047-1.24-0.654c0.043-0.086,0.108-0.521,0.195-1.305l-0.13-2.869
	l0.196-0.262l0.26,0.326v0.654l0.131,0.455l0.326,0.26c0.218,0,0.413-0.367,0.587-1.105c0.912-2.654,1.325-4.98,1.238-6.98
	c0.087-0.869,0.153-1.76,0.196-2.674c0.173-1.869,0.327-2.934,0.456-3.195c0.349-0.391,0.283-1-0.194-1.825
	C88.479,53.525,88.608,53.09,89.044,52.482z M96.348,66.893c0.218,0.523,0.153,1.023-0.194,1.502l-1.24,3.52
	c-0.173,0.957-0.652,1.652-1.434,2.088l-1.697,0.783l2.023-6.195l-0.393-0.129l-1.631,2.02l-1.498,0.064l-0.392-0.26l0.13-0.26
	l-0.195-0.395v-0.584l0.457-0.785l3.651-2.41c0.565-0.176,1.218-0.021,1.957,0.455L96.348,66.893z"/>
</svg>
