<?xml version="1.0" encoding="utf-8"?>
<!-- Generator: Adobe Illustrator 16.2.0, SVG Export Plug-In . SVG Version: 6.00 Build 0)  -->
<!DOCTYPE svg PUBLIC "-//W3C//DTD SVG 1.1//EN" "http://www.w3.org/Graphics/SVG/1.1/DTD/svg11.dtd">
<svg version="1.1" id="图层_1" xmlns="http://www.w3.org/2000/svg" xmlns:xlink="http://www.w3.org/1999/xlink" x="0px" y="0px"
	 width="210px" height="120px" viewBox="0 0 210 120" enable-background="new 0 0 210 120" xml:space="preserve">
<g>
	<linearGradient id="SVGID_1_" gradientUnits="userSpaceOnUse" x1="78.2368" y1="77.8105" x2="88.6294" y2="77.8105">
		<stop  offset="0" style="stop-color:#967A28"/>
		<stop  offset="0.2967" style="stop-color:#C7B67B"/>
		<stop  offset="1" style="stop-color:#8D7629"/>
	</linearGradient>
	<path fill="url(#SVGID_1_)" d="M81.175,73.681c0,0-2.99,1.796-2.938,4.078c0,0,4.028,5.278,10.392,3.975
		C88.629,81.733,81.283,75.693,81.175,73.681z"/>
	
		<linearGradient id="SVGID_2_" gradientUnits="userSpaceOnUse" x1="1015.627" y1="-460.3662" x2="1026.0195" y2="-460.3662" gradientTransform="matrix(-1 0 0 -1 1146.832 -415.3633)">
		<stop  offset="0" style="stop-color:#967A28"/>
		<stop  offset="0.2967" style="stop-color:#C7B67B"/>
		<stop  offset="1" style="stop-color:#8D7629"/>
	</linearGradient>
	<path fill="url(#SVGID_2_)" d="M128.266,49.133c0,0,2.992-1.797,2.938-4.081c0,0-4.029-5.277-10.392-3.971
		C120.813,41.081,128.155,47.119,128.266,49.133z"/>
	
		<radialGradient id="SVGID_3_" cx="91.9521" cy="55.8633" r="36.6224" gradientTransform="matrix(0.9986 0 0 0.9986 -0.2034 -1.2527)" gradientUnits="userSpaceOnUse">
		<stop  offset="0" style="stop-color:#FFF100"/>
		<stop  offset="0.3011" style="stop-color:#FFF100"/>
		<stop  offset="0.4443" style="stop-color:#FFEE01"/>
		<stop  offset="0.5388" style="stop-color:#FDE505"/>
		<stop  offset="0.6193" style="stop-color:#FBD60B"/>
		<stop  offset="0.6918" style="stop-color:#F8C114"/>
		<stop  offset="0.7585" style="stop-color:#F4A61F"/>
		<stop  offset="0.8158" style="stop-color:#F0882C"/>
		<stop  offset="0.9135" style="stop-color:#F08A2A"/>
		<stop  offset="0.9487" style="stop-color:#F18F23"/>
		<stop  offset="0.9738" style="stop-color:#F39918"/>
		<stop  offset="0.9939" style="stop-color:#F6A707"/>
		<stop  offset="1" style="stop-color:#F7AD00"/>
	</radialGradient>
	<path fill="url(#SVGID_3_)" d="M130.868,60.001c0,14.825-12.018,26.843-26.844,26.843c-14.826,0-26.847-12.018-26.847-26.843
		c0-14.828,12.021-26.846,26.847-26.846C118.851,33.155,130.868,45.173,130.868,60.001z"/>
	<linearGradient id="SVGID_4_" gradientUnits="userSpaceOnUse" x1="77.3823" y1="72.8477" x2="135.6416" y2="72.8477">
		<stop  offset="0" style="stop-color:#8C9576"/>
		<stop  offset="0.0556" style="stop-color:#9AA372"/>
		<stop  offset="0.1384" style="stop-color:#A9B26E"/>
		<stop  offset="0.2069" style="stop-color:#AEB76C"/>
		<stop  offset="0.2697" style="stop-color:#A9B36D"/>
		<stop  offset="0.3401" style="stop-color:#9CA672"/>
		<stop  offset="0.3952" style="stop-color:#8C9777"/>
		<stop  offset="0.4328" style="stop-color:#96A074"/>
		<stop  offset="0.5121" style="stop-color:#A4AD6F"/>
		<stop  offset="0.6086" style="stop-color:#ACB56D"/>
		<stop  offset="0.7685" style="stop-color:#AFB76C"/>
		<stop  offset="0.8439" style="stop-color:#AAB26D"/>
		<stop  offset="0.9335" style="stop-color:#9CA472"/>
		<stop  offset="1" style="stop-color:#8C9576"/>
	</linearGradient>
	<path fill="url(#SVGID_4_)" d="M77.382,76.502c0,0,2.12-11.104,29.973-8.166c0,0,21.869,3.918,28.286-0.107
		c0,0,0.027,1.877-0.461,3.344c0,0-8.485,2.857-25.705-0.244c0,0-27.66-3.264-31.089,6.527
		C78.387,77.855,77.953,77.454,77.382,76.502z"/>
	<linearGradient id="SVGID_5_" gradientUnits="userSpaceOnUse" x1="73.9263" y1="61.3535" x2="134.418" y2="52.6497">
		<stop  offset="0" style="stop-color:#910000"/>
		<stop  offset="0.2363" style="stop-color:#E61612"/>
		<stop  offset="1" style="stop-color:#910000"/>
	</linearGradient>
	<path fill="url(#SVGID_5_)" d="M77.422,76.563c0,0-6.963-15.229-0.325-29.481c0,0,1.525-2.284,5.546-3.264
		c0,0,8.487-3.155,22.633,0.98c0,0,15.121,5.114,25.892,0.217c0,0,5.55,6.746,4.462,23.608c0,0-8.269,3.588-28.071-0.217
		C107.559,68.406,81.666,64.924,77.422,76.563z"/>
	<path fill-rule="evenodd" clip-rule="evenodd" fill="#1D120F" d="M78.89,48.684h3.753c0,0-2.229,10.362-2.8,12.376
		c0,0,0.083,0.434,0.407,0.434l10.445,0.083c0,0-0.162,2.229-1.794,2.393l-12.619-0.49c0,0-0.49-0.106-0.328-0.87L78.89,48.684z"/>
	<path fill-rule="evenodd" clip-rule="evenodd" fill="#1D120F" d="M97.605,51.512c0,0-0.815,8.433-3.21,7.126
		c0,0-1.142,0.599,1.197-7.179h-2.557c0,0-1.906,9.736-3.482,6.798c0,0,0.38-3.101,1.524-6.798h-2.34l-0.271,0.271
		c0,0-2.531-1.467-4.732,0.897c0,0-4.245,6.529,0.571,7.753c0,0,1.386,0.57,2.773-1.552c0,0,1.007,3.672,4.488,0.028
		c0,0,1.524,3.483,4.243,0.708l-0.274,1.25c0,0-5.383,1.741-4.458,5.496c0,0,1.576,2.99,5.113,0.705c0,0,1.524-1.685,1.85-4.078
		l2.446-11.425H97.605z M87.021,56c-0.646,1.715-1.678,2.915-2.304,2.678c-0.629-0.236-0.613-1.818,0.032-3.531
		c0.647-1.716,1.679-2.916,2.305-2.679S87.667,54.284,87.021,56z M94.994,65.111l0.021-0.104c-0.036,0.117-0.079,0.26-0.13,0.431
		c-0.544,1.794-1.794,0.925-1.794,0.925c-0.87-1.741,2.503-4.08,2.503-4.08l-0.578,2.725C95.349,63.912,94.994,65.111,94.994,65.111
		z"/>
	<path fill-rule="evenodd" clip-rule="evenodd" fill="#1D120F" d="M101.358,49.608h2.123c0,0-0.764,1.958-2.34,2.012
		c0,0-0.543,0.056-0.053-0.706C101.087,50.914,101.739,49.989,101.358,49.608z"/>
	<path fill="#1D120F" d="M104.977,52.71c0,0,1.225,1.143,2.147-0.11c0,0,0.382-0.517-0.517-0.979c0,0-2.72-1.061-4.596,0.164
		c0,0-2.205,1.414-0.952,3.508c0,0,3.617,2.994,2.556,3.81c0,0-0.543,0.816-1.929-0.138c0,0-1.225-0.897-2.206,0.355
		c0,0-0.272,0.68,0.382,1.032c0,0,3.128,1.223,4.978-0.38c0,0,2.091-1.414,0.952-3.426c0,0-3.835-2.585-2.394-3.563
		C103.398,52.982,104.296,52.301,104.977,52.71z"/>
	<path fill="#1D120F" d="M108.496,58.34h2.148c-0.83,1.807-1.431,2.896-1.803,3.271c-0.45,0.613-1.451,0.871-2.998,0.768
		C106.418,62.002,107.304,60.658,108.496,58.34z M111.488,61.101l0.704-3.99h-2.763c-1.303,0.037-1.838-0.409-1.606-1.327
		l0.442-2.507c0.079-1.023,0.844-1.499,2.297-1.432h4.143c0.85,0,1.449-0.29,1.789-0.87h3.169c-0.371,0.957-1.436,1.381-3.188,1.279
		h-4.707c-0.816,0-1.256,0.341-1.304,1.023l-0.39,2.197c-0.212,0.821-0.004,1.195,0.623,1.127h1.583l0.579-3.275h2.197l-0.577,3.275
		h4.143l-0.089,0.509h-4.143l-0.713,4.042c-0.177,1.396-0.877,2.061-2.092,1.994c-1.045-0.069-1.824-0.564-2.344-1.485
		c0.379,0.171,0.807,0.257,1.283,0.257C111.098,61.953,111.418,61.68,111.488,61.101z M115.104,58.289h2.146
		c0.33,2.386,0.74,3.732,1.232,4.039c-1.588,0.1-2.502-0.139-2.738-0.717C115.476,60.997,115.262,59.89,115.104,58.289z"/>
	<path fill="#1D120F" d="M123.7,56.365h-2.146l0.441-2.506h2.147l-0.135,0.767c0.187-0.478,0.637-0.715,1.355-0.715h0.714
		l0.161-0.921h-5.011l0.092-0.511h5.012l0.224-1.279h2.147l-0.225,1.279h4.703l-0.092,0.511h-4.701l-0.161,0.921h1.688
		c1.583-0.103,2.214,0.272,1.894,1.124l-0.035,0.204c-0.008,0.817-0.686,1.178-2.028,1.075H127.8l-0.152,0.869h2.25
		c1.408-0.067,1.983,0.341,1.726,1.227l-0.097,0.563h0.817l-0.101,0.562h-0.817l-0.099,0.563c-0.096,0.92-0.801,1.346-2.12,1.278
		h-2.298c-0.232,1.498-1.023,2.216-2.375,2.147c-1.668,0-2.82-0.531-3.451-1.587c0.897,0.307,1.746,0.429,2.543,0.357
		c0.646,0,1.025-0.306,1.133-0.918h-4.396l0.089-0.512h4.398l0.232-1.33h-5.213l0.098-0.562h5.217l0.225-1.277h-4.399l0.093-0.513
		h4.396l0.155-0.869h-0.769c-0.654,0.036-1.016-0.154-1.078-0.563L123.7,56.365z M123.979,54.781l-0.108,0.611
		c0.029,0.239,0.352,0.342,0.969,0.309h0.922l0.215-1.229h-0.969C124.495,54.472,124.151,54.574,123.979,54.781z M128.378,54.472
		h-0.252l-0.219,1.229h0.41c0.766,0.101,1.174-0.087,1.225-0.564C129.692,54.66,129.305,54.438,128.378,54.472z M128.579,57.695
		h-1.023l-0.223,1.277h2.097l0.097-0.563C129.65,57.898,129.333,57.659,128.579,57.695z M129.239,60.046l0.089-0.512h-2.096
		l-0.234,1.33h0.923C128.729,60.898,129.171,60.625,129.239,60.046z"/>
	<path fill-rule="evenodd" clip-rule="evenodd" fill="#FFFFFF" d="M78.675,48.205h3.751c0,0-2.23,10.361-2.801,12.375
		c0,0,0.082,0.437,0.41,0.437l10.442,0.081c0,0-0.164,2.23-1.795,2.391L76.064,63c0,0-0.491-0.109-0.327-0.867L78.675,48.205z"/>
	<path fill-rule="evenodd" clip-rule="evenodd" fill="#FFFFFF" d="M97.387,51.033c0,0-0.815,8.431-3.208,7.127
		c0,0-1.144,0.599,1.197-7.183h-2.559c0,0-1.904,9.74-3.482,6.803c0,0,0.38-3.102,1.524-6.803H88.52l-0.271,0.274
		c0,0-2.532-1.469-4.733,0.897c0,0-4.242,6.528,0.569,7.753c0,0,1.388,0.569,2.775-1.552c0,0,1.007,3.672,4.488,0.027
		c0,0,1.523,3.482,4.245,0.708l-0.274,1.251c0,0-5.385,1.741-4.459,5.491c0,0,1.578,2.992,5.113,0.709c0,0,1.523-1.688,1.849-4.078
		l2.448-11.426H97.387z M86.802,55.521c-0.645,1.715-1.675,2.914-2.301,2.679c-0.629-0.237-0.613-1.819,0.032-3.532
		c0.646-1.715,1.676-2.917,2.304-2.678C87.463,52.224,87.447,53.806,86.802,55.521z M94.774,64.633l0.023-0.104
		c-0.036,0.117-0.079,0.257-0.13,0.43c-0.546,1.796-1.796,0.926-1.796,0.926c-0.871-1.74,2.504-4.08,2.504-4.08l-0.578,2.725
		C95.132,63.433,94.774,64.633,94.774,64.633z"/>
	<path fill-rule="evenodd" clip-rule="evenodd" fill="#FFFFFF" d="M101.14,49.129h2.123c0,0-0.76,1.958-2.339,2.015
		c0,0-0.544,0.054-0.056-0.708C100.868,50.436,101.522,49.509,101.14,49.129z"/>
	<path fill="#FFFFFF" d="M104.757,52.23c0,0,1.224,1.141,2.15-0.11c0,0,0.38-0.517-0.517-0.977c0,0-2.721-1.061-4.598,0.161
		c0,0-2.205,1.414-0.952,3.508c0,0,3.619,2.993,2.557,3.811c0,0-0.544,0.815-1.932-0.139c0,0-1.222-0.898-2.203,0.355
		c0,0-0.274,0.681,0.382,1.033c0,0,3.127,1.225,4.977-0.381c0,0,2.093-1.414,0.953-3.426c0,0-3.838-2.584-2.395-3.564
		C103.181,52.502,104.08,51.821,104.757,52.23z"/>
	<path fill="#FFFFFF" d="M108.168,57.915h2.148c-0.828,1.806-1.43,2.898-1.801,3.272c-0.452,0.611-1.45,0.869-2.999,0.766
		C106.095,61.577,106.978,60.233,108.168,57.915z M111.16,60.676l0.705-3.988h-2.761c-1.302,0.033-1.841-0.409-1.606-1.33
		l0.439-2.505c0.08-1.024,0.846-1.498,2.298-1.433h4.142c0.852,0,1.449-0.287,1.79-0.869h3.173
		c-0.374,0.956-1.439,1.382-3.191,1.278h-4.705c-0.821,0-1.254,0.342-1.306,1.024l-0.39,2.199c-0.213,0.819-0.003,1.194,0.621,1.125
		h1.585l0.576-3.271h2.198l-0.576,3.271h4.143l-0.089,0.512h-4.142l-0.714,4.039c-0.177,1.396-0.874,2.062-2.089,1.993
		c-1.045-0.067-1.828-0.562-2.346-1.483c0.377,0.17,0.806,0.257,1.281,0.257C110.772,61.525,111.094,61.256,111.16,60.676z
		 M114.777,57.862h2.147c0.326,2.388,0.737,3.733,1.229,4.04c-1.586,0.103-2.498-0.136-2.734-0.715
		C115.148,60.572,114.936,59.467,114.777,57.862z"/>
	<path fill="#FFFFFF" d="M123.374,55.939h-2.148l0.441-2.505h2.148l-0.133,0.768c0.185-0.477,0.637-0.715,1.353-0.715h0.716
		l0.16-0.922h-5.012l0.092-0.511h5.01l0.227-1.279h2.148l-0.226,1.279h4.705l-0.092,0.511h-4.704l-0.161,0.922h1.688
		c1.585-0.104,2.218,0.272,1.896,1.123l-0.035,0.206c-0.01,0.818-0.685,1.176-2.029,1.074h-1.943l-0.153,0.869h2.252
		c1.409-0.067,1.983,0.341,1.726,1.227l-0.101,0.563h0.819l-0.101,0.561h-0.815L131,59.673c-0.094,0.921-0.799,1.345-2.118,1.278
		h-2.303c-0.229,1.5-1.02,2.215-2.368,2.147c-1.671,0-2.825-0.528-3.456-1.587c0.898,0.309,1.746,0.428,2.546,0.357
		c0.646,0,1.023-0.307,1.134-0.918h-4.399l0.093-0.513h4.398l0.232-1.33h-5.214l0.095-0.561h5.219l0.224-1.278h-4.397l0.092-0.512
		h4.396l0.154-0.869h-0.766c-0.658,0.035-1.015-0.152-1.08-0.563L123.374,55.939z M123.655,54.355l-0.108,0.612
		c0.024,0.241,0.349,0.341,0.968,0.306h0.918l0.217-1.227h-0.97C124.169,54.046,123.825,54.148,123.655,54.355z M128.055,54.046
		H127.8l-0.218,1.227h0.407c0.768,0.103,1.176-0.083,1.225-0.56C129.368,54.237,128.979,54.014,128.055,54.046z M128.255,57.27
		h-1.025l-0.225,1.278h2.097l0.1-0.563C129.324,57.473,129.008,57.235,128.255,57.27z M128.91,59.621l0.093-0.512h-2.096
		l-0.235,1.33h0.921C128.403,60.474,128.843,60.201,128.91,59.621z"/>
</g>
</svg>
