<?xml version="1.0" encoding="utf-8"?>
<!-- Generator: Adobe Illustrator 16.2.0, SVG Export Plug-In . SVG Version: 6.00 Build 0)  -->
<!DOCTYPE svg PUBLIC "-//W3C//DTD SVG 1.1//EN" "http://www.w3.org/Graphics/SVG/1.1/DTD/svg11.dtd">
<svg version="1.1" id="图层_1" xmlns="http://www.w3.org/2000/svg" xmlns:xlink="http://www.w3.org/1999/xlink" x="0px" y="0px"
	 width="290px" height="46px" viewBox="0 0 290 46" enable-background="new 0 0 290 46" xml:space="preserve">
<linearGradient id="SVGID_1_" gradientUnits="userSpaceOnUse" x1="-46.4839" y1="46.0762" x2="-22.3089" y2="46.0762" gradientTransform="matrix(4.136505e-005 -1 1 -0.001 0.5 -0.5001)">
	<stop  offset="0" style="stop-color:#029178"/>
	<stop  offset="1" style="stop-color:#03DFBA"/>
</linearGradient>
<path fill-rule="evenodd" clip-rule="evenodd" fill="url(#SVGID_1_)" d="M47,11.25C46.3,3.983,42.133,0.233,34.5,0h10.8
	c8.9,0,13.35,4.45,13.35,13.35V46h-11.6V13.35C47.05,12.617,47.033,11.917,47,11.25z"/>
<linearGradient id="SVGID_2_" gradientUnits="userSpaceOnUse" x1="-47.1001" y1="-12.9248" x2="-17.0001" y2="-12.9248" gradientTransform="matrix(-1 0 0 -1 0 -1)">
	<stop  offset="0" style="stop-color:#029178"/>
	<stop  offset="1" style="stop-color:#03DFBA"/>
</linearGradient>
<path fill-rule="evenodd" clip-rule="evenodd" fill="url(#SVGID_2_)" d="M34.5,0C42.133,0.233,46.3,3.983,47,11.25
	c-0.533-0.067-1.1-0.1-1.7-0.1H35v11.3H23.45v-11.3h-10.1c-0.7,0-1.367,0.033-2,0.1C3.983,11.85,0.2,16.05,0,23.85v-10.5
	C0,4.45,4.45,0,13.35,0H34.5z"/>
<linearGradient id="SVGID_3_" gradientUnits="userSpaceOnUse" x1="11.4131" y1="-12.5215" x2="35.4631" y2="-12.5215" gradientTransform="matrix(4.158005e-005 1 -1 -0.001 -0.499 -0.5007)">
	<stop  offset="0" style="stop-color:#029178"/>
	<stop  offset="1" style="stop-color:#03DFBA"/>
</linearGradient>
<path fill-rule="evenodd" clip-rule="evenodd" fill="url(#SVGID_3_)" d="M11.45,34.4c0.3,4.267,1.783,7.366,4.45,9.3
	c2.033,1.434,4.75,2.2,8.15,2.3h-10.7c-3.7,0-6.633-0.767-8.8-2.3C1.65,41.634,0.133,38.184,0,33.35v-9.5
	c0.2-7.8,3.983-12,11.35-12.6v22.1C11.35,33.717,11.383,34.066,11.45,34.4z"/>
<linearGradient id="SVGID_4_" gradientUnits="userSpaceOnUse" x1="11.375" y1="40.2002" x2="26.425" y2="40.2002">
	<stop  offset="0" style="stop-color:#029178"/>
	<stop  offset="1" style="stop-color:#03DFBA"/>
</linearGradient>
<path fill-rule="evenodd" clip-rule="evenodd" fill="url(#SVGID_4_)" d="M24.05,46c-3.4-0.1-6.117-0.866-8.15-2.3
	c-2.667-1.934-4.15-5.033-4.45-9.3H35V46H24.05z"/>
<path fill-rule="evenodd" clip-rule="evenodd" fill="#00DFB9" d="M280.25,9.85v2.95h-6.1v4.15h5.3v3.85l-5.15,5.851l6.45,7.25h-6.9
	L271,30.6l-2.95,3.301h-6.8l6.3-7.25l-4.8-5.4h6.7l1.5,1.6l2.399-2.949H262.9v-2.95h5.399V12.8h-5.95V9.85h5.95v-3.8h5.851v3.8
	H280.25z M260.1,10.4h1.65v3.05h-1.65v4.7L261.9,17.1v3.5L260.1,21.7v12.2h-6.75l-1.3-3h2.3V25.1l-2.3,1.351V22.85l2.3-1.35v-8.05
	h-2.3V10.4h2.3V6.05h5.75V10.4z M244,26.95l-1.7,0.2v6.8h-5.6V28.1l-7.8,1.25v-3l7.8-1.25V6.25h5.6v17.9l1.7-0.25V26.95z
	 M224.65,10.55v3.5h3.8V17h-3.8v16.95H219.6V17h-3.8v-2.95h3.8v-3.5h-3.449v-2.9h5.899l0.5-1.4h6.3l-1.449,4.3H224.65z M228.95,15.9
	h5.5l1.75,8H230.6L228.95,15.9z M227.95,18.4l0.649,13.75H225.9L225.3,18.4H227.95z M236.15,14.45h-5.65l-1.55-7.25h5.6
	L236.15,14.45z M204.4,17.2l-7.7,4.8h10.75v3H196.6v8.95H186.9l-1.5-3.05h4.899V25H179.4v-3H190.3v-1.8l4.7-2.851h-13.45V15.15
	h-1.899v-6.5h10.5l-0.75-2.5h6.6l0.7,2.5H207.1v6.7H204.4V17.2z M218.9,18.4L218.35,32.1h-2.699L216.35,18.4H218.9z M201.2,11.6
	h-15.7v2.8h15.7V11.6z M165,10.85h6.35v3.1h-0.6L166.9,24.6l4.75,9.351h-5.2l-1.8-3.4l-1.25,3.4h-11.5l-0.95-0.65l-1.05,0.65H142.3
	l5.15-3.3l-3.05-2.25V25.6h-1.3V22.65h1.3V21.5h-1.7l1.1-6h3.75l-1.05,5.4h1.4v-6.4h-4.8v-2.9h4.8V6.2h5.5v5.4h4.899v2.9H153.4v6.95
	h-4.351v1.2h9.4v5.75L154.5,31l3.75,2.75l3.35-9.1l-3.5-7.101h5.25l0.5,1.101l1.7-4.7H163.9l-0.95,2.55h-5.15l3.65-10.3h5.2
	L165,10.85z M154,10.7l0.7-3.8h3.6l-0.7,3.8H154z M143,6.9h3.65l0.8,3.8h-3.7L143,6.9z M155.15,21.5l-1.4-6h3.6l1.4,6H155.15z
	 M128.15,24.25V19.9h-4.8v4.35H128.15z M127.25,9.55H114v2.95h13.25V9.55z M133.3,15.45h-25.25v-8.9h25.25V15.45z M133.95,33.9
	H107.4V16.95h26.55V27.2h-20.7v3.649h21.95L133.95,33.9z M153.25,25.6h-4.2V26.9l1.95,1.5l2.25-1.5V25.6z M113.25,19.9v4.35h4.85
	V19.9H113.25z M92.45,9.5h-3.5v1.75h3.5V9.5z M83.6,18.85V6.6h14v16.35h-6.9L89.35,20.1h3.1v-1.85h-3.5v1.3L87.5,23h-5.65l0.3-0.65
	H71V6.6h11.2v15.6L83.6,18.85z M88.95,15.55h3.5v-1.7h-3.5V15.55z M98.15,33.95h-27.4v-2.9h1.45V23.8h24.4v7.25h1.55V33.95z
	 M91.55,26.75h-1.6v4.3h1.6V26.75z M83.6,26.75v4.3h1.7v-4.3H83.6z M75.6,9.55v3.35h2.05V9.55H75.6z M75.6,19.3h2.05v-3.6H75.6V19.3
	z M77.25,31.05h1.7v-4.3h-1.7V31.05z"/>
<path fill="#00DFB9" d="M71.21,44.15v-4.438h0.884l1.05,3.142c0.097,0.293,0.167,0.512,0.212,0.657
	c0.05-0.162,0.129-0.398,0.236-0.711l1.063-3.088h0.79v4.438h-0.566v-3.715l-1.29,3.715h-0.53l-1.284-3.778v3.778H71.21z"/>
<path fill="#00DFB9" d="M80.658,44.15v-4.438h3.209v0.523h-2.622v1.359h2.455v0.521h-2.455v1.511h2.725v0.523H80.658z"/>
<path fill="#00DFB9" d="M89.028,44.15v-4.438h0.603l2.331,3.484v-3.484h0.563v4.438h-0.603l-2.331-3.487v3.487H89.028z"/>
<path fill="#00DFB9" d="M99.842,42.41v-0.521l1.88-0.003v1.647c-0.289,0.229-0.586,0.402-0.893,0.519s-0.622,0.175-0.944,0.175
	c-0.436,0-0.832-0.094-1.188-0.28c-0.356-0.187-0.625-0.457-0.807-0.81c-0.182-0.354-0.272-0.748-0.272-1.184
	c0-0.433,0.09-0.836,0.271-1.21s0.44-0.652,0.779-0.834c0.339-0.182,0.729-0.272,1.172-0.272c0.321,0,0.611,0.052,0.87,0.156
	c0.259,0.104,0.463,0.248,0.61,0.434c0.147,0.186,0.259,0.428,0.336,0.727l-0.53,0.146c-0.067-0.226-0.149-0.403-0.249-0.532
	c-0.099-0.129-0.24-0.232-0.424-0.311s-0.387-0.117-0.611-0.117c-0.269,0-0.5,0.041-0.696,0.123s-0.354,0.189-0.474,0.322
	c-0.12,0.133-0.213,0.279-0.28,0.439c-0.113,0.274-0.169,0.572-0.169,0.893c0,0.396,0.068,0.727,0.204,0.993
	s0.334,0.464,0.595,0.593c0.26,0.13,0.537,0.194,0.829,0.194c0.254,0,0.503-0.049,0.745-0.147c0.242-0.098,0.426-0.201,0.551-0.313
	V42.41H99.842z"/>
<path fill="#00DFB9" d="M113.955,44.15v-1.88l-1.71-2.558h0.714l0.875,1.338c0.162,0.25,0.312,0.5,0.451,0.75
	c0.133-0.231,0.294-0.493,0.484-0.783l0.86-1.305h0.684l-1.771,2.558v1.88H113.955z"/>
<path fill="#00DFB9" d="M121.193,44.15v-4.438h0.587v4.438H121.193z"/>
<path fill="#00DFB9" d="M133.045,44.15v-4.438h1.529c0.345,0,0.608,0.021,0.79,0.063c0.254,0.059,0.471,0.165,0.651,0.318
	c0.234,0.197,0.409,0.451,0.525,0.758c0.116,0.309,0.174,0.66,0.174,1.056c0,0.337-0.04,0.636-0.118,0.896
	c-0.079,0.261-0.18,0.477-0.303,0.646c-0.123,0.171-0.258,0.305-0.404,0.402c-0.146,0.099-0.323,0.173-0.529,0.223
	c-0.207,0.051-0.445,0.076-0.713,0.076H133.045z M133.632,43.627h0.948c0.292,0,0.522-0.027,0.689-0.082
	c0.166-0.055,0.299-0.131,0.398-0.23c0.139-0.139,0.248-0.326,0.325-0.561c0.078-0.236,0.117-0.521,0.117-0.855
	c0-0.465-0.076-0.821-0.229-1.07c-0.152-0.25-0.337-0.416-0.556-0.502c-0.157-0.061-0.411-0.09-0.76-0.09h-0.933V43.627z"/>
<path fill="#00DFB9" d="M141.875,44.15v-4.438h0.587v4.438H141.875z"/>
<path fill="#00DFB9" d="M149.828,42.41v-0.521l1.881-0.003v1.647c-0.289,0.229-0.588,0.402-0.895,0.519s-0.621,0.175-0.943,0.175
	c-0.438,0-0.832-0.094-1.189-0.28c-0.355-0.187-0.625-0.457-0.807-0.81c-0.182-0.354-0.271-0.748-0.271-1.184
	c0-0.433,0.09-0.836,0.271-1.21s0.44-0.652,0.779-0.834s0.729-0.272,1.171-0.272c0.322,0,0.611,0.052,0.871,0.156
	c0.26,0.104,0.463,0.248,0.609,0.434c0.148,0.186,0.26,0.428,0.336,0.727l-0.529,0.146c-0.066-0.226-0.148-0.403-0.248-0.532
	s-0.24-0.232-0.424-0.311s-0.387-0.117-0.611-0.117c-0.268,0-0.5,0.041-0.696,0.123s-0.354,0.189-0.474,0.322
	c-0.12,0.133-0.214,0.279-0.28,0.439c-0.113,0.274-0.169,0.572-0.169,0.893c0,0.396,0.067,0.727,0.203,0.993
	c0.137,0.267,0.335,0.464,0.596,0.593c0.26,0.13,0.537,0.194,0.83,0.194c0.254,0,0.502-0.049,0.744-0.147
	c0.242-0.098,0.426-0.201,0.551-0.313V42.41H149.828z"/>
<path fill="#00DFB9" d="M156.927,44.15v-4.438h0.588v4.438H156.927z"/>
<path fill="#00DFB9" d="M163.932,44.15v-3.914h-1.462v-0.523h3.518v0.523h-1.468v3.914H163.932z"/>
<path fill="#00DFB9" d="M169.896,44.15l1.704-4.438h0.633l1.816,4.438h-0.669l-0.518-1.344h-1.856l-0.487,1.344H169.896z
	 M171.176,42.328h1.505l-0.464-1.229c-0.141-0.373-0.246-0.68-0.314-0.92c-0.057,0.284-0.137,0.567-0.239,0.848L171.176,42.328z"/>
<path fill="#00DFB9" d="M178.747,44.15v-4.438h0.587v3.914h2.187v0.523H178.747z"/>
<path fill="#00DFB9" d="M193.235,44.15v-3.914h-1.462v-0.523h3.518v0.523h-1.468v3.914H193.235z"/>
<path fill="#00DFB9" d="M200.159,44.15v-4.438h3.209v0.523h-2.621v1.359h2.455v0.521h-2.455v1.511h2.725v0.523H200.159z"/>
<path fill="#00DFB9" d="M211.702,42.594l0.588,0.148c-0.123,0.482-0.345,0.851-0.665,1.104c-0.319,0.254-0.711,0.381-1.173,0.381
	c-0.479,0-0.867-0.098-1.167-0.293c-0.3-0.194-0.527-0.477-0.685-0.846c-0.156-0.369-0.234-0.766-0.234-1.189
	c0-0.463,0.089-0.865,0.265-1.21c0.177-0.344,0.429-0.605,0.754-0.784c0.326-0.178,0.685-0.268,1.076-0.268
	c0.444,0,0.817,0.113,1.12,0.339s0.514,0.544,0.633,0.954l-0.578,0.136c-0.103-0.323-0.252-0.558-0.448-0.705
	c-0.195-0.147-0.441-0.222-0.738-0.222c-0.341,0-0.626,0.082-0.855,0.246c-0.229,0.163-0.39,0.383-0.482,0.658
	s-0.14,0.56-0.14,0.852c0,0.378,0.055,0.707,0.165,0.988c0.11,0.282,0.281,0.492,0.514,0.632c0.231,0.14,0.483,0.209,0.753,0.209
	c0.329,0,0.608-0.095,0.836-0.284C211.468,43.25,211.622,42.968,211.702,42.594z"/>
<path fill="#00DFB9" d="M217.284,44.15v-4.438h0.588v1.822h2.307v-1.822h0.587v4.438h-0.587v-2.092h-2.307v2.092H217.284z"/>
<path fill="#00DFB9" d="M225.991,44.15v-4.438h0.602l2.332,3.484v-3.484h0.563v4.438h-0.603l-2.331-3.487v3.487H225.991z"/>
<path fill="#00DFB9" d="M234.549,41.988c0-0.736,0.197-1.313,0.593-1.729c0.396-0.417,0.906-0.625,1.532-0.625
	c0.41,0,0.779,0.098,1.108,0.294c0.329,0.195,0.579,0.469,0.752,0.818s0.259,0.748,0.259,1.191c0,0.45-0.091,0.853-0.272,1.208
	c-0.182,0.354-0.438,0.624-0.771,0.807s-0.692,0.274-1.078,0.274c-0.418,0-0.791-0.102-1.12-0.303
	c-0.329-0.202-0.578-0.478-0.748-0.827C234.634,42.748,234.549,42.379,234.549,41.988z M235.154,41.998
	c0,0.535,0.144,0.956,0.432,1.264c0.287,0.309,0.648,0.462,1.082,0.462c0.442,0,0.806-0.155,1.091-0.466
	c0.286-0.311,0.429-0.752,0.429-1.323c0-0.361-0.061-0.677-0.183-0.946c-0.123-0.27-0.301-0.479-0.536-0.627
	s-0.499-0.223-0.792-0.223c-0.416,0-0.773,0.143-1.073,0.429S235.154,41.33,235.154,41.998z"/>
<path fill="#00DFB9" d="M243.779,44.15v-4.438h0.587v3.914h2.187v0.523H243.779z"/>
<path fill="#00DFB9" d="M251.326,41.988c0-0.736,0.197-1.313,0.593-1.729c0.396-0.417,0.906-0.625,1.532-0.625
	c0.41,0,0.779,0.098,1.108,0.294c0.329,0.195,0.579,0.469,0.752,0.818s0.259,0.748,0.259,1.191c0,0.45-0.091,0.853-0.272,1.208
	c-0.182,0.354-0.438,0.624-0.771,0.807s-0.692,0.274-1.078,0.274c-0.418,0-0.791-0.102-1.12-0.303
	c-0.329-0.202-0.578-0.478-0.748-0.827C251.411,42.748,251.326,42.379,251.326,41.988z M251.932,41.998
	c0,0.535,0.144,0.956,0.432,1.264c0.287,0.309,0.648,0.462,1.082,0.462c0.442,0,0.806-0.155,1.091-0.466
	c0.286-0.311,0.429-0.752,0.429-1.323c0-0.361-0.061-0.677-0.183-0.946c-0.123-0.27-0.301-0.479-0.536-0.627
	s-0.499-0.223-0.792-0.223c-0.416,0-0.773,0.143-1.073,0.429S251.932,41.33,251.932,41.998z"/>
<path fill="#00DFB9" d="M262.656,42.41v-0.521l1.881-0.003v1.647c-0.289,0.229-0.587,0.402-0.894,0.519s-0.622,0.175-0.944,0.175
	c-0.437,0-0.832-0.094-1.188-0.28s-0.625-0.457-0.807-0.81c-0.182-0.354-0.272-0.748-0.272-1.184c0-0.433,0.09-0.836,0.271-1.21
	s0.44-0.652,0.78-0.834c0.339-0.182,0.729-0.272,1.171-0.272c0.321,0,0.611,0.052,0.871,0.156c0.259,0.104,0.462,0.248,0.609,0.434
	s0.26,0.428,0.336,0.727l-0.529,0.146c-0.066-0.226-0.149-0.403-0.248-0.532c-0.1-0.129-0.24-0.232-0.424-0.311
	s-0.388-0.117-0.612-0.117c-0.268,0-0.5,0.041-0.696,0.123c-0.195,0.082-0.354,0.189-0.474,0.322s-0.213,0.279-0.279,0.439
	c-0.113,0.274-0.17,0.572-0.17,0.893c0,0.396,0.068,0.727,0.204,0.993c0.137,0.267,0.335,0.464,0.595,0.593
	c0.261,0.13,0.537,0.194,0.83,0.194c0.254,0,0.502-0.049,0.744-0.147c0.242-0.098,0.426-0.201,0.551-0.313V42.41H262.656z"/>
<path fill="#00DFB9" d="M270.906,44.15v-1.88l-1.71-2.558h0.714l0.875,1.338c0.161,0.25,0.312,0.5,0.451,0.75
	c0.133-0.231,0.295-0.493,0.484-0.783l0.859-1.305h0.685l-1.771,2.558v1.88H270.906z"/>
<path fill="#00DFB9" d="M278.021,44.15v-4.438h0.587v3.914h2.187v0.523H278.021z"/>
</svg>
