<?xml version="1.0" encoding="utf-8"?>
<!-- Generator: Adobe Illustrator 16.2.0, SVG Export Plug-In . SVG Version: 6.00 Build 0)  -->
<!DOCTYPE svg PUBLIC "-//W3C//DTD SVG 1.1//EN" "http://www.w3.org/Graphics/SVG/1.1/DTD/svg11.dtd">
<svg version="1.1" id="图层_1" xmlns="http://www.w3.org/2000/svg" xmlns:xlink="http://www.w3.org/1999/xlink" x="0px" y="0px"
	 width="210px" height="59px" viewBox="0 0 210 59" enable-background="new 0 0 210 59" xml:space="preserve">
<linearGradient id="SVGID_1_" gradientUnits="userSpaceOnUse" x1="-1137.8403" y1="1228.9922" x2="-1119.761" y2="1228.9922" gradientTransform="matrix(4.136505e-005 -1 -1 0.001 1263.8698 -1092.416)">
	<stop  offset="0" style="stop-color:#029178"/>
	<stop  offset="1" style="stop-color:#03DFBA"/>
</linearGradient>
<path fill="url(#SVGID_1_)" d="M35.15,20.713c-0.524-5.436-3.641-8.24-9.349-8.414h8.077c6.657,0,9.984,3.328,9.984,9.984V46.7
	h-8.675V22.283C35.188,21.734,35.175,21.21,35.15,20.713z"/>
<linearGradient id="SVGID_2_" gradientUnits="userSpaceOnUse" x1="-926.8853" y1="1869.6777" x2="-904.374" y2="1869.6777" gradientTransform="matrix(-1 0 0 1 -891.6602 -1848.46)">
	<stop  offset="0" style="stop-color:#029178"/>
	<stop  offset="1" style="stop-color:#03DFBA"/>
</linearGradient>
<path fill="url(#SVGID_2_)" d="M25.802,12.299c5.708,0.174,8.825,2.979,9.349,8.414c-0.399-0.05-0.823-0.076-1.272-0.076h-7.703
	v8.452h-8.637v-8.452H9.984c-0.524,0-1.022,0.025-1.496,0.076C2.979,21.161,0.149,24.302,0,30.136v-7.853
	c0-6.656,3.328-9.984,9.984-9.984H25.802z"/>
<linearGradient id="SVGID_3_" gradientUnits="userSpaceOnUse" x1="-286.7715" y1="1658.1357" x2="-268.7857" y2="1658.1357" gradientTransform="matrix(4.158005e-005 1 1 0.001 -1649.1301 305.583)">
	<stop  offset="0" style="stop-color:#029178"/>
	<stop  offset="1" style="stop-color:#03DFBA"/>
</linearGradient>
<path fill="url(#SVGID_3_)" d="M8.563,38.025c0.224,3.192,1.333,5.51,3.328,6.956c1.521,1.072,3.553,1.645,6.095,1.719H9.984
	c-2.767,0-4.961-0.574-6.581-1.719C1.234,43.436,0.1,40.855,0,37.241v-7.105c0.149-5.834,2.979-8.975,8.488-9.423v16.528
	C8.488,37.515,8.513,37.775,8.563,38.025z"/>
<linearGradient id="SVGID_4_" gradientUnits="userSpaceOnUse" x1="-497.8325" y1="1022.1758" x2="-486.5773" y2="1022.1758" gradientTransform="matrix(1 0 0 -1 506.3398 1064.5391)">
	<stop  offset="0" style="stop-color:#029178"/>
	<stop  offset="1" style="stop-color:#03DFBA"/>
</linearGradient>
<path fill="url(#SVGID_4_)" d="M17.986,46.7c-2.542-0.074-4.574-0.646-6.095-1.719c-1.995-1.446-3.104-3.764-3.328-6.956h17.612
	V46.7H17.986z"/>
<path fill="#00DFB9" d="M209.598,17.669v2.376h-4.916v3.345h4.271v3.104l-4.151,4.714L210,37.054h-5.562l-2.295-2.663l-2.379,2.663
	h-5.48l5.078-5.845l-3.869-4.352h5.399l1.209,1.291l1.936-2.378h-8.422v-2.377h4.35v-3.347h-4.794v-2.376h4.794v-3.063h4.717v3.063
	H209.598z M193.356,18.113h1.332v2.458h-1.332v3.787l1.453-0.846v2.819l-1.453,0.888v9.833h-5.438l-1.048-2.419h1.852v-4.676
	l-1.852,1.089v-2.901l1.852-1.088v-6.487h-1.852v-2.458h1.852v-3.507h4.634V18.113z M182.439,31.452l-1.37,0.16v5.481h-4.513v-4.716
	l-6.287,1.007v-2.418l6.287-1.008v-15.19h4.513v14.427l1.37-0.203V31.452z M166.845,18.233v2.821h3.063v2.376h-3.063v13.663h-4.071
	V23.431h-3.062v-2.376h3.062v-2.821h-2.779v-2.338h4.756l0.401-1.127h5.077l-1.168,3.465H166.845z M170.31,22.545h4.434l1.409,6.448
	h-4.513L170.31,22.545z M169.504,24.561l0.523,11.082h-2.175l-0.484-11.082H169.504z M176.113,21.377h-4.555l-1.249-5.844h4.513
	L176.113,21.377z M152.582,23.593l-6.206,3.869h8.663v2.418h-8.743v7.214h-7.817l-1.209-2.459h3.949v-4.755h-8.785v-2.418h8.785
	v-1.451l3.787-2.297h-10.84V21.94h-1.531v-5.239h8.463l-0.604-2.015h5.318l0.564,2.015h8.382v5.399h-2.176V23.593z M162.211,24.561
	l-0.444,11.04h-2.175l0.563-11.04H162.211z M150.003,19.079H137.35v2.257h12.653V19.079z M122.887,18.475h5.116v2.499h-0.483
	l-3.103,8.584l3.828,7.536h-4.192l-1.448-2.741l-1.008,2.741h-9.27l-0.765-0.525l-0.846,0.525h-6.126l4.151-2.661l-2.459-1.813
	v-2.256h-1.047v-2.378h1.047v-0.927h-1.369l0.886-4.835h3.023l-0.847,4.352h1.128v-5.159h-3.868v-2.337h3.868v-4.351h4.432v4.351
	h3.949v2.337h-3.949v5.603h-3.505v0.967h7.575v4.634l-3.182,2.096l3.021,2.218l2.699-7.335l-2.821-5.725h4.23l0.404,0.888
	l1.37-3.788h-1.33l-0.765,2.056h-4.152l2.943-8.301h4.19L122.887,18.475z M114.021,18.354l0.564-3.062h2.899l-0.563,3.062H114.021z
	 M105.154,15.292h2.941l0.646,3.062h-2.982L105.154,15.292z M114.948,27.059l-1.13-4.835h2.901l1.128,4.835H114.948z M95.243,29.273
	v-3.504h-3.869v3.504H95.243z M94.518,17.428H83.84v2.377h10.678V17.428z M99.395,22.183H79.044v-7.173h20.351V22.183z
	 M99.917,37.054H78.52V23.391h21.398v8.262H83.236v2.94h17.689L99.917,37.054z M113.415,30.363h-3.385v1.049l1.571,1.207
	l1.813-1.207V30.363z M83.236,25.769v3.504h3.907v-3.504H83.236z M68.492,17.387h-2.821v1.412h2.821V17.387z M61.358,24.922V15.05
	h11.286v13.177h-5.563l-1.087-2.297h2.499v-1.491h-2.821v1.048l-1.167,2.78h-4.555l0.243-0.524h-8.987V15.05h9.027v12.572
	L61.358,24.922z M65.671,22.263h2.821v-1.37h-2.821V22.263z M73.085,37.094H51.003v-2.339h1.168v-5.843h19.666v5.843h1.249V37.094z
	 M67.766,31.29h-1.288v3.465h1.288V31.29z M61.358,31.29v3.465h1.372V31.29H61.358z M54.912,17.428v2.699h1.652v-2.699H54.912z
	 M54.912,25.286h1.652v-2.901h-1.652V25.286z M56.242,34.755h1.37V31.29h-1.37V34.755z"/>
<path fill="#00DFB9" d="M51.374,45.307v-3.905h0.777l0.925,2.765c0.085,0.259,0.147,0.452,0.187,0.579
	c0.043-0.142,0.114-0.351,0.207-0.629l0.937-2.715H55.1v3.905h-0.498v-3.269l-1.135,3.269h-0.466l-1.131-3.325v3.325H51.374z"/>
<path fill="#00DFB9" d="M58.566,45.307v-3.905h2.824v0.46h-2.307v1.197h2.16v0.458h-2.16v1.33h2.398v0.46H58.566L58.566,45.307z"/>
<path fill="#00DFB9" d="M64.81,45.307v-3.905h0.53l2.053,3.067v-3.067h0.495v3.905h-0.53l-2.052-3.067v3.067H64.81z"/>
<path fill="#00DFB9" d="M73.204,43.776v-0.46l1.654-0.002v1.45c-0.255,0.2-0.517,0.353-0.787,0.456
	c-0.269,0.104-0.546,0.154-0.831,0.154c-0.383,0-0.732-0.083-1.044-0.246c-0.315-0.164-0.55-0.401-0.712-0.712
	c-0.16-0.313-0.239-0.659-0.239-1.043c0-0.383,0.079-0.735,0.239-1.064c0.158-0.331,0.388-0.575,0.686-0.735
	c0.299-0.16,0.642-0.238,1.032-0.238c0.282,0,0.538,0.046,0.765,0.135c0.227,0.093,0.408,0.221,0.538,0.383
	c0.128,0.165,0.229,0.377,0.295,0.64l-0.465,0.128c-0.06-0.197-0.132-0.354-0.221-0.465c-0.087-0.115-0.208-0.206-0.373-0.277
	c-0.161-0.066-0.34-0.101-0.537-0.101c-0.236,0-0.441,0.037-0.614,0.108c-0.172,0.071-0.312,0.166-0.416,0.283
	c-0.106,0.116-0.188,0.245-0.248,0.385c-0.098,0.242-0.146,0.506-0.146,0.789c0,0.347,0.058,0.638,0.177,0.873
	c0.121,0.231,0.294,0.407,0.524,0.522c0.229,0.112,0.474,0.171,0.729,0.171c0.224,0,0.443-0.044,0.656-0.132
	c0.213-0.085,0.375-0.175,0.485-0.274v-0.728H73.204z"/>
<path fill="#00DFB9" d="M84.502,45.307v-1.654l-1.507-2.251h0.63l0.769,1.178c0.144,0.22,0.275,0.439,0.398,0.659
	c0.116-0.202,0.259-0.434,0.427-0.687l0.756-1.15h0.602l-1.558,2.251v1.654H84.502z"/>
<path fill="#00DFB9" d="M89.749,45.307v-3.905h0.518v3.905H89.749z"/>
<path fill="#00DFB9" d="M99.056,45.307v-3.905h1.346c0.304,0,0.535,0.018,0.695,0.055c0.224,0.054,0.415,0.146,0.575,0.278
	c0.204,0.176,0.359,0.399,0.46,0.67c0.104,0.271,0.154,0.581,0.154,0.93c0,0.297-0.036,0.561-0.104,0.788
	c-0.069,0.23-0.159,0.419-0.268,0.567c-0.107,0.152-0.227,0.268-0.355,0.354c-0.128,0.089-0.284,0.152-0.465,0.197
	c-0.182,0.044-0.392,0.066-0.628,0.066H99.056z M99.574,44.847h0.834c0.256,0,0.459-0.024,0.607-0.07
	c0.146-0.049,0.262-0.117,0.349-0.204c0.124-0.124,0.219-0.285,0.287-0.494c0.068-0.206,0.103-0.459,0.103-0.752
	c0-0.41-0.068-0.722-0.202-0.941c-0.132-0.221-0.297-0.366-0.489-0.441c-0.139-0.055-0.363-0.08-0.669-0.08h-0.822v2.983H99.574z"/>
<path fill="#00DFB9" d="M105.705,45.307v-3.905h0.518v3.905H105.705z"/>
<path fill="#00DFB9" d="M111.581,43.776v-0.46l1.656-0.002v1.45c-0.255,0.2-0.518,0.353-0.788,0.456s-0.546,0.154-0.83,0.154
	c-0.386,0-0.733-0.083-1.046-0.246c-0.313-0.164-0.55-0.401-0.711-0.712c-0.16-0.313-0.239-0.659-0.239-1.043
	c0-0.383,0.079-0.735,0.239-1.064c0.161-0.331,0.387-0.575,0.687-0.735c0.296-0.16,0.64-0.238,1.028-0.238
	c0.283,0,0.538,0.046,0.769,0.135c0.229,0.093,0.406,0.221,0.536,0.383c0.13,0.165,0.229,0.377,0.295,0.64l-0.468,0.128
	c-0.055-0.197-0.128-0.354-0.216-0.465c-0.088-0.115-0.212-0.206-0.373-0.277c-0.163-0.066-0.343-0.101-0.539-0.101
	c-0.234,0-0.438,0.037-0.61,0.108c-0.173,0.071-0.313,0.166-0.42,0.283c-0.103,0.116-0.188,0.245-0.244,0.385
	c-0.101,0.242-0.149,0.506-0.149,0.789c0,0.347,0.06,0.638,0.18,0.873c0.12,0.233,0.293,0.407,0.523,0.522
	c0.229,0.112,0.473,0.171,0.729,0.171c0.225,0,0.442-0.044,0.655-0.132c0.213-0.085,0.376-0.175,0.485-0.274v-0.728H111.581z"/>
<path fill="#00DFB9" d="M116.705,45.307v-3.905h0.519v3.905H116.705z"/>
<path fill="#00DFB9" d="M121.747,45.307v-3.445h-1.286v-0.46h3.097v0.46h-1.294v3.445H121.747z"/>
<path fill="#00DFB9" d="M125.873,45.307l1.5-3.905h0.557l1.6,3.905h-0.589l-0.457-1.183h-1.632l-0.429,1.183H125.873z
	 M127.001,43.703h1.325l-0.409-1.082c-0.125-0.326-0.218-0.597-0.277-0.809c-0.05,0.249-0.12,0.499-0.21,0.748L127.001,43.703z"/>
<path fill="#00DFB9" d="M132.539,45.307v-3.905h0.52v3.445h1.924v0.46H132.539L132.539,45.307z"/>
<path fill="#00DFB9" d="M144.167,45.307v-3.445h-1.285v-0.46h3.097v0.46h-1.292v3.445H144.167z"/>
<path fill="#00DFB9" d="M149.14,45.307v-3.905h2.824v0.46h-2.308v1.197h2.16v0.458h-2.16v1.33h2.398v0.46H149.14L149.14,45.307z"/>
<path fill="#00DFB9" d="M158.176,43.938l0.516,0.13c-0.107,0.426-0.302,0.75-0.584,0.972c-0.28,0.225-0.625,0.336-1.032,0.336
	c-0.423,0-0.762-0.086-1.026-0.259c-0.266-0.169-0.465-0.419-0.605-0.744c-0.137-0.323-0.203-0.674-0.203-1.046
	c0-0.408,0.077-0.762,0.232-1.064c0.156-0.304,0.377-0.533,0.663-0.689c0.287-0.158,0.604-0.236,0.946-0.236
	c0.393,0,0.719,0.099,0.986,0.298c0.267,0.2,0.452,0.479,0.557,0.838l-0.509,0.121c-0.091-0.283-0.221-0.491-0.394-0.618
	c-0.172-0.132-0.389-0.199-0.649-0.199c-0.3,0-0.551,0.073-0.753,0.219c-0.202,0.142-0.344,0.334-0.424,0.579
	c-0.081,0.242-0.125,0.492-0.125,0.748c0,0.337,0.05,0.624,0.147,0.871c0.096,0.248,0.246,0.432,0.451,0.557
	c0.203,0.124,0.425,0.185,0.663,0.185c0.291,0,0.536-0.085,0.737-0.252C157.967,44.516,158.104,44.267,158.176,43.938z"/>
<path fill="#00DFB9" d="M161.964,45.307v-3.905h0.519v1.604h2.031v-1.604h0.515v3.905h-0.515v-1.841h-2.031v1.841H161.964z"/>
<path fill="#00DFB9" d="M168.505,45.307v-3.905h0.53l2.051,3.067v-3.067h0.497v3.905h-0.531l-2.051-3.067v3.067H168.505z"/>
<path fill="#00DFB9" d="M174.914,43.405c0-0.647,0.172-1.157,0.521-1.524c0.349-0.365,0.797-0.547,1.347-0.547
	c0.362,0,0.687,0.085,0.976,0.257c0.291,0.173,0.51,0.414,0.664,0.721c0.152,0.308,0.227,0.658,0.227,1.049
	c0,0.396-0.079,0.751-0.239,1.063c-0.159,0.311-0.385,0.549-0.679,0.711c-0.293,0.16-0.608,0.241-0.95,0.241
	c-0.366,0-0.693-0.091-0.984-0.268c-0.289-0.178-0.508-0.42-0.657-0.729C174.988,44.073,174.914,43.749,174.914,43.405z
	 M175.445,43.413c0,0.473,0.128,0.841,0.381,1.112c0.253,0.273,0.571,0.408,0.952,0.408c0.389,0,0.71-0.139,0.96-0.412
	c0.252-0.271,0.377-0.66,0.377-1.163c0-0.317-0.052-0.597-0.158-0.834c-0.109-0.236-0.267-0.421-0.474-0.55
	c-0.206-0.132-0.438-0.199-0.696-0.199c-0.368,0-0.683,0.129-0.945,0.381C175.578,42.407,175.445,42.825,175.445,43.413z"/>
<path fill="#00DFB9" d="M181.914,45.307v-3.905h0.516v3.445h1.926v0.46H181.914L181.914,45.307z"/>
<path fill="#00DFB9" d="M187.433,43.405c0-0.647,0.175-1.157,0.522-1.524c0.348-0.365,0.797-0.547,1.348-0.547
	c0.361,0,0.687,0.085,0.977,0.257c0.288,0.173,0.511,0.414,0.659,0.721c0.154,0.308,0.231,0.658,0.231,1.049
	c0,0.396-0.083,0.751-0.24,1.063c-0.16,0.311-0.388,0.549-0.679,0.711c-0.295,0.16-0.609,0.241-0.949,0.241
	c-0.368,0-0.696-0.091-0.986-0.268c-0.29-0.178-0.51-0.42-0.659-0.729C187.507,44.073,187.433,43.749,187.433,43.405z
	 M187.966,43.413c0,0.473,0.127,0.841,0.38,1.112c0.253,0.273,0.571,0.408,0.952,0.408c0.39,0,0.71-0.139,0.961-0.412
	c0.253-0.271,0.377-0.66,0.377-1.163c0-0.317-0.053-0.597-0.161-0.834c-0.108-0.236-0.264-0.421-0.472-0.55
	c-0.207-0.132-0.438-0.199-0.696-0.199c-0.365,0-0.682,0.129-0.944,0.381C188.1,42.407,187.966,42.825,187.966,43.413z"/>
<path fill="#00DFB9" d="M196.283,43.776v-0.46l1.654-0.002v1.45c-0.256,0.2-0.518,0.353-0.787,0.456
	c-0.271,0.104-0.547,0.154-0.83,0.154c-0.385,0-0.733-0.083-1.047-0.246c-0.313-0.164-0.551-0.401-0.709-0.712
	c-0.161-0.313-0.241-0.659-0.241-1.043c0-0.383,0.08-0.735,0.238-1.064c0.16-0.331,0.388-0.575,0.687-0.735
	c0.3-0.16,0.643-0.238,1.032-0.238c0.281,0,0.539,0.046,0.767,0.135c0.228,0.093,0.405,0.221,0.535,0.383
	c0.129,0.165,0.229,0.377,0.295,0.64l-0.464,0.128c-0.06-0.197-0.133-0.354-0.22-0.465c-0.087-0.115-0.209-0.206-0.372-0.277
	c-0.163-0.066-0.343-0.101-0.538-0.101c-0.237,0-0.441,0.037-0.614,0.108c-0.172,0.071-0.31,0.166-0.417,0.283
	c-0.104,0.116-0.187,0.245-0.245,0.385c-0.1,0.242-0.15,0.506-0.15,0.789c0,0.347,0.06,0.638,0.18,0.873
	c0.121,0.233,0.295,0.407,0.523,0.522c0.229,0.112,0.474,0.171,0.732,0.171c0.224,0,0.441-0.044,0.655-0.132
	c0.21-0.085,0.373-0.175,0.484-0.274v-0.728H196.283z"/>
<path fill="#00DFB9" d="M202.421,45.307v-1.654l-1.504-2.251h0.625l0.771,1.178c0.143,0.22,0.274,0.439,0.397,0.659
	c0.117-0.202,0.26-0.434,0.425-0.687l0.757-1.15h0.603l-1.559,2.251v1.654H202.421z"/>
<path fill="#00DFB9" d="M207.56,45.307v-3.905h0.514v3.445H210v0.46H207.56L207.56,45.307z"/>
</svg>
