<?xml version="1.0" encoding="utf-8"?>
<!-- Generator: Adobe Illustrator 16.2.0, SVG Export Plug-In . SVG Version: 6.00 Build 0)  -->
<!DOCTYPE svg PUBLIC "-//W3C//DTD SVG 1.1//EN" "http://www.w3.org/Graphics/SVG/1.1/DTD/svg11.dtd">
<svg version="1.1" id="图层_1" xmlns="http://www.w3.org/2000/svg" xmlns:xlink="http://www.w3.org/1999/xlink" x="0px" y="0px"
	 width="210px" height="120px" viewBox="0 0 210 120" enable-background="new 0 0 210 120" xml:space="preserve">
<path fill="#221714" d="M88.051,73.783c-1.545-0.963-2.039-2.152-4.366-3.135c-2.353-3.047-3.247-6.852-3.247-10.66
	c0-2.776,0.492-5.553,1.253-8.06l0,0l2.352,4.702c-0.157,1.03-0.201,2.171-0.201,3.357c0,15.542,10.3,18.676,21.158,18.631
	c10.859,0.045,21.159-3.089,21.159-18.631c0-1.59-0.112-3.043-0.313-4.387l1.678-3.473c0.897,2.218,1.367,5.039,1.323,7.883
	c-0.092,4.591-1.59,9.225-5.04,11.42l0,0l-0.537,0.826l-0.605,0.74l-0.625,0.717l-0.673,0.648l-0.714,0.604l-0.74,0.539
	l-0.784,0.515l-0.807,0.449l-0.828,0.403l-0.872,0.379l-0.874,0.311l-0.896,0.294l-0.94,0.271l-0.941,0.219l-0.939,0.183
	l-0.985,0.157l-0.985,0.133l-1.009,0.092l-0.985,0.066l-1.03,0.045l-1.005,0.043h-2.062l-1.007-0.043l-1.03-0.045l-1.008-0.066
	l-0.984-0.092l-0.985-0.133l-0.984-0.157l-0.964-0.183l-0.94-0.219l-0.918-0.271l-0.895-0.294l-0.898-0.311l-0.85-0.379
	l-0.827-0.403l-0.806-0.449l-0.786-0.515l-0.738-0.539l-0.714-0.604L88.051,73.783L88.051,73.783z M81.691,45.817l-0.313-0.315
	c-2.776,3.357-4.523,8.039-4.523,14.486c0,19.594,15.962,22.771,28.144,22.771c12.16,0,28.144-3.178,28.144-22.771
	c0-6.447-1.745-11.129-4.521-14.486l0,0l-0.314,0.315c-0.066,1.699-0.356,3.47-0.604,5.149c1.208,2.617,1.79,5.73,1.857,9.021
	c0.18,9.738-4.746,19.951-24.563,20.621c-12.45-0.111-20.286-3.938-23.488-11.977c-2.105-1.342-3.156-3.807-4.121-6.226l0,0
	l-0.066-0.649l-0.043-1.77l0.043-1.744l0.134-1.682l0.225-1.566l0.314-1.5l0.358-1.389l0.471-1.32l0.514-1.232l0.581-1.164
	l0.651-1.073l0.604-0.853c0.224,1.656,0.515,3.85,1.031,4.276c6.291,5.286,17.396,4.613,22.725,15.271
	c5.801-11.824,16.055-10.344,22.347-15.629l0,0l0.582-5.06c-7.344,7.927-17.33,5.237-22.929,17.13
	C98.91,50.787,89.058,53.652,81.691,45.817L81.691,45.817L81.691,45.817z M86.64,48.659c3.762-5.845,10.927-7.3,18.36-7.276
	c7.299-0.023,14.33,1.365,18.18,7.055l0,0l4.548-3.45l0,0l0.269-0.2c-5.711-6.203-15.135-7.547-22.996-7.547
	c-8.017,0-17.711,1.388-23.352,7.928l0,0l0.089,0.088l0,0l0.156,0.136l0.091,0.065l0,0c1.208,1.188,2.572,2.44,3.94,3.157
	C86.146,48.727,86.394,48.771,86.64,48.659L86.64,48.659L86.64,48.659z M127.324,44.696l-2.061,1.299
	c-6.066-5.352-12.561-6.673-20.264-6.606c-7.792-0.066-14.621,1.321-20.621,7.031l0,0l-2.105-1.275l0.582-0.629l0.873-0.805
	l0.897-0.738l0.963-0.694l0.985-0.626l1.029-0.563l1.074-0.514l1.099-0.47l1.117-0.404l1.142-0.38l1.143-0.313l1.187-0.292
	l1.188-0.246l1.187-0.2l1.209-0.157l1.186-0.134l1.188-0.114l1.187-0.088l1.188-0.045l1.165-0.043H105h1.141l1.166,0.043
	l1.163,0.045l1.188,0.088l1.21,0.114l1.188,0.134l1.208,0.157l1.187,0.2l1.188,0.246l1.164,0.292l1.165,0.313l1.142,0.38
	l1.118,0.404l1.099,0.47l1.052,0.514l1.028,0.563l1.008,0.626l0.941,0.694l0.919,0.738l0.871,0.805L127.324,44.696L127.324,44.696z
	 M104.933,69.619c-2.597-5.6-5.44-8.108-9.784-9.922l0,0L84.29,56.049l-1.502-4.143c2.664,2.035,6.605,3.426,10.368,4.881
	c5.776,2.217,8.934,5.037,11.776,10.791l0,0V69.619L104.933,69.619z M104.933,69.619c2.597-5.6,5.442-8.468,9.786-10.279l0,0
	l10.746-3.83l1.502-4.007c-2.688,2.038-6.897,3.605-10.659,5.038c-5.8,2.217-8.531,5.283-11.375,11.037l0,0V69.619L104.933,69.619z
	 M123.875,52.063l0.674-0.357l0.647-0.381l0.628-0.381l0.604-0.425l0.447-0.36l0.404-3.648l-0.515,0.515l-0.761,0.604l-0.74,0.584
	l-0.76,0.514l-0.784,0.469l-0.763,0.449l-0.783,0.424l-0.782,0.381l-1.569,0.718c-1.297,0.56-2.598,1.075-3.897,1.634l0,0
	l-1.521,0.695l-0.739,0.383l-0.694,0.377c-1.768,1.525-2.663,2.98-3.021,4.546l0.492-0.403l0.738-0.536l0.738-0.515l0.764-0.469
	l0.76-0.428l0.762-0.402l0.783-0.359l0.762-0.335l1.545-0.648c1.5-0.581,3-1.122,4.5-1.726l0,0l0.694-0.291l0.716-0.314
	L123.875,52.063L123.875,52.063z M110.889,55.623l-0.09,0.045l-0.67,0.535l-0.672,0.605l-0.627,0.627l-0.201,0.202
	c-0.605,1.164-0.896,2.239-0.853,3.269l0,0l0.515-0.582l0.695-0.693l0.313-0.27C109.479,58.13,110.016,56.899,110.889,55.623
	L110.889,55.623L110.889,55.623z M95.194,53.764h-0.025l-1.521-0.648c-1.299-0.537-2.599-1.053-3.895-1.567l0,0l-1.568-0.692
	l-0.784-0.383l-0.784-0.381l-0.782-0.447l-0.764-0.47l-0.76-0.516l-0.762-0.538l-0.739-0.604l-0.716-0.67l-0.515-0.519
	c0.111,0.652,0.2,1.279,0.29,1.907l0,0l0.134,0.647l0.113,0.582l0.133,0.471l0.159,0.337l0.109,0.155l0.56,0.428l0.607,0.445
	l0.648,0.404l0.648,0.38l0.695,0.357l0.694,0.358l0.717,0.338l1.498,0.625c1.568,0.629,3.159,1.211,4.727,1.859l0,0l1.592,0.694
	l0.804,0.358l0.784,0.401l0.783,0.428l0.785,0.447l0.4,0.27C97.544,56.697,96.402,55.241,95.194,53.764L95.194,53.764L95.194,53.764
	z"/>
</svg>
