<?xml version="1.0" encoding="utf-8"?>
<!-- Generator: Adobe Illustrator 16.2.0, SVG Export Plug-In . SVG Version: 6.00 Build 0)  -->
<!DOCTYPE svg PUBLIC "-//W3C//DTD SVG 1.1//EN" "http://www.w3.org/Graphics/SVG/1.1/DTD/svg11.dtd">
<svg version="1.1" id="图层_1" xmlns="http://www.w3.org/2000/svg" xmlns:xlink="http://www.w3.org/1999/xlink" x="0px" y="0px"
	 width="210px" height="120px" viewBox="0 0 210 120" enable-background="new 0 0 210 120" xml:space="preserve">
<g>
	<path fill="#E50012" d="M86.287,86.532l-1.402-11.178c-3.641-2.578-6.467-4.712-9.848-7.198c-1.578-11.744,1.35-18.137,5.691-24.19
		c5.393-6.847,14.034-11.961,24.397-11.961c10.374,0.092,19.065,5.311,24.171,12.178c4.794,6.485,7.352,14.652,5.485,24.315
		l-9.322,6.856l-1.392,11.178h-14.808c-0.897,0.743-2.146,1.403-4.135,1.464c-1.929-0.061-3.155-0.721-4.156-1.464H86.287z"/>
	<path fill="#FFF000" d="M105.126,71.045c-0.774-10.416-0.989-23.264-1.64-33.575c-1.125-0.269-2.671-0.186-3.97,0.03
		c-1.319,0.402-2.269,0.743-3.362,1.372c2.021,9.909,4.383,22.5,6.373,32.317c-2.713-9.529-6.373-21.51-9.095-31.018
		c-1.278,0.257-2.547,0.99-3.485,1.743c-0.959,0.773-1.547,1.33-2.434,2.702c3.929,8.384,8.641,19.066,12.59,27.388
		c-4.568-7.58-10.137-17.541-14.725-25.068c-0.896,0.784-1.567,1.351-2.454,2.856c-0.763,1.216-1.134,2.65-1.3,4.042
		c5.022,6.125,11.023,13.488,16.087,19.603c-5.259-5.074-11.766-11.621-16.983-16.716c-0.526,1.031-0.846,1.897-0.99,3.608
		c-0.195,1.65,0.123,3.621,0.464,4.807l10.22,7.578l1.072,8.414l11.238,0.082c0.806,0.949,1.063,1.445,2.394,1.506
		c1.278-0.061,2.021-0.846,2.341-1.506h11.198l1.124-8.435l10.115-7.538c0.402-1.246,0.629-3.145,0.506-4.814
		c-0.166-1.774-0.506-2.671-0.939-3.61c-5.237,5.053-11.754,11.612-16.982,16.684c5.084-6.063,11.033-13.456,16.117-19.633
		c-0.258-1.392-0.588-2.794-1.393-4.011c-0.938-1.505-1.494-2.073-2.361-2.888c-4.629,7.497-10.25,17.551-14.816,25.069
		c4.041-8.354,8.66-19.036,12.641-27.326c-0.865-1.331-1.495-1.991-2.361-2.712c-1.031-0.773-2.299-1.506-3.547-1.794
		c-2.846,9.477-6.332,21.552-9.096,31.018c1.93-9.816,4.321-22.325,6.25-32.193c-0.97-0.69-1.929-1.062-3.197-1.423
		c-1.464-0.288-2.887-0.319-4.011-0.133C105.94,47.864,105.91,60.671,105.126,71.045z"/>
</g>
</svg>
