<?xml version="1.0" encoding="utf-8"?>
<!-- Generator: Adobe Illustrator 16.2.0, SVG Export Plug-In . SVG Version: 6.00 Build 0)  -->
<!DOCTYPE svg PUBLIC "-//W3C//DTD SVG 1.1//EN" "http://www.w3.org/Graphics/SVG/1.1/DTD/svg11.dtd">
<svg version="1.1" id="图层_1" xmlns="http://www.w3.org/2000/svg" xmlns:xlink="http://www.w3.org/1999/xlink" x="0px" y="0px"
	 width="210px" height="120px" viewBox="0 0 210 120" enable-background="new 0 0 210 120" xml:space="preserve">
<g>
	<polygon fill="#004386" points="59.714,58.785 59.714,57.596 55.031,57.596 55.031,53.878 59.714,53.878 59.714,52.7 53.777,52.7 
		53.777,58.785 	"/>
	<polygon fill="#004386" points="52.855,58.779 52.855,57.597 48.469,57.597 48.469,56.345 52.573,56.345 52.573,55.162 
		48.469,55.162 48.469,53.883 52.855,53.883 52.855,52.697 47.211,52.697 47.211,58.779 	"/>
	<polygon fill="#004386" points="43.796,58.78 43.796,53.882 46.292,53.882 46.292,52.698 40.091,52.698 40.091,53.882 
		42.528,53.882 42.528,58.78 	"/>
	<path fill="#004386" d="M56.254,60.131H36.171c-0.792-1.541-1.24-3.286-1.24-5.135c0-6.221,5.06-11.28,11.281-11.28
		c4.927,0,9.125,3.175,10.658,7.586h2.844c-0.63-2.322-1.859-4.453-3.606-6.201c-2.644-2.642-6.158-4.097-9.894-4.097
		c-3.737,0-7.252,1.456-9.895,4.097c-2.642,2.645-4.099,6.158-4.099,9.895c0,2.243,0.526,4.405,1.516,6.347h0.014h3.143h18.641
		c-2.031,2.976-5.451,4.935-9.32,4.935c-3.057,0-5.833-1.222-7.866-3.202h-3.564c0.455,0.64,0.967,1.249,1.535,1.816
		c2.644,2.64,6.158,4.097,9.895,4.097c3.736,0,7.251-1.457,9.894-4.097c1.376-1.378,2.429-2.993,3.125-4.75l0.009-0.01h-0.004
		L56.254,60.131L56.254,60.131z"/>
</g>
<g>
	<g>
		<polygon fill="#004386" points="41.324,78.302 40.443,77.751 40.443,73.715 38.429,73.715 38.429,74.451 39.033,74.451 
			39.033,77.606 38.322,78.979 39.927,78.979 40.226,78.421 41.12,78.979 45.637,78.979 45.944,78.302 		"/>
		<path fill="#004386" d="M40.739,72.51v0.667h1.887l-0.205,0.541h-1.436v4.189l4.669-0.015v-4.175h-1.711l0.225-0.541h1.666V72.51
			h-0.718l0.333-0.647h-1.528l-0.348,0.647h-0.522l-0.34-0.647H41.21l0.339,0.647H40.739z M44.235,77.199h-1.84v-0.516h1.84V77.199z
			 M44.235,76.047h-1.84v-0.516h1.84V76.047z M44.235,74.377v0.519h-1.84v-0.519H44.235z"/>
		<polygon fill="#004386" points="38.539,71.87 39.17,73.555 40.4,73.555 39.753,71.87 		"/>
	</g>
	<g>
		<polygon fill="#004386" points="31.486,71.87 31.858,73.644 33.072,73.644 32.682,71.87 		"/>
		<polygon fill="#004386" points="35.497,75.244 36.142,75.244 36.443,73.759 35.815,73.759 		"/>
		<polygon fill="#004386" points="35.512,75.589 35.869,77.59 36.482,77.59 36.125,75.589 		"/>
		<g>
			<path fill="#004386" d="M31.337,75.545l-0.479-0.533l0.47-0.486v-2.557h-2.329v7.011h1.158v-0.93h1.18V75.545z M30.539,77.364
				h-0.382V75.36h0.382V77.364z M30.539,74.64h-0.382v-1.97h0.382V74.64z"/>
			<path fill="#004386" d="M33.723,78.302l-0.757-0.569v-0.158h0.664l0.218,0.375h1.493V73.75h-0.965l0.23-0.452h1.696v-0.675
				h-0.356l0.236-0.761h-1.064l-0.245,0.761h-0.238l-0.268-0.761H33.25l0.268,0.761h-0.345v0.676h0.403l-0.598,1.277h0.966
				l0.101-0.197h0.196v0.442h-0.8l-0.439,0.989h0.84l0.399-0.884v1.138h-0.726l-0.551,1.282v-3.277h-1.546v0.733h0.339v3.065
				l-0.604,1.111h1.302l0.278-0.513l0.708,0.513h2.649l0.287-0.679L33.723,78.302L33.723,78.302z M34.244,76.2v1.065h-0.458
				L34.244,76.2z"/>
		</g>
	</g>
	<g>
		<polygon fill="#004386" points="54.104,78.996 55.787,78.996 54.208,77.493 55.393,76.177 55.393,75.283 51.294,75.283 
			51.294,76.01 53.916,76.01 53.324,76.648 53.029,76.372 51.361,76.372 52.537,77.513 51.198,78.996 52.814,78.996 53.413,78.334 
					"/>
		<path fill="#004386" d="M50.952,78.996v-7.113h-2.753l-0.001,5.775l-0.321,1.338h1.174l0.29-1.189v-1.223h0.486v1.713h-0.427
			l0.234,0.699H50.952z M49.341,72.592h0.486v1.28h-0.486V72.592z M49.341,75.877V74.58h0.486v1.297H49.341z"/>
		<polygon fill="#004386" points="55.008,74.143 55.008,71.883 51.31,71.883 51.306,74.85 52.624,74.85 52.624,72.583 
			53.668,72.583 53.668,74.846 55.381,74.846 55.639,74.143 		"/>
	</g>
	<g>
		<polygon fill="#004386" points="59.978,71.862 58.44,71.862 57.354,74.976 57.821,74.976 57.821,78.979 59.297,78.979 
			59.297,74.657 59.006,74.657 		"/>
		<polygon fill="#004386" points="65.099,75.012 64.046,71.853 62.539,71.853 63.589,74.994 60.131,74.994 60.131,75.729 
			60.687,75.729 59.584,78.834 59.526,78.979 61.066,78.979 62.211,75.729 63.119,75.729 63.111,78.254 61.901,78.254 
			62.218,78.979 64.586,78.979 64.586,75.012 		"/>
		<polygon fill="#004386" points="61.042,74.659 61.989,71.853 60.485,71.853 59.537,74.659 		"/>
	</g>
</g>
<path fill="#004386" d="M74.878,71.244v-2.563h7.231V49.322h4.998v6.959h9.067v2.538h-9.067v9.861h9.861v2.563L74.878,71.244
	L74.878,71.244z"/>
<path fill="#004386" d="M104.24,54.743l-1.688-5.395h4.425l1.69,5.395H104.24z M104.067,61.005l-1.413-5.469h4.245l1.52,5.469
	H104.067z M107.275,71.144h-4.451l1.192-9.292h4.374L107.275,71.144z M123.652,62.523l-0.051,3.129h1.021v2.312h-1.068l-0.072,3.179
	h-6.862l-1.119-2.288h3.873l0.056-0.891h-10.013l0.319-5.441h-1.047v-2.362h1.195l0.227-4.556h-1.567l2.836-6.257h4.745
	l-0.723,1.566h9.17v2.336h-10.239l-0.646,1.418h10.114l-0.07,5.493h1.188v2.363H123.652z M114.063,62.523l-0.15,3.129h1.242
	l-0.424-2.384h3.603l0.421,2.384h0.701l0.069-3.129H114.063z M114.358,56.999l-0.174,3.162h1.144l-0.4-2.439h3.653l0.426,2.439
	h0.565l0.055-3.162H114.358z"/>
<g>
	<g>
		<polygon fill="#004386" points="167.038,68.943 164.373,67.274 164.373,55.072 158.286,55.072 158.286,57.291 160.109,57.291 
			160.109,66.835 157.967,70.99 162.816,70.99 163.717,69.305 166.431,70.99 180.082,70.99 181,68.943 		"/>
		<path fill="#004386" d="M165.264,51.425v2.021h5.709l-0.614,1.633h-4.341v12.671l14.11-0.052V55.08h-5.173l0.677-1.633h5.036
			v-2.021H178.5l1.007-1.953h-4.618l-1.058,1.953h-1.577l-1.025-1.953h-4.539l1.025,1.953H165.264z M175.837,65.602h-5.562v-1.558
			h5.562V65.602z M175.837,62.126h-5.562v-1.562h5.562V62.126z M175.837,57.079v1.556h-5.562v-1.556H175.837z"/>
		<polygon fill="#004386" points="158.615,49.496 160.526,54.586 164.244,54.586 162.289,49.496 		"/>
	</g>
	<g>
		<polygon fill="#004386" points="137.971,49.496 139.093,54.85 142.762,54.85 141.582,49.496 		"/>
		<polygon fill="#004386" points="150.092,59.7 152.047,59.7 152.957,55.202 151.049,55.202 		"/>
		<polygon fill="#004386" points="150.142,60.736 151.222,66.789 153.068,66.789 151.993,60.736 		"/>
		<g>
			<path fill="#004386" d="M137.509,60.604l-1.438-1.611l1.418-1.473v-7.729h-7.04V70.99h3.496v-2.816h3.563V60.604z
				 M135.106,66.102h-1.161v-6.058h1.161V66.102z M135.106,57.87h-1.161v-5.954h1.161V57.87z"/>
			<path fill="#004386" d="M144.735,68.943l-2.292-1.725v-0.479h2.006l0.66,1.134h4.514V55.18h-2.927l0.704-1.37h5.128v-2.036
				h-1.074l0.711-2.302h-3.223l-0.728,2.302h-0.729l-0.806-2.302h-3.382l0.805,2.302h-1.034v2.036h1.214l-1.803,3.868h2.928
				l0.297-0.598h0.599v1.33h-2.421l-1.322,2.987h2.529l1.214-2.656v3.428h-2.2l-1.661,3.877v-9.903h-4.675v2.222h1.025v9.261
				l-1.824,3.363h3.938l0.839-1.549l2.144,1.549h8.001l0.882-2.047H144.735z M146.305,62.582v3.221h-1.382L146.305,62.582z"/>
		</g>
	</g>
</g>
</svg>
