<?xml version="1.0" encoding="utf-8"?>
<!-- Generator: Adobe Illustrator 16.2.0, SVG Export Plug-In . SVG Version: 6.00 Build 0)  -->
<!DOCTYPE svg PUBLIC "-//W3C//DTD SVG 1.1//EN" "http://www.w3.org/Graphics/SVG/1.1/DTD/svg11.dtd">
<svg version="1.1" id="图层_1" xmlns="http://www.w3.org/2000/svg" xmlns:xlink="http://www.w3.org/1999/xlink" x="0px" y="0px"
	 width="210px" height="120px" viewBox="0 0 210 120" enable-background="new 0 0 210 120" xml:space="preserve">
<g>
	<path fill-rule="evenodd" clip-rule="evenodd" fill="#0F73C7" d="M119.533,59.376c2.05-1.791,4.152-3.531,6.306-5.217
		c2.81,5.06,4.552,10.938,5.218,17.636c1.906-6.569,1.866-13.725-0.111-21.464c0.775-0.566,1.56-1.124,2.353-1.673
		c1.396,3.491,2.097,7.271,2.097,11.341c0,8.111-2.771,15.072-8.308,20.883C126.232,72.727,123.712,65.557,119.533,59.376z
		 M112.909,65.473c3.96,5.477,7.323,11.828,10.096,19.055c-2.118,1.598-4.373,2.868-6.765,3.813
		c-3.53-5.043-7.306-9.871-11.325-14.488C107.479,70.958,110.146,68.166,112.909,65.473z M79.297,72.674
		c-0.07,1.129-0.112,2.282-0.13,3.459C76.126,71.385,74.605,66.009,74.605,60c0-6.6,1.83-12.441,5.498-17.522
		c3.453,0.974,6.732,2.197,9.841,3.672c-2.209,2.294-4.082,4.855-5.613,7.684c-1.517-1.257-3.059-2.49-4.625-3.701
		C77.508,59.323,77.369,66.838,79.297,72.674z M96.268,40.904c-3.382-1.516-7.037-2.873-10.96-4.069l0.013-0.015
		c3.146-1.508,6.322-2.67,9.527-3.487c3.594,0.839,6.922,1.883,9.981,3.134C101.686,37.72,98.828,39.198,96.268,40.904z
		 M105.171,56.583c-3.118,2.672-5.891,5.546-8.324,8.62c-2.03-2.031-4.117-4.017-6.251-5.954c2.064-3.101,4.527-5.931,7.388-8.492
		C100.518,52.497,102.914,54.44,105.171,56.583z M120.211,46.546c-2.774,1.443-5.392,2.979-7.853,4.608
		c-2.226-2.015-4.698-3.886-7.417-5.614c2.65-1.657,5.533-3.154,8.649-4.494C116.054,42.684,118.259,44.518,120.211,46.546z"/>
	<path fill-rule="evenodd" clip-rule="evenodd" fill="#226E37" d="M97.983,50.757c-2.86,2.561-5.323,5.391-7.388,8.492
		c-2.041-1.848-4.131-3.652-6.265-5.415c1.531-2.829,3.404-5.39,5.613-7.684C92.763,47.482,95.441,49.018,97.983,50.757z
		 M105.171,56.583c2.788,2.65,5.368,5.612,7.738,8.89c-2.764,2.693-5.43,5.485-7.994,8.379c-2.589-2.971-5.278-5.854-8.068-8.648
		C99.28,62.129,102.053,59.255,105.171,56.583z M96.268,40.904c2.561-1.706,5.418-3.184,8.562-4.437
		c3.214,1.3,6.134,2.826,8.762,4.579c-3.116,1.34-5.999,2.837-8.649,4.494C102.284,43.856,99.393,42.312,96.268,40.904z
		 M120.211,46.546c2.2,2.29,4.078,4.828,5.628,7.613c-2.153,1.686-4.256,3.426-6.306,5.217c-2.01-2.968-4.402-5.709-7.175-8.222
		C114.819,49.526,117.437,47.99,120.211,46.546z"/>
	<path fill-rule="evenodd" clip-rule="evenodd" fill="#8EC418" d="M125.018,37.119c-4.104,1.104-7.912,2.412-11.427,3.927
		c-2.628-1.753-5.548-3.279-8.762-4.579c3.563-1.424,7.494-2.559,11.795-3.402c-7.387-1.635-14.646-1.544-21.776,0.269
		c-3.205,0.817-6.381,1.979-9.527,3.487c5.563-4.81,12.122-7.215,19.679-7.215c4.954,0,9.474,1.036,13.566,3.104
		C120.852,33.857,123.003,35.327,125.018,37.119z M82.941,80.926c-1.444-1.521-2.703-3.118-3.774-4.793
		c0.018-1.177,0.06-2.33,0.13-3.459c0.467-7.227,2.147-13.507,5.034-18.84c2.134,1.763,4.224,3.567,6.265,5.415
		C86.487,65.408,83.934,72.633,82.941,80.926z M86.797,84.385c2.176-7.086,5.53-13.479,10.05-19.182
		c2.79,2.795,5.479,5.678,8.068,8.648c-4.029,4.557-7.813,9.363-11.344,14.418C91.176,87.304,88.919,86.009,86.797,84.385z
		 M120.211,46.546c2.978-1.549,6.137-2.99,9.486-4.324c1.496,2.022,2.695,4.169,3.601,6.436c-0.793,0.55-1.577,1.107-2.353,1.673
		c-1.735,1.244-3.435,2.52-5.106,3.828C124.289,51.374,122.411,48.836,120.211,46.546z M96.268,40.904
		c3.125,1.408,6.017,2.953,8.674,4.636c-2.535,1.594-4.853,3.332-6.958,5.217c-2.542-1.74-5.221-3.275-8.039-4.607
		C91.809,44.212,93.913,42.463,96.268,40.904z M112.909,65.473c-2.37-3.277-4.95-6.239-7.738-8.89
		c2.221-1.91,4.617-3.72,7.188-5.429c2.772,2.513,5.165,5.254,7.175,8.222C117.263,61.346,115.054,63.378,112.909,65.473z"/>
	<path fill-rule="evenodd" clip-rule="evenodd" fill="#FFFFFF" d="M120.211,46.546c-1.952-2.029-4.157-3.862-6.62-5.5
		c3.515-1.515,7.322-2.823,11.427-3.927c0.499,0.443,0.989,0.906,1.475,1.389c1.189,1.188,2.256,2.427,3.205,3.715
		C126.348,43.556,123.188,44.997,120.211,46.546z M93.571,88.27c3.531-5.055,7.314-9.861,11.344-14.418
		c4.02,4.617,7.795,9.445,11.325,14.488c-3.46,1.371-7.206,2.056-11.241,2.056C100.897,90.396,97.087,89.687,93.571,88.27z
		 M119.533,59.376c4.179,6.18,6.699,13.35,7.554,21.506c-0.196,0.207-0.396,0.41-0.595,0.609c-1.117,1.117-2.279,2.131-3.487,3.035
		c-2.772-7.227-6.136-13.578-10.096-19.055C115.054,63.378,117.263,61.346,119.533,59.376z M86.797,84.385
		c-1.136-0.87-2.231-1.834-3.289-2.893c-0.19-0.189-0.38-0.379-0.566-0.566c0.992-8.293,3.546-15.518,7.654-21.677
		c2.134,1.938,4.221,3.923,6.251,5.954C92.327,70.905,88.973,77.299,86.797,84.385z M85.308,36.835
		c3.923,1.196,7.578,2.553,10.96,4.069c-2.354,1.56-4.459,3.308-6.323,5.246c-3.108-1.475-6.388-2.699-9.841-3.672
		c1.001-1.379,2.137-2.702,3.404-3.97C84.091,37.923,84.691,37.367,85.308,36.835z M112.358,51.154
		c-2.57,1.709-4.967,3.519-7.188,5.429c-2.257-2.143-4.653-4.086-7.188-5.826c2.105-1.885,4.423-3.624,6.958-5.217
		C107.66,47.268,110.133,49.14,112.358,51.154z M84.331,53.834c-2.887,5.333-4.567,11.613-5.034,18.84
		c-1.928-5.836-1.789-13.351,0.409-22.541C81.272,51.344,82.814,52.577,84.331,53.834z M104.829,36.467
		c-3.06-1.25-6.388-2.294-9.981-3.134c7.13-1.813,14.39-1.903,21.776-0.269C112.323,33.908,108.392,35.042,104.829,36.467z
		 M130.945,50.332c1.978,7.739,2.018,14.895,0.111,21.464c-0.666-6.698-2.408-12.577-5.218-17.636
		C127.511,52.852,129.21,51.576,130.945,50.332z"/>
</g>
</svg>
