<?xml version="1.0" encoding="utf-8"?>
<!-- Generator: Adobe Illustrator 16.2.0, SVG Export Plug-In . SVG Version: 6.00 Build 0)  -->
<!DOCTYPE svg PUBLIC "-//W3C//DTD SVG 1.1//EN" "http://www.w3.org/Graphics/SVG/1.1/DTD/svg11.dtd">
<svg version="1.1" id="图层_1" xmlns="http://www.w3.org/2000/svg" xmlns:xlink="http://www.w3.org/1999/xlink" x="0px" y="0px"
	 width="210px" height="120px" viewBox="0 0 210 120" enable-background="new 0 0 210 120" xml:space="preserve">
<g>
	<circle fill="none" stroke="#043A94" stroke-width="1.3186" stroke-miterlimit="10" cx="104.999" cy="60.001" r="28.518"/>
	<path fill="#043A94" d="M112.961,35.779c0,0-14.359-3.712-22.857,4.005c0,0-12.404,13.088-4.98,21c0,0,0.638,3.516-2.368,3.027
		c0,0-3.786-0.391-1.735-11.818c0,0-5.374,13.193,4.494,24.028c0,0,6.543,8.399,17.484,5.665c0,0,2.539-1.27,3.027-1.855
		c0,0,3.248-0.538,2.539,2.539c0,0-1.025,4.016-11.684,1.416c0,0,12.124,6.521,24.502-4.542c0,0,5.936-5.054,6.082-15.823
		c0,0-0.879-2.299-2.051-3.42c0,0-1.979-3.832,2.051-3.539c0,0,3.701,1.037,1.684,11.281c0,0,4.539-10.377-2.514-21.317
		c0,0-8.693-11.136-18.559-8.302c0,0-2.613,0.977-3.443,2.002c0,0-3.761,1.099-3.101-2.784
		C101.533,37.342,102.412,34.069,112.961,35.779z"/>
	<path fill="#FFFFFF" d="M91.667,48.574c0,0-2.295,1.172-1.173,5.031c0,0,0.245,1.903,3.663,2.587c0,0,1.513,4.934,6.056,2.051
		c0,0,1.173-0.341,0.294,1.125c0,0-8.156,4.199-9.768,6.689c0,0-2.523,3.419-0.554,7.082c0,0,2.481,3.047,6.694,0.867
		c0,0,2.307-0.525,4.407-5.459c0,0,1.124-3.564,1.27-8.008l7.179-4.299c0,0,0.93,0.099,0.881,0.83c0,0-5.08,3.273-5.545,7.619
		c0,0,0,6.129,2.881,8.131c0,0,3.357,2.848,6.967,1.971c0,0,5.201-2.012,5.879-5.986c0,0,1.1-7.289-5.715-7.289
		c0,0-4.945,0.549-3.957,5.715c0,0,0.771,1.903,2.602,2.05c0,0,0.916-0.293,1.137-1.208l-1.318-1.723c0,0-0.842-2.197,1.465-2.71
		c0,0,3.479,0.147,3.443,3.626c0,0-0.074,4.47-3.738,5.201c0,0-3.734,0.66-5.932-2.783c0,0-2.016-5.237-0.109-7.546
		c0,0,1.609-3.149,4.137-3.846l3.701,0.073c0,0,0.879-0.256,0.879-1.428c0,0-1.137-1.612-3.883-0.623c0,0-1.904-0.513-1.465-1.538
		c0,0,3.895-3.224,4.676-4.933c0,0,1.904-4.054-1.125-5.079c0,0-3.711-1.222-6.25,4.884c0,0-0.391,3.442-0.17,4.053
		c0,0,0.121,0.488-0.123,0.757c0,0-5.592,3.712-6.226,3.834l0.024-1.831c0,0,2.008-2.639,2.297-3.175c0,0,0.607-2.466-1.222-2.052
		c0,0-2.052,0.733-2.394,3.688c0,0-1.136,2.162-3.149,2.381c0,0-1.649-0.146-1.796-1.244c0,0,4.32-2.418,5.348-4.872
		c0,0,1.135-1.245,1.208-4.579c0,0-0.402-2.49-3.589-1.611c0,0-3.993,1.905-4.981,6.666c0,0-0.365,1.979-0.292,2.527
		c0,0-1.833,0.073-1.943-1.611c0,0-0.4-1.502,0.221-2.894C92.558,49.686,93.194,48.306,91.667,48.574z"/>
	<path fill="#043A94" d="M99.884,46.902c0,0-3.664,3.296-3.37,6.812c0,0,2.858-0.951,4.614-5.75
		C101.128,47.964,102.045,46.022,99.884,46.902z"/>
	<path fill="#043A94" d="M113.887,46.881c0,0-2.736,2.865-2.551,5.951c0,0,2.121-0.814,3.463-5.011
		C114.799,47.821,115.492,46.125,113.887,46.881z"/>
	<path fill="#043A94" d="M99.969,62.2c0,0-0.031,0.021-0.089,0.058c-0.663,0.432-4.828,3.17-5.771,4.337
		c0,0-2.931,3.272-1.611,4.738c0,0,1.415,2.05,4.346-0.586C96.843,70.747,99.627,66.4,99.969,62.2z"/>
</g>
</svg>
