<?xml version="1.0" encoding="utf-8"?>
<!-- Generator: Adobe Illustrator 16.2.0, SVG Export Plug-In . SVG Version: 6.00 Build 0)  -->
<!DOCTYPE svg PUBLIC "-//W3C//DTD SVG 1.1//EN" "http://www.w3.org/Graphics/SVG/1.1/DTD/svg11.dtd">
<svg version="1.1" id="图层_1" xmlns="http://www.w3.org/2000/svg" xmlns:xlink="http://www.w3.org/1999/xlink" x="0px" y="0px"
	 width="130px" height="130px" viewBox="0 0 130 130" enable-background="new 0 0 130 130" xml:space="preserve">
<desc></desc>
<path fill-rule="evenodd" clip-rule="evenodd" d="M126.499,3.537h-17.546v17.689h17.546V3.537z M130,126.5v3.5h-7.016v-3.5H130z
	 M130,115.97v7.022h-3.501v-3.515h-3.515v3.515h-3.508v-7.022h3.508v-3.508h3.515v3.508H130z M130,101.938v7.016h-7.016v3.508
	h-3.508v-7.016h3.508v-3.508h-7.016v10.523h3.508v3.508h-3.508v7.022h3.508v3.508h-10.523v-3.508h3.508v-3.515h-3.508v-3.508h-3.508
	v3.508h-3.508v-3.508h-3.5v-10.523h-7.051v-3.508h7.051V87.88h3.5v3.507h3.508v3.544h7.016v3.508h14.038v3.5H130z M130,28.299v24.59
	h-3.501v-3.507h-3.515v-3.508h3.515V35.357h-3.515v-7.059H130z M130,84.372v14.066h-3.501V84.372H130z M130,73.849v7.016h-3.501
	v3.508h-3.515v-3.508h-3.508v7.016h3.508v7.051h-10.523v-3.544h3.508v-7.015h-3.508v-3.508h-3.508v-3.508h10.523v-3.508h3.508v3.508
	h3.515v-3.508H130z M130,59.904v10.437h-3.501v-3.508h-3.515v3.508h-3.508v-3.508h-3.508v-3.508h-3.508v-3.421h3.508v-3.508h7.016
	v6.929h3.515v-3.421H130z M130,0v24.763h-24.555V0H130z M122.984,7.073v10.616h-10.523V7.073H122.984z M87.879,3.537v3.536h-7.016
	V3.537H87.879z M98.438,87.88h-3.516v-3.508h-3.535v3.508h-3.508v7.051h3.508v-3.544h3.535v7.052h-7.043v10.516h-3.508v-3.508
	H73.848v-3.508H70.34v-3.5h-3.508v3.5h-3.507v-7.008h3.507v-3.544h-6.929v10.552h-7.016v-3.5H49.38v-3.508h-3.508v7.008h3.508v7.016
	h-3.508v3.508h3.508v7.016h-3.508v3.515h-3.508V130H31.842v-7.008h3.508v-3.515h3.508v3.515h3.507v-7.022H31.842v3.508h-3.543
	v-3.508h3.543v-3.508h7.016v-3.508h7.015v-3.508h-3.508v-3.508h-3.507v3.508H35.35v3.508h-3.508v-3.508h-3.543v-3.508h3.543v3.508
	h3.508v-3.508h3.508v-3.5H35.35v-3.508h-3.508v3.508h-7.08v3.5H10.609v-3.5h7.08v-7.052h-3.537v3.544h-7.08v7.008H0v-3.5h3.537
	v-3.508H0v-3.544h3.537v3.544h3.536v-3.544h3.537V87.88h7.08v3.507h7.073V87.88h-3.536v-3.508H10.609v-7.016h3.543v3.508h3.537
	v-7.016h-7.08v-3.508H3.536v3.508H0v-3.508h3.537v-3.508H0v-6.929h3.537v-3.508H0V35.357h3.537v-3.515h3.536v3.515h7.08v-3.515
	h-3.543v-3.544h3.543v3.544h3.537v3.515h7.073v3.501h3.537v-3.501h3.543v7.009h3.508v3.508h7.015v-3.508h7.016v-3.508h3.507v-3.501
	H49.38v-7.059h3.507v-3.536H49.38v-3.536h-3.508v10.616h-7.015v3.515H35.35v-3.515h3.508v-3.544H35.35v-7.072h-3.508v3.536h-3.543
	V10.609h3.543v3.544h7.016v-3.544h3.507V0h3.508v7.073h3.508V3.537h3.507v14.152h3.508v-3.536h6.93v3.536h7.015v3.537h3.508v3.536
	h3.508v-7.073h3.508v-3.536h10.523v-3.544h3.535V3.537h-3.535V0h7.051v7.073h3.5v17.689h-3.5v-3.536h-3.516v7.072h3.516v3.544
	h-3.516v3.515h-7.043v-3.515h-3.508v7.016h7.016v10.523h3.535V38.858h3.516v-3.501h3.5v-3.515h3.508v3.515h7.016v3.501h3.508v-7.016
	h-7.016v-3.544h10.523v7.059h3.508v3.501h-7.016v3.508h-3.508v3.508h-3.508v3.508h3.508v3.507h3.508v3.508h-7.016v-3.508h-7.016
	v3.508H87.879v3.508h7.043v6.929h-7.043v-3.508h-3.508v-6.929h-2.459v-3.335c0-1.188-0.35-2.233-1.049-3.134v-4.054h7.016v-3.508
	h-7.016v3.508h-3.508v-7.016h3.508v-3.501h-7.016v3.501H70.34v-3.501h-3.508v-3.515h7.016v-7.08H70.34v-3.536h-3.508v3.536h3.508
	v3.536h-3.508v3.544h-3.507v3.515h-3.422v3.501h3.422v-3.501h3.507v10.517h3.508v2.005H59.903v-2.005h3.422v-3.508h-3.422v3.508
	h-3.508v-7.016h-3.508v3.508H49.38v3.508h3.507v2.005H52.78c-1.424,0-2.641,0.501-3.652,1.503h-3.256v13.943h1.725v3.508h-1.725
	v-3.508h-7.015v3.508h3.507v3.508h-3.507v-3.508H35.35v3.508h-3.508v3.508h3.508v3.508h-3.508v3.508h-3.543v3.508h3.543v3.508
	h-3.543v3.507h10.559v-7.015h3.507v-3.508h3.508v-3.508h-3.508v-3.508h3.508v-3.508h1.725v6.663c0,1.434,0.505,2.655,1.517,3.666
	c1.016,1.016,2.238,1.523,3.666,1.523h7.123v2.179h3.422v-2.179h10.522v2.179H63.325v3.508h3.507v3.507h7.016V87.88h3.508v-5.722
	c1.074-0.12,2.018-0.551,2.832-1.294h0.676v3.508h7.016v-3.508h-3.508v-7.016h7.016v-3.508h10.551v-3.508h-3.5v-6.929h3.5v-3.508
	h7.016v10.437h7.016v7.016h-10.523v-3.508h-3.508v3.508H91.387v3.508h-3.508v3.508h7.043v3.508h3.516v-7.016h3.5v7.016h3.508v-3.508
	h3.508v7.016h3.508v3.507h-7.016V87.88h-3.508v-3.508h-3.5V87.88z M91.387,28.299V17.689H80.863v7.073h3.508v-3.536h3.508v7.072
	H91.387z M84.371,28.299h-3.508v3.544h3.508V28.299z M98.438,38.858v10.523h7.008v-7.016h3.508v-3.508h-3.508v-3.501h-3.508v3.501
	H98.438z M52.888,28.299v3.544h7.016v-3.544H52.888z M45.873,45.874h-3.508v3.508h3.508V45.874z M35.35,45.874H17.689v3.508h-3.537
	v-3.508h-3.543v7.015h3.543v3.508h10.609v3.508h-7.073v6.929h-3.537v3.508h3.537v3.508h3.537v-3.508h7.073V56.396h3.543v-3.508
	H21.226v-3.507h10.616v3.507h3.508v7.016h7.015V49.382H35.35V45.874z M35.35,59.904h-3.508v3.421h3.508V59.904z M66.832,3.537
	h-3.507v3.536h3.507V3.537z M63.325,3.537V0h10.522v3.537h3.508v7.072H70.34v3.544h-3.508v-3.544h-3.507V7.073h-3.422v3.536h-3.508
	V7.073h3.508V3.537h-3.508V0h3.508v3.537H63.325z M38.857,3.537H35.35v3.536h-7.051V0h10.559V3.537z M45.873,10.609h-3.508v3.544
	h-3.507v3.536H35.35v3.537h3.508v7.072h3.507v-7.072h3.508v-3.537h3.508v-3.536h-3.508V10.609z M52.888,17.689H49.38v3.537h3.507
	v3.536h3.508v-3.536h3.508v-3.537h-3.508v3.537h-3.508V17.689z M45.873,35.357v3.501h-3.508v-3.501H45.873z M59.903,21.227v3.536
	h3.422v-3.536H59.903z M70.34,45.874v-3.508h3.508v3.508H70.34z M38.857,98.438h3.507v-7.052h-3.507V98.438z M42.365,84.372v3.508
	h3.508v-3.508H42.365z M59.903,91.387V87.88h-7.016v-3.508H49.38v7.015H59.903z M70.34,98.438h3.508v3.5h3.508v-3.5h7.016v-7.052
	h-3.508v3.544h-3.508v-3.544h3.508V87.88h-3.508v3.507h-3.508v3.544H70.34V98.438z M122.984,49.382v3.507h-3.508v-3.507H122.984z
	 M126.499,56.396h-3.515v-3.508h3.515V56.396z M119.477,45.874v3.508h-3.508v-3.508H119.477z M108.953,66.833h-3.508v3.508h3.508
	V66.833z M122.984,70.341h3.515v3.508h-3.515V70.341z M94.922,49.382v3.507h3.516v-3.507H94.922z M87.879,49.382h-3.508v3.507h3.508
	V49.382z M87.879,66.833v3.508h-5.967v-3.508H87.879z M17.689,35.357h-3.537v3.501h-3.543v3.508h3.543v3.508h3.537V35.357z
	 M24.762,38.858h-3.536v3.508h3.536V38.858z M21.226,28.299h3.536v3.544h-3.536V28.299z M24.762,24.763H0V0h24.762V24.763z
	 M21.226,21.227V3.537H3.536v17.689H21.226z M17.689,17.689H7.072V7.073h10.617V17.689z M14.152,59.904h-3.543v-3.508H7.072v6.929
	h3.537v3.508h3.543V59.904z M21.226,63.325h3.536v3.508h-3.536V63.325z M7.072,56.396V45.874H3.536v10.522H7.072z M0,80.864h3.537
	v-3.508h3.536v7.016H0V80.864z M24.762,80.864h-3.536v3.508h3.536V80.864z M28.298,80.864v-7.016h-7.073v3.508h3.536v3.508H28.298z
	 M28.298,91.387h-3.537v3.544h-3.536v3.508h3.536v-3.508h3.537V91.387z M21.226,108.954H3.536V126.5h17.689V108.954z
	 M24.762,105.446V130H0v-24.554H24.762z M17.689,112.462v10.53H7.072v-10.53H17.689z M108.953,105.446v3.508h-3.508v-3.508H108.953z
	 M112.461,101.938h-10.523v10.523h10.523V101.938z M94.922,108.954v3.508h-3.535v-3.508H94.922z M91.387,112.462V126.5H77.355v3.5
	H70.34v-3.5h7.016v-7.022h3.508v-3.508h3.508v-3.508H91.387z M80.863,119.478v3.515h7.016v-7.022h-3.508v3.508H80.863z
	 M108.953,126.5v3.5H98.438v-3.5h-3.516v-7.022h3.516v3.515h3.5v3.508H108.953z M73.848,108.954h7.016v3.508h-7.016V108.954z
	 M63.325,112.462h7.015v3.508h3.508v3.508H70.34v-3.508h-7.015v3.508h-3.422v3.515h6.929v3.508h-3.507v3.5h-3.422v-3.5h-3.508v3.5
	H49.38v-3.5h7.015v-7.022h3.508v-3.508h3.422V112.462h-3.422v3.508h-3.508v-3.508h-3.508v-3.508h10.438V112.462z M70.34,105.446
	v3.508h-7.015v-3.508H70.34z"/>
<path fill-rule="evenodd" clip-rule="evenodd" fill="#999999" d="M76.902,49.575c0.959,0,1.773,0.338,2.444,1.014
	c0.676,0.676,1.013,1.49,1.013,2.444v24.309c0,0.959-0.337,1.773-1.013,2.444c-0.671,0.676-1.485,1.014-2.444,1.014H52.601
	c-0.953,0-1.768-0.338-2.443-1.014c-0.351-0.346-0.609-0.73-0.777-1.157c-0.158-0.394-0.237-0.822-0.237-1.287V53.033
	c0-0.954,0.338-1.769,1.014-2.444c0.676-0.676,1.49-1.014,2.443-1.014H76.902z M76.759,49.992H52.744
	c-0.882,0-1.637,0.312-2.265,0.935c-0.618,0.628-0.927,1.38-0.927,2.257v24.015c0,0.877,0.309,1.629,0.927,2.257
	c0.628,0.623,1.383,0.935,2.265,0.935h24.015c0.882,0,1.632-0.312,2.25-0.935c0.628-0.628,0.941-1.38,0.941-2.257V53.184
	c0-0.877-0.313-1.629-0.941-2.257C78.391,50.304,77.641,49.992,76.759,49.992z"/>
<linearGradient id="SVGID_1_" gradientUnits="userSpaceOnUse" x1="-382.9644" y1="-191.0166" x2="-376.4301" y2="-191.0166" gradientTransform="matrix(4.136505e-005 -1 -1 0.001 -121.1618 -315.571)">
	<stop  offset="0" style="stop-color:#029178"/>
	<stop  offset="1" style="stop-color:#03DFBA"/>
</linearGradient>
<path fill="url(#SVGID_1_)" d="M69.955,57.828c-0.19-1.964-1.316-2.978-3.379-3.041h2.918c2.406,0,3.609,1.203,3.609,3.609v8.824
	h-3.136v-8.824C69.968,58.196,69.963,58.008,69.955,57.828z"/>
<linearGradient id="SVGID_2_" gradientUnits="userSpaceOnUse" x1="-261.6421" y1="524.9697" x2="-253.5061" y2="524.9697" gradientTransform="matrix(-1 0 0 1 -191.6602 -466.96)">
	<stop  offset="0" style="stop-color:#029178"/>
	<stop  offset="1" style="stop-color:#03DFBA"/>
</linearGradient>
<path fill="url(#SVGID_2_)" d="M66.576,54.787c2.063,0.063,3.188,1.077,3.379,3.041c-0.146-0.019-0.297-0.027-0.461-0.027H66.71
	v3.055h-3.121v-3.055h-2.729c-0.189,0-0.37,0.009-0.541,0.027c-1.991,0.162-3.014,1.297-3.067,3.404v-2.836
	c0-2.406,1.203-3.609,3.608-3.609H66.576z"/>
<linearGradient id="SVGID_3_" gradientUnits="userSpaceOnUse" x1="453.9082" y1="403.6436" x2="460.4084" y2="403.6436" gradientTransform="matrix(4.158005e-005 1 1 0.001 -343.1609 -396.571)">
	<stop  offset="0" style="stop-color:#029178"/>
	<stop  offset="1" style="stop-color:#03DFBA"/>
</linearGradient>
<path fill="url(#SVGID_3_)" d="M60.345,64.086c0.082,1.151,0.482,1.989,1.203,2.513c0.55,0.388,1.284,0.596,2.203,0.622h-2.892
	c-1,0-1.793-0.208-2.379-0.622c-0.784-0.559-1.194-1.49-1.229-2.798v-2.568c0.054-2.107,1.076-3.242,3.067-3.404v5.973
	C60.318,63.899,60.327,63.995,60.345,64.086z"/>
<linearGradient id="SVGID_4_" gradientUnits="userSpaceOnUse" x1="332.9854" y1="-310.6133" x2="337.0526" y2="-310.6133" gradientTransform="matrix(1 0 0 -1 -272.6602 -244.96)">
	<stop  offset="0" style="stop-color:#029178"/>
	<stop  offset="1" style="stop-color:#03DFBA"/>
</linearGradient>
<path fill="url(#SVGID_4_)" d="M63.751,67.221c-0.919-0.026-1.653-0.234-2.203-0.622c-0.721-0.523-1.122-1.361-1.203-2.513h6.365
	v3.135H63.751z"/>
<path fill="#00DFB9" d="M79.162,70.089v0.389h-0.807v0.551h0.701v0.508l-0.681,0.772l0.853,0.958h-0.911L77.94,72.83l-0.39,0.437
	h-0.897l0.831-0.958l-0.634-0.713h0.886l0.197,0.211l0.316-0.391h-1.379v-0.388h0.712v-0.551h-0.786v-0.389h0.786v-0.503h0.772
	v0.503H79.162z M76.5,70.161h0.219v0.403H76.5v0.621l0.238-0.14v0.462L76.5,71.655v1.611h-0.892l-0.171-0.396h0.304v-0.767
	l-0.304,0.178v-0.475l0.304-0.179v-1.063h-0.304v-0.403h0.304v-0.575H76.5V70.161z M74.373,72.349l-0.225,0.026v0.897h-0.739v-0.773
	l-1.031,0.166v-0.396l1.031-0.165v-2.491h0.739v2.365l0.225-0.033V72.349z M71.816,70.182v0.462h0.503v0.391h-0.503v2.238h-0.667
	v-2.238h-0.502v-0.391h0.502v-0.462h-0.456v-0.384h0.779l0.066-0.186h0.833l-0.191,0.569H71.816z M72.385,70.889h0.726l0.231,1.056
	h-0.738L72.385,70.889z M72.253,71.219l0.085,1.817h-0.356l-0.079-1.817H72.253z M73.337,70.697h-0.748l-0.204-0.959h0.739
	L73.337,70.697z M69.141,71.06l-1.018,0.636h1.421v0.395H68.11v1.183h-1.282l-0.197-0.402h0.646v-0.78h-1.439v-0.395h1.439v-0.239
	l0.622-0.376h-1.777v-0.291h-0.25v-0.86h1.386l-0.1-0.329h0.873l0.092,0.329h1.376v0.886h-0.358V71.06z M71.058,71.219l-0.074,1.811
	h-0.355l0.092-1.811H71.058z M68.719,70.319h-2.074v0.371h2.074V70.319z M63.935,70.222h0.839v0.408h-0.08l-0.508,1.407l0.627,1.237
	h-0.686l-0.238-0.45l-0.165,0.45h-1.519l-0.125-0.088l-0.139,0.088h-1.004l0.68-0.438l-0.403-0.297v-0.37h-0.171V71.78h0.171v-0.152
	h-0.224l0.146-0.793h0.495l-0.138,0.714h0.185v-0.847h-0.634v-0.383h0.634v-0.713h0.727v0.713h0.647v0.383h-0.647v0.919h-0.576
	v0.159h1.243v0.759l-0.522,0.345l0.495,0.363l0.443-1.204l-0.463-0.937h0.694l0.066,0.146l0.225-0.622H63.79l-0.125,0.337h-0.681
	l0.482-1.36h0.687L63.935,70.222z M62.482,70.201l0.092-0.503h0.476l-0.092,0.503H62.482z M61.029,69.698h0.481l0.106,0.503h-0.489
	L61.029,69.698z M62.634,71.628l-0.185-0.793h0.476l0.185,0.793H62.634z M59.066,71.991v-0.575h-0.634v0.575H59.066z M58.947,70.049
	h-1.75v0.391h1.75V70.049z M59.747,70.828h-3.335v-1.176h3.335V70.828z M59.833,73.267h-3.508v-2.238h3.508v1.352h-2.736v0.483
	h2.901L59.833,73.267z M62.383,72.169h-0.556v0.173l0.259,0.197l0.297-0.197V72.169z M57.098,71.416v0.575h0.641v-0.575H57.098z
	 M54.35,70.042h-0.462v0.231h0.462V70.042z M53.181,71.277V69.66h1.85v2.16h-0.912l-0.178-0.378h0.409v-0.243h-0.462v0.171
	l-0.192,0.456H52.95l0.04-0.086h-1.473v-2.08h1.48v2.06L53.181,71.277z M53.888,70.841h0.462v-0.225h-0.462V70.841z M55.103,73.272
	h-3.62V72.89h0.191v-0.958h3.224v0.958h0.205V73.272z M54.231,72.322H54.02v0.567h0.211V72.322z M53.181,72.322v0.567h0.225v-0.567
	H53.181z M52.124,70.049v0.441h0.271v-0.441H52.124z M52.124,71.337h0.271v-0.476h-0.271V71.337z M52.341,72.89h0.225v-0.567h-0.225
	V72.89z"/>
<path fill="#00DFB9" d="M51.543,74.62v-0.585h0.117l0.139,0.414c0.013,0.038,0.022,0.068,0.028,0.086
	c0.007-0.021,0.017-0.052,0.031-0.093l0.141-0.407h0.104v0.585h-0.075v-0.49l-0.17,0.49h-0.07l-0.169-0.498v0.498H51.543z"/>
<path fill="#00DFB9" d="M52.792,74.62v-0.585h0.424v0.068h-0.347v0.18h0.325v0.068h-0.325v0.2h0.361v0.068H52.792L52.792,74.62z"/>
<path fill="#00DFB9" d="M53.898,74.62v-0.585h0.079l0.308,0.459v-0.459h0.075v0.585h-0.079l-0.309-0.459v0.459H53.898z"/>
<path fill="#00DFB9" d="M55.327,74.39v-0.068h0.248v0.219c-0.038,0.029-0.077,0.053-0.118,0.068
	c-0.041,0.015-0.083,0.021-0.125,0.021c-0.058,0-0.11-0.012-0.157-0.037c-0.047-0.023-0.083-0.061-0.107-0.105
	c-0.023-0.047-0.036-0.099-0.036-0.157c0-0.058,0.012-0.111,0.036-0.16c0.024-0.049,0.058-0.086,0.103-0.11
	c0.045-0.023,0.096-0.035,0.155-0.035c0.042,0,0.081,0.007,0.115,0.021s0.061,0.033,0.081,0.057c0.02,0.025,0.034,0.058,0.044,0.098
	l-0.07,0.019c-0.009-0.03-0.02-0.054-0.033-0.07c-0.013-0.018-0.032-0.031-0.056-0.04c-0.024-0.012-0.051-0.018-0.081-0.018
	c-0.035,0-0.066,0.007-0.092,0.018c-0.026,0.012-0.047,0.025-0.063,0.042c-0.016,0.018-0.028,0.037-0.037,0.058
	c-0.015,0.037-0.022,0.076-0.022,0.117c0,0.054,0.008,0.098,0.026,0.133c0.019,0.035,0.045,0.061,0.079,0.077
	c0.035,0.019,0.071,0.026,0.109,0.026c0.033,0,0.066-0.006,0.099-0.02c0.032-0.013,0.056-0.026,0.073-0.041v-0.11H55.327z"/>
<path fill="#00DFB9" d="M57.191,74.62v-0.248l-0.226-0.337h0.095l0.115,0.176c0.021,0.033,0.042,0.065,0.06,0.099
	c0.018-0.03,0.039-0.065,0.063-0.103l0.114-0.172h0.09l-0.234,0.337v0.248H57.191z"/>
<path fill="#00DFB9" d="M58.147,74.62v-0.585h0.078v0.585H58.147z"/>
<path fill="#00DFB9" d="M59.713,74.62v-0.585h0.202c0.046,0,0.081,0.001,0.105,0.009c0.033,0.006,0.062,0.021,0.085,0.041
	c0.031,0.025,0.054,0.059,0.07,0.1c0.015,0.042,0.023,0.087,0.023,0.14c0,0.045-0.005,0.085-0.016,0.118
	c-0.01,0.035-0.023,0.063-0.04,0.086c-0.017,0.023-0.034,0.04-0.054,0.053c-0.019,0.014-0.042,0.022-0.07,0.028
	c-0.027,0.008-0.059,0.011-0.094,0.011H59.713z M59.791,74.552h0.125c0.039,0,0.069-0.004,0.091-0.011
	c0.022-0.009,0.041-0.019,0.054-0.032c0.018-0.017,0.032-0.042,0.042-0.073c0.011-0.029,0.016-0.068,0.016-0.112
	c0-0.063-0.01-0.108-0.03-0.142c-0.021-0.032-0.045-0.055-0.073-0.066c-0.022-0.008-0.055-0.012-0.101-0.012h-0.124V74.552
	L59.791,74.552z"/>
<path fill="#00DFB9" d="M60.88,74.62v-0.585h0.077v0.585H60.88z"/>
<path fill="#00DFB9" d="M61.93,74.39v-0.068h0.249v0.219c-0.038,0.029-0.078,0.053-0.118,0.068c-0.04,0.015-0.082,0.021-0.124,0.021
	c-0.059,0-0.111-0.012-0.158-0.037c-0.047-0.023-0.083-0.061-0.106-0.105c-0.024-0.047-0.037-0.099-0.037-0.157
	c0-0.058,0.012-0.111,0.037-0.16c0.023-0.049,0.058-0.086,0.102-0.11c0.045-0.023,0.097-0.035,0.155-0.035
	c0.043,0,0.081,0.007,0.116,0.021c0.034,0.014,0.061,0.033,0.081,0.057c0.019,0.025,0.033,0.058,0.043,0.098l-0.069,0.019
	c-0.009-0.03-0.02-0.054-0.033-0.07c-0.014-0.018-0.032-0.031-0.056-0.04c-0.024-0.012-0.051-0.018-0.081-0.018
	c-0.036,0-0.066,0.007-0.092,0.018c-0.026,0.012-0.047,0.025-0.062,0.042c-0.017,0.018-0.029,0.037-0.038,0.058
	c-0.014,0.037-0.023,0.076-0.023,0.117c0,0.054,0.01,0.098,0.027,0.133c0.018,0.035,0.045,0.061,0.079,0.077
	c0.034,0.019,0.071,0.026,0.109,0.026c0.034,0,0.067-0.006,0.1-0.02c0.031-0.013,0.056-0.026,0.072-0.041v-0.11H61.93z"/>
<path fill="#00DFB9" d="M62.869,74.62v-0.585h0.077v0.585H62.869z"/>
<path fill="#00DFB9" d="M63.794,74.62v-0.517h-0.193v-0.068h0.465v0.068h-0.195v0.517H63.794z"/>
<path fill="#00DFB9" d="M64.583,74.62l0.225-0.585h0.083l0.24,0.585h-0.088l-0.068-0.177h-0.246l-0.064,0.177H64.583z
	 M64.752,74.381h0.198l-0.061-0.163c-0.019-0.049-0.033-0.091-0.042-0.122c-0.007,0.038-0.019,0.074-0.032,0.111L64.752,74.381z"/>
<path fill="#00DFB9" d="M65.751,74.62v-0.585h0.078v0.517h0.288v0.068H65.751L65.751,74.62z"/>
<path fill="#00DFB9" d="M67.666,74.62v-0.517h-0.194v-0.068h0.466v0.068h-0.193v0.517H67.666z"/>
<path fill="#00DFB9" d="M68.581,74.62v-0.585h0.425v0.068h-0.348v0.18h0.324v0.068h-0.324v0.2h0.36v0.068H68.581L68.581,74.62z"/>
<path fill="#00DFB9" d="M70.105,74.415l0.078,0.02c-0.017,0.063-0.046,0.111-0.089,0.146c-0.042,0.033-0.094,0.05-0.154,0.05
	c-0.063,0-0.114-0.012-0.153-0.038c-0.04-0.025-0.07-0.063-0.091-0.111c-0.021-0.048-0.031-0.103-0.031-0.157
	c0-0.063,0.012-0.114,0.035-0.159s0.056-0.08,0.1-0.104c0.043-0.023,0.091-0.035,0.143-0.035c0.058,0,0.107,0.015,0.147,0.044
	c0.04,0.03,0.068,0.072,0.084,0.127l-0.077,0.018c-0.014-0.043-0.032-0.074-0.059-0.092c-0.026-0.021-0.06-0.031-0.098-0.031
	c-0.045,0-0.083,0.012-0.112,0.034c-0.032,0.02-0.052,0.05-0.064,0.085c-0.013,0.037-0.02,0.075-0.02,0.114
	c0,0.049,0.008,0.092,0.023,0.129c0.014,0.039,0.036,0.065,0.067,0.083c0.03,0.02,0.063,0.029,0.1,0.029
	c0.043,0,0.08-0.013,0.109-0.038C70.075,74.501,70.095,74.464,70.105,74.415z"/>
<path fill="#00DFB9" d="M70.844,74.62v-0.585h0.078v0.239h0.305v-0.239h0.077v0.585h-0.077v-0.275h-0.305v0.275H70.844z"/>
<path fill="#00DFB9" d="M71.994,74.62v-0.585h0.079l0.309,0.459v-0.459h0.073v0.585h-0.079l-0.309-0.459v0.459H71.994z"/>
<path fill="#00DFB9" d="M73.124,74.335c0-0.097,0.026-0.174,0.078-0.228c0.054-0.056,0.12-0.084,0.203-0.084
	c0.054,0,0.103,0.013,0.146,0.04c0.044,0.024,0.077,0.062,0.099,0.106c0.024,0.048,0.036,0.1,0.036,0.159
	c0,0.058-0.013,0.111-0.037,0.158c-0.023,0.047-0.058,0.082-0.102,0.107c-0.044,0.023-0.092,0.035-0.143,0.035
	c-0.056,0-0.105-0.013-0.148-0.04c-0.044-0.025-0.075-0.062-0.1-0.109C73.136,74.436,73.124,74.387,73.124,74.335z M73.205,74.336
	c0,0.071,0.018,0.127,0.057,0.167c0.038,0.041,0.086,0.062,0.143,0.062c0.059,0,0.107-0.021,0.145-0.062
	c0.038-0.04,0.057-0.1,0.057-0.174c0-0.05-0.008-0.091-0.025-0.127c-0.016-0.035-0.039-0.063-0.07-0.081
	c-0.03-0.021-0.065-0.031-0.104-0.031c-0.056,0-0.103,0.021-0.143,0.058C73.225,74.187,73.205,74.247,73.205,74.336z"/>
<path fill="#00DFB9" d="M74.345,74.62v-0.585h0.077v0.517h0.288v0.068H74.345L74.345,74.62z"/>
<path fill="#00DFB9" d="M75.341,74.335c0-0.097,0.026-0.174,0.078-0.228c0.052-0.056,0.119-0.084,0.203-0.084
	c0.054,0,0.104,0.013,0.146,0.04c0.043,0.024,0.077,0.062,0.101,0.106c0.021,0.048,0.033,0.1,0.033,0.159
	c0,0.058-0.012,0.111-0.035,0.158c-0.024,0.047-0.059,0.082-0.102,0.107c-0.045,0.023-0.092,0.035-0.143,0.035
	c-0.055,0-0.104-0.013-0.149-0.04c-0.043-0.025-0.075-0.062-0.098-0.109C75.352,74.436,75.341,74.387,75.341,74.335z M75.42,74.336
	c0,0.071,0.021,0.127,0.058,0.167c0.039,0.041,0.085,0.062,0.144,0.062s0.106-0.021,0.145-0.062c0.038-0.04,0.056-0.1,0.056-0.174
	c0-0.05-0.007-0.091-0.023-0.127c-0.017-0.035-0.04-0.063-0.07-0.081c-0.031-0.021-0.066-0.031-0.105-0.031
	c-0.055,0-0.103,0.021-0.141,0.058C75.44,74.187,75.42,74.247,75.42,74.336z"/>
<path fill="#00DFB9" d="M76.838,74.39v-0.068h0.249v0.219c-0.039,0.029-0.078,0.053-0.119,0.068
	c-0.04,0.015-0.082,0.021-0.123,0.021c-0.06,0-0.111-0.012-0.159-0.037c-0.046-0.023-0.081-0.061-0.105-0.105
	c-0.024-0.047-0.037-0.099-0.037-0.157c0-0.058,0.013-0.111,0.037-0.16s0.058-0.086,0.103-0.11c0.046-0.023,0.098-0.035,0.154-0.035
	c0.043,0,0.081,0.007,0.116,0.021s0.061,0.033,0.08,0.057c0.019,0.025,0.035,0.058,0.044,0.098l-0.069,0.019
	c-0.009-0.03-0.02-0.054-0.032-0.07c-0.014-0.018-0.033-0.031-0.057-0.04c-0.025-0.012-0.052-0.018-0.081-0.018
	c-0.035,0-0.066,0.007-0.091,0.018c-0.027,0.012-0.048,0.025-0.064,0.042c-0.015,0.018-0.027,0.037-0.037,0.058
	c-0.014,0.037-0.021,0.076-0.021,0.117c0,0.054,0.008,0.098,0.026,0.133s0.044,0.061,0.079,0.077
	c0.033,0.019,0.069,0.026,0.108,0.026c0.034,0,0.066-0.006,0.1-0.02c0.031-0.013,0.056-0.026,0.072-0.041v-0.11H76.838z"/>
<path fill="#00DFB9" d="M77.929,74.62v-0.248l-0.227-0.337h0.095l0.114,0.176c0.022,0.033,0.043,0.065,0.062,0.099
	c0.016-0.03,0.038-0.065,0.063-0.103l0.113-0.172h0.091l-0.234,0.337v0.248H77.929z"/>
<path fill="#00DFB9" d="M78.868,74.62v-0.585h0.078v0.517h0.288v0.068H78.868L78.868,74.62z"/>
</svg>
