<?xml version="1.0" encoding="utf-8"?>
<!-- Generator: Adobe Illustrator 16.2.0, SVG Export Plug-In . SVG Version: 6.00 Build 0)  -->
<!DOCTYPE svg PUBLIC "-//W3C//DTD SVG 1.1//EN" "http://www.w3.org/Graphics/SVG/1.1/DTD/svg11.dtd">
<svg version="1.1" id="图层_1" xmlns="http://www.w3.org/2000/svg" xmlns:xlink="http://www.w3.org/1999/xlink" x="0px" y="0px"
	 width="150px" height="150px" viewBox="0 0 150 150" enable-background="new 0 0 150 150" xml:space="preserve">
<desc></desc>
<path fill-rule="evenodd" clip-rule="evenodd" d="M145.961,4.081h-20.246v20.411h20.246V4.081z M150,145.962V150h-8.095v-4.038H150z
	 M150,133.812v8.103h-4.039v-4.056h-4.056v4.056h-4.048v-8.103h4.048v-4.048h4.056v4.048H150z M150,117.621v8.095h-8.095v4.048
	h-4.048v-8.095h4.048v-4.048h-8.095v12.143h4.047v4.048h-4.047v8.103h4.047v4.048h-12.143v-4.048h4.048v-4.056h-4.048v-4.047h-4.047
	v4.047h-4.048v-4.047h-4.038v-12.143h-8.136v-4.048h8.136v-16.222h4.038v4.047h4.048v4.089h8.095v4.048h16.198v4.038H150z
	 M150,32.652v28.373h-4.039v-4.046h-4.056v-4.048h4.056V40.797h-4.056v-8.145H150z M150,97.353v16.23h-4.039v-16.23H150z M150,85.21
	v8.095h-4.039v4.048h-4.056v-4.048h-4.048v8.095h4.048v8.136h-12.143v-4.089h4.048v-8.094h-4.048v-4.048h-4.048v-4.047h12.143V85.21
	h4.048v4.048h4.056V85.21H150z M150,69.12v12.042h-4.039v-4.047h-4.056v4.047h-4.048v-4.047h-4.047v-4.048h-4.048V69.12h4.048
	v-4.047h8.095v7.994h4.056V69.12H150z M150,0v28.572h-28.332V0H150z M141.905,8.161v12.25h-12.143V8.161H141.905z M101.398,4.081
	v4.08h-8.095v-4.08H101.398z M113.582,101.399h-4.057v-4.047h-4.079v4.047h-4.048v8.136h4.048v-4.089h4.079v8.137h-8.127v12.133
	h-4.047v-4.047H85.209v-4.048h-4.048v-4.038h-4.047v4.038h-4.047v-8.086h4.047v-4.089h-7.995v12.175h-8.095v-4.038h-4.047v-4.048
	h-4.047v8.086h4.047v8.095h-4.047v4.048h4.047v8.095h-4.047v4.056h-4.048V150H36.74v-8.086h4.048v-4.056h4.048v4.056h4.047v-8.103
	H36.74v4.047h-4.088v-4.047h4.088v-4.048h8.096v-4.048h8.095v-4.047h-4.048v-4.048h-4.047v4.048h-4.048v4.047H36.74v-4.047h-4.088
	v-4.048h4.088v4.048h4.048v-4.048h4.048v-4.038h-4.048v-4.048H36.74v4.048h-8.169v4.038h-16.33v-4.038h8.17v-8.137H16.33v4.089H8.16
	v8.086H0v-4.038h4.08v-4.048H0v-4.089h4.08v4.089h4.08v-4.089h4.081v-4.047h8.17v4.047h8.16v-4.047h-4.08v-4.047h-12.25v-8.095
	h4.089v4.047h4.081V85.21h-8.17v-4.048H4.08v4.048H0v-4.048h4.08v-4.047H0V69.12h4.08v-4.047H0V40.797h4.08v-4.056h4.08v4.056h8.17
	v-4.056h-4.089v-4.089h4.089v4.089h4.081v4.056h8.16v4.04h4.081v-4.04h4.088v8.087h4.048v4.048h8.095v-4.048h8.095v-4.047h4.047
	v-4.04h-4.047v-8.145h4.047v-4.08h-4.047v-4.08h-4.047v12.249h-8.095v4.056h-4.048v-4.056h4.048v-4.089h-4.048v-8.16H36.74v4.08
	h-4.088V12.241h4.088v4.09h8.096v-4.09h4.047V0h4.048v8.161h4.047v-4.08h4.047v16.33h4.048v-4.08h7.995v4.08h8.094v4.081h4.048v4.08
	h4.048v-8.161h4.047v-4.08h12.143v-4.09h4.079v-8.16h-4.079V0h8.136v8.161h4.038v20.411h-4.038v-4.08h-4.057v8.16h4.057v4.089
	h-4.057v4.056h-8.127v-4.056h-4.047v8.096h8.095v12.143h4.079V44.837h4.057v-4.04h4.038v-4.056h4.048v4.056h8.095v4.04h4.048v-8.096
	h-8.096v-4.089h12.143v8.145h4.048v4.04h-8.095v4.047h-4.048v4.048h-4.048v4.048h4.048v4.046h4.048v4.048h-8.096v-4.048h-8.095
	v4.048h-16.222v4.047h8.127v7.995h-8.127v-4.048h-4.047v-7.994h-2.838v-3.849c0-1.371-0.403-2.577-1.21-3.615v-4.678h8.095v-4.048
	h-8.095v4.048h-4.047v-8.095h4.047v-4.04h-8.095v4.04h-4.048v-4.04h-4.047v-4.056h8.095v-8.169h-4.048v-4.08h-4.047v4.08h4.047v4.08
	h-4.047v4.089h-4.047v4.056h-3.948v4.04h3.948v-4.04h4.047v12.135h4.047v2.313H69.119v-2.313h3.948v-4.048h-3.948v4.048h-4.047
	v-8.095h-4.048v4.047h-4.047v4.048h4.047v2.313H60.9c-1.643,0-3.047,0.578-4.213,1.734h-3.757v16.088h1.99v4.048h-1.99v-4.048
	h-8.095v4.048h4.047v4.047h-4.047v-4.047h-4.048v4.047H36.74v4.048h4.048v4.048H36.74v4.047h-4.088v4.048h4.088v4.047h-4.088v4.047
	h12.184v-8.094h4.047v-4.048h4.048v-4.047h-4.048V85.21h4.048v-4.048h1.99v7.688c0,1.654,0.583,3.063,1.749,4.23
	c1.174,1.172,2.583,1.758,4.23,1.758h8.219v2.514h3.948v-2.514h12.142v2.514H73.067v4.047h4.047v4.047h8.095v-4.047h4.048v-6.602
	c1.239-0.139,2.327-0.636,3.268-1.493h0.779v4.048h8.095v-4.048h-4.047V85.21h8.095v-4.048h12.174v-4.047h-4.038V69.12h4.038v-4.047
	h8.095v12.042h8.096v8.095h-12.143v-4.048h-4.048v4.048h-12.174v4.048h-4.048v4.047h8.127v4.048h4.057v-8.095h4.038v8.095h4.048
	v-4.048h4.047v8.095h4.048v4.047h-8.095v-4.047h-4.048v-4.047h-4.038V101.399z M105.446,32.652V20.411H93.304v8.161h4.048v-4.08
	h4.047v8.16H105.446z M97.352,32.652h-4.048v4.089h4.048V32.652z M113.582,44.837v12.143h8.086v-8.096h4.047v-4.047h-4.047v-4.04
	h-4.048v4.04H113.582z M61.024,32.652v4.089h8.095v-4.089H61.024z M52.931,52.932h-4.048v4.048h4.048V52.932z M40.788,52.932H20.411
	v4.048H16.33v-4.048h-4.089v8.094h4.089v4.048h12.241v4.047h-8.16v7.995H16.33v4.047h4.081v4.048h4.08v-4.048h8.161V65.073h4.088
	v-4.048H24.491v-4.046H36.74v4.046h4.048v8.095h8.095V56.979h-8.095V52.932z M40.788,69.12H36.74v3.947h4.048V69.12z M77.114,4.081
	h-4.047v4.08h4.047V4.081z M73.067,4.081V0h12.142v4.081h4.048v8.16h-8.096v4.09h-4.047v-4.09h-4.047v-4.08h-3.948v4.08h-4.047
	v-4.08h4.047v-4.08h-4.047V0h4.047v4.081H73.067z M44.836,4.081h-4.048v4.08h-8.136V0h12.184V4.081z M52.931,12.241h-4.048v4.09
	h-4.047v4.08h-4.048v4.081h4.048v8.16h4.047v-8.16h4.048v-4.081h4.047v-4.08h-4.047V12.241z M61.024,20.411h-4.047v4.081h4.047v4.08
	h4.048v-4.08h4.047v-4.081h-4.047v4.081h-4.048V20.411z M52.931,40.797v4.04h-4.048v-4.04H52.931z M69.119,24.492v4.08h3.948v-4.08
	H69.119z M81.161,52.932v-4.048h4.048v4.048H81.161z M44.836,113.583h4.047v-8.137h-4.047V113.583z M48.883,97.353v4.047h4.048
	v-4.047H48.883z M69.119,105.446v-4.047h-8.095v-4.047h-4.047v8.094H69.119z M81.161,113.583h4.048v4.038h4.048v-4.038h8.095v-8.137
	h-4.048v4.089h-4.047v-4.089h4.047v-4.047h-4.047v4.047h-4.048v4.089h-4.048V113.583z M141.905,56.979v4.046h-4.048v-4.046H141.905z
	 M145.961,65.073h-4.056v-4.048h4.056V65.073z M137.857,52.932v4.048h-4.047v-4.048H137.857z M125.715,77.115h-4.047v4.047h4.047
	V77.115z M141.905,81.162h4.056v4.048h-4.056V81.162z M109.525,56.979v4.046h4.057v-4.046H109.525z M101.398,56.979h-4.047v4.046
	h4.047V56.979z M101.398,77.115v4.047h-6.885v-4.047H101.398z M20.411,40.797H16.33v4.04h-4.089v4.047h4.089v4.048h4.081V40.797z
	 M28.571,44.837h-4.08v4.047h4.08V44.837z M24.491,32.652h4.08v4.089h-4.08V32.652z M28.571,28.572H0V0h28.571V28.572z
	 M24.491,24.492V4.081H4.08v20.411H24.491z M20.411,20.411H8.16V8.161h12.251V20.411z M16.33,69.12h-4.089v-4.047H8.16v7.994h4.081
	v4.048h4.089V69.12z M24.491,73.067h4.08v4.048h-4.08V73.067z M8.16,65.073V52.932H4.08v12.142H8.16z M0,93.305h4.08v-4.047h4.08
	v8.095H0V93.305z M28.571,93.305h-4.08v4.048h4.08V93.305z M32.652,93.305V85.21h-8.161v4.048h4.08v4.047H32.652z M32.652,105.446
	h-4.081v4.089h-4.08v4.048h4.08v-4.048h4.081V105.446z M24.491,125.716H4.08v20.246h20.411V125.716z M28.571,121.669V150H0v-28.331
	H28.571z M20.411,129.764v12.15H8.16v-12.15H20.411z M125.715,121.669v4.047h-4.047v-4.047H125.715z M129.763,117.621H117.62v12.143
	h12.143V117.621z M109.525,125.716v4.048h-4.079v-4.048H109.525z M105.446,129.764v16.198H89.257V150h-8.096v-4.038h8.096v-8.104
	h4.047v-4.047h4.048v-4.048H105.446z M93.304,137.858v4.056h8.095v-8.103h-4.047v4.047H93.304z M125.715,145.962V150h-12.133v-4.038
	h-4.057v-8.104h4.057v4.056h4.038v4.048H125.715z M85.209,125.716h8.095v4.048h-8.095V125.716z M73.067,129.764h8.094v4.048h4.048
	v4.047h-4.048v-4.047h-8.094v4.047h-3.948v4.056h7.995v4.048h-4.047V150h-3.948v-4.038h-4.047V150h-8.095v-4.038h8.095v-8.104h4.047
	v-4.047h3.948V129.764h-3.948v4.048h-4.047v-4.048h-4.048v-4.048h12.043V129.764z M81.161,121.669v4.047h-8.094v-4.047H81.161z"/>
<path fill-rule="evenodd" clip-rule="evenodd" fill="#999999" d="M88.733,57.202c1.106,0,2.047,0.39,2.82,1.17
	c0.78,0.779,1.169,1.719,1.169,2.82V89.24c0,1.106-0.389,2.047-1.169,2.82c-0.773,0.78-1.714,1.17-2.82,1.17h-28.04
	c-1.1,0-2.04-0.39-2.819-1.17c-0.404-0.398-0.703-0.843-0.896-1.335c-0.182-0.454-0.274-0.948-0.274-1.485V61.192
	c0-1.102,0.39-2.041,1.171-2.82c0.779-0.78,1.72-1.17,2.819-1.17H88.733z M88.568,57.684h-27.71c-1.018,0-1.889,0.359-2.612,1.078
	c-0.714,0.725-1.069,1.592-1.069,2.604v27.71c0,1.012,0.355,1.879,1.069,2.604c0.724,0.719,1.595,1.078,2.612,1.078h27.71
	c1.017,0,1.883-0.359,2.596-1.078c0.725-0.725,1.086-1.592,1.086-2.604v-27.71c0-1.012-0.361-1.879-1.086-2.604
	C90.451,58.043,89.585,57.684,88.568,57.684z"/>
<linearGradient id="SVGID_1_" gradientUnits="userSpaceOnUse" x1="-373.3052" y1="-181.7607" x2="-365.7653" y2="-181.7607" gradientTransform="matrix(4.136505e-005 -1 -1 0.001 -101.1622 -295.5809)">
	<stop  offset="0" style="stop-color:#029178"/>
	<stop  offset="1" style="stop-color:#03DFBA"/>
</linearGradient>
<path fill="url(#SVGID_1_)" d="M80.718,66.725c-0.22-2.267-1.52-3.436-3.899-3.509h3.367c2.776,0,4.165,1.389,4.165,4.165v10.182
	h-3.618V67.381C80.732,67.149,80.727,66.932,80.718,66.725z"/>
<linearGradient id="SVGID_2_" gradientUnits="userSpaceOnUse" x1="-252.4092" y1="533.8945" x2="-243.0211" y2="533.8945" gradientTransform="matrix(-1 0 0 1 -171.6602 -466.96)">
	<stop  offset="0" style="stop-color:#029178"/>
	<stop  offset="1" style="stop-color:#03DFBA"/>
</linearGradient>
<path fill="url(#SVGID_2_)" d="M76.818,63.216c2.38,0.073,3.68,1.242,3.899,3.509c-0.168-0.021-0.343-0.031-0.532-0.031h-3.213
	v3.524h-3.601v-3.524h-3.149c-0.219,0-0.428,0.01-0.624,0.031c-2.298,0.188-3.478,1.496-3.54,3.928v-3.271
	c0-2.776,1.388-4.165,4.164-4.165H76.818z"/>
<linearGradient id="SVGID_3_" gradientUnits="userSpaceOnUse" x1="462.792" y1="412.9512" x2="470.2925" y2="412.9512" gradientTransform="matrix(4.158005e-005 1 1 0.001 -343.1613 -396.5809)">
	<stop  offset="0" style="stop-color:#029178"/>
	<stop  offset="1" style="stop-color:#03DFBA"/>
</linearGradient>
<path fill="url(#SVGID_3_)" d="M69.63,73.945c0.094,1.328,0.556,2.295,1.388,2.899c0.634,0.447,1.481,0.688,2.541,0.718h-3.336
	c-1.154,0-2.069-0.24-2.745-0.718c-0.903-0.645-1.378-1.72-1.419-3.229v-2.964c0.063-2.432,1.242-3.74,3.54-3.928v6.892
	C69.599,73.73,69.607,73.841,69.63,73.945z"/>
<linearGradient id="SVGID_4_" gradientUnits="userSpaceOnUse" x1="342.2666" y1="-300.7139" x2="346.9592" y2="-300.7139" gradientTransform="matrix(1 0 0 -1 -272.6602 -224.96)">
	<stop  offset="0" style="stop-color:#029178"/>
	<stop  offset="1" style="stop-color:#03DFBA"/>
</linearGradient>
<path fill="url(#SVGID_4_)" d="M73.559,77.563c-1.06-0.03-1.907-0.271-2.541-0.718c-0.832-0.604-1.294-1.571-1.388-2.899h7.343
	v3.617H73.559z"/>
<path fill="#00DFB9" d="M91.341,80.872v0.448H90.41v0.636h0.81v0.586l-0.786,0.891l0.984,1.105h-1.052l-0.435-0.503l-0.45,0.503
	h-1.035l0.959-1.105l-0.731-0.822h1.022l0.228,0.243l0.364-0.45h-1.591v-0.447h0.821V81.32h-0.906v-0.448h0.906v-0.581h0.892v0.581
	H91.341z M88.27,80.955h0.252v0.466H88.27v0.716l0.274-0.161v0.533l-0.274,0.17v1.859H87.24l-0.197-0.457h0.351v-0.885l-0.351,0.205
	v-0.548l0.351-0.206v-1.227h-0.351v-0.466h0.351v-0.664h0.876V80.955z M85.815,83.479l-0.26,0.03v1.035h-0.853v-0.893l-1.19,0.192
	v-0.458l1.19-0.19v-2.874h0.853v2.729l0.26-0.038V83.479z M82.865,80.979v0.533h0.58v0.451h-0.58v2.582h-0.77v-2.582h-0.579v-0.451
	h0.579v-0.533h-0.526v-0.442h0.899l0.076-0.214h0.961l-0.221,0.656H82.865z M83.521,81.795h0.838l0.267,1.218h-0.852L83.521,81.795z
	 M83.369,82.176l0.098,2.097h-0.411l-0.092-2.097H83.369z M84.619,81.574h-0.862l-0.236-1.107h0.854L84.619,81.574z M79.777,81.992
	l-1.174,0.733h1.64v0.455h-1.654v1.364h-1.479l-0.228-0.464h0.746v-0.9h-1.661v-0.455h1.661v-0.276l0.718-0.434h-2.051V81.68h-0.289
	v-0.993h1.6l-0.115-0.379h1.008l0.105,0.379h1.588v1.022h-0.414V81.992z M81.989,82.176l-0.085,2.089h-0.41l0.105-2.089H81.989z
	 M79.291,81.138h-2.394v0.428h2.394V81.138z M73.771,81.025h0.969v0.471h-0.092l-0.587,1.624l0.724,1.428h-0.792l-0.275-0.52
	l-0.189,0.52h-1.753l-0.145-0.102l-0.161,0.102h-1.158l0.785-0.507l-0.467-0.342v-0.428h-0.196v-0.448h0.196v-0.176h-0.258
	l0.168-0.915h0.57l-0.159,0.824h0.213v-0.978h-0.73v-0.441h0.73v-0.822h0.84v0.822h0.747v0.441h-0.747v1.061H71.34v0.184h1.434
	v0.876l-0.602,0.397l0.57,0.419l0.512-1.389l-0.534-1.081h0.8l0.076,0.168l0.26-0.718h-0.252l-0.145,0.389h-0.784l0.557-1.569h0.792
	L73.771,81.025z M72.095,81.001l0.106-0.58h0.55l-0.107,0.58H72.095z M70.419,80.421h0.555l0.123,0.58h-0.564L70.419,80.421z
	 M72.271,82.647l-0.214-0.915h0.549l0.213,0.915H72.271z M68.153,83.066v-0.663h-0.731v0.663H68.153z M68.017,80.825h-2.02v0.451
	h2.02V80.825z M68.938,81.725H65.09v-1.356h3.848V81.725z M69.039,84.538H64.99v-2.582h4.049v1.56h-3.157v0.558h3.347L69.039,84.538
	z M71.98,83.271H71.34v0.2l0.298,0.228l0.343-0.228V83.271z M65.882,82.403v0.663h0.739v-0.663H65.882z M62.711,80.817h-0.533v0.268
	h0.533V80.817z M61.362,82.243v-1.866h2.136v2.492h-1.053l-0.205-0.436h0.471v-0.28h-0.533v0.197l-0.222,0.525h-0.86l0.046-0.099
	h-1.7v-2.4h1.708v2.377L61.362,82.243z M62.178,81.739h0.533V81.48h-0.533V81.739z M63.581,84.545h-4.178v-0.441h0.221v-1.105h3.721
	v1.105h0.236V84.545z M62.573,83.449H62.33v0.654h0.243V83.449z M61.362,83.449v0.654h0.261v-0.654H61.362z M60.142,80.825v0.51
	h0.313v-0.51H60.142z M60.142,82.312h0.313v-0.549h-0.313V82.312z M60.395,84.104h0.259v-0.654h-0.259V84.104z"/>
<path fill="#00DFB9" d="M59.473,86.101v-0.676h0.136l0.159,0.479c0.017,0.044,0.026,0.078,0.033,0.099
	c0.008-0.023,0.019-0.06,0.036-0.106l0.162-0.471h0.12v0.676h-0.088v-0.566l-0.195,0.566h-0.08l-0.195-0.575v0.575H59.473z"/>
<path fill="#00DFB9" d="M60.913,86.101v-0.676h0.49v0.079h-0.4v0.207h0.374v0.079h-0.374v0.231h0.417v0.079H60.913L60.913,86.101z"
	/>
<path fill="#00DFB9" d="M62.19,86.101v-0.676h0.09l0.356,0.53v-0.53h0.086v0.676h-0.091l-0.355-0.53v0.53H62.19z"/>
<path fill="#00DFB9" d="M63.838,85.834v-0.079h0.286v0.253c-0.043,0.034-0.088,0.061-0.135,0.079
	c-0.048,0.017-0.095,0.024-0.145,0.024c-0.065,0-0.126-0.014-0.181-0.043c-0.054-0.026-0.097-0.069-0.124-0.121
	c-0.026-0.055-0.04-0.114-0.04-0.182c0-0.066,0.014-0.129,0.04-0.185c0.027-0.057,0.068-0.1,0.12-0.128
	c0.052-0.026,0.11-0.04,0.178-0.04c0.05,0,0.094,0.008,0.133,0.023c0.04,0.016,0.07,0.038,0.093,0.065
	c0.022,0.029,0.04,0.066,0.052,0.112l-0.081,0.021c-0.011-0.035-0.022-0.062-0.038-0.081c-0.015-0.021-0.036-0.036-0.064-0.046
	c-0.028-0.014-0.06-0.021-0.094-0.021c-0.04,0-0.075,0.008-0.105,0.021c-0.029,0.014-0.055,0.029-0.072,0.048
	c-0.019,0.021-0.033,0.043-0.043,0.066c-0.017,0.043-0.024,0.088-0.024,0.136c0,0.062,0.009,0.112,0.029,0.153
	c0.022,0.04,0.052,0.069,0.092,0.089c0.04,0.021,0.081,0.03,0.126,0.03c0.039,0,0.077-0.007,0.113-0.022
	c0.037-0.015,0.065-0.03,0.084-0.047v-0.128H63.838z"/>
<path fill="#00DFB9" d="M65.99,86.101v-0.287l-0.262-0.389h0.11l0.133,0.203c0.025,0.038,0.048,0.075,0.068,0.114
	c0.02-0.035,0.045-0.076,0.074-0.119l0.131-0.198h0.104l-0.27,0.389v0.287H65.99z"/>
<path fill="#00DFB9" d="M67.094,86.101v-0.676h0.089v0.676H67.094z"/>
<path fill="#00DFB9" d="M68.899,86.101v-0.676h0.233c0.053,0,0.094,0.002,0.12,0.011c0.039,0.007,0.072,0.023,0.1,0.047
	c0.036,0.029,0.063,0.067,0.081,0.115c0.016,0.049,0.026,0.101,0.026,0.161c0,0.052-0.006,0.098-0.019,0.137
	c-0.011,0.04-0.025,0.073-0.046,0.099c-0.02,0.027-0.038,0.046-0.063,0.061c-0.021,0.017-0.048,0.026-0.08,0.033
	c-0.031,0.009-0.067,0.013-0.108,0.013H68.899z M68.989,86.021h0.145c0.045,0,0.079-0.005,0.104-0.013
	c0.026-0.01,0.047-0.021,0.063-0.037c0.021-0.02,0.036-0.049,0.049-0.085c0.012-0.033,0.018-0.078,0.018-0.129
	c0-0.072-0.012-0.125-0.035-0.164c-0.022-0.037-0.052-0.063-0.083-0.076c-0.026-0.009-0.064-0.014-0.117-0.014h-0.143V86.021
	L68.989,86.021z"/>
<path fill="#00DFB9" d="M70.246,86.101v-0.676h0.089v0.676H70.246z"/>
<path fill="#00DFB9" d="M71.457,85.834v-0.079h0.289v0.253c-0.044,0.034-0.091,0.061-0.138,0.079
	c-0.045,0.017-0.095,0.024-0.142,0.024c-0.068,0-0.129-0.014-0.183-0.043c-0.055-0.026-0.096-0.069-0.122-0.121
	c-0.029-0.055-0.043-0.114-0.043-0.182c0-0.066,0.014-0.129,0.043-0.185c0.026-0.057,0.065-0.1,0.117-0.128
	c0.052-0.026,0.11-0.04,0.178-0.04c0.05,0,0.095,0.008,0.135,0.023c0.039,0.016,0.069,0.038,0.093,0.065
	c0.021,0.029,0.039,0.066,0.05,0.112l-0.08,0.021c-0.01-0.035-0.022-0.062-0.037-0.081c-0.016-0.021-0.038-0.036-0.065-0.046
	c-0.028-0.014-0.059-0.021-0.092-0.021c-0.042,0-0.077,0.008-0.107,0.021c-0.03,0.014-0.054,0.029-0.071,0.048
	c-0.02,0.021-0.033,0.043-0.044,0.066c-0.017,0.043-0.025,0.088-0.025,0.136c0,0.062,0.011,0.112,0.031,0.153
	c0.021,0.04,0.052,0.069,0.09,0.089c0.04,0.021,0.082,0.03,0.127,0.03c0.039,0,0.077-0.007,0.114-0.022
	c0.036-0.015,0.064-0.03,0.084-0.047v-0.128H71.457z"/>
<path fill="#00DFB9" d="M72.541,86.101v-0.676h0.09v0.676H72.541z"/>
<path fill="#00DFB9" d="M73.609,86.101v-0.597h-0.223v-0.079h0.536v0.079h-0.226v0.597H73.609z"/>
<path fill="#00DFB9" d="M74.518,86.101l0.26-0.676h0.097l0.277,0.676H75.05l-0.079-0.204h-0.284l-0.074,0.204H74.518z
	 M74.714,85.824h0.229l-0.07-0.188c-0.021-0.057-0.038-0.104-0.048-0.141c-0.009,0.044-0.022,0.086-0.037,0.128L74.714,85.824z"/>
<path fill="#00DFB9" d="M75.866,86.101v-0.676h0.091v0.597h0.332v0.079H75.866L75.866,86.101z"/>
<path fill="#00DFB9" d="M78.076,86.101v-0.597h-0.225v-0.079h0.538v0.079h-0.224v0.597H78.076z"/>
<path fill="#00DFB9" d="M79.132,86.101v-0.676h0.49v0.079h-0.401v0.207h0.374v0.079h-0.374v0.231h0.416v0.079H79.132L79.132,86.101z
	"/>
<path fill="#00DFB9" d="M80.891,85.863l0.091,0.022c-0.02,0.073-0.054,0.129-0.103,0.168c-0.049,0.038-0.108,0.058-0.179,0.058
	c-0.071,0-0.132-0.014-0.177-0.044c-0.046-0.029-0.081-0.072-0.104-0.128s-0.036-0.119-0.036-0.182c0-0.072,0.014-0.132,0.041-0.184
	c0.026-0.052,0.063-0.093,0.114-0.121c0.05-0.026,0.105-0.04,0.165-0.04c0.066,0,0.124,0.017,0.17,0.051s0.079,0.083,0.097,0.146
	l-0.089,0.02c-0.016-0.049-0.037-0.085-0.067-0.105c-0.03-0.023-0.069-0.036-0.113-0.036c-0.052,0-0.096,0.014-0.129,0.039
	c-0.037,0.022-0.06,0.058-0.074,0.099c-0.015,0.043-0.023,0.087-0.023,0.132c0,0.056,0.01,0.105,0.027,0.148
	c0.016,0.045,0.042,0.075,0.078,0.096c0.035,0.022,0.073,0.034,0.114,0.034c0.05,0,0.093-0.015,0.127-0.044
	C80.856,85.963,80.879,85.92,80.891,85.863z"/>
<path fill="#00DFB9" d="M81.743,86.101v-0.676h0.09v0.276h0.352v-0.276h0.089v0.676h-0.089v-0.318h-0.352v0.318H81.743z"/>
<path fill="#00DFB9" d="M83.07,86.101v-0.676h0.091l0.356,0.53v-0.53h0.085v0.676h-0.092l-0.356-0.53v0.53H83.07z"/>
<path fill="#00DFB9" d="M84.374,85.771c0-0.112,0.03-0.201,0.09-0.263c0.063-0.064,0.139-0.097,0.234-0.097
	c0.063,0,0.118,0.015,0.169,0.046c0.051,0.028,0.089,0.071,0.114,0.123c0.028,0.055,0.042,0.114,0.042,0.184
	c0,0.066-0.015,0.128-0.043,0.183c-0.027,0.054-0.066,0.095-0.117,0.124c-0.051,0.026-0.106,0.04-0.165,0.04
	c-0.064,0-0.121-0.015-0.171-0.046c-0.051-0.029-0.087-0.071-0.115-0.126C84.388,85.887,84.374,85.831,84.374,85.771z
	 M84.468,85.772c0,0.082,0.02,0.146,0.065,0.192c0.044,0.048,0.099,0.071,0.164,0.071c0.067,0,0.124-0.023,0.167-0.071
	c0.044-0.046,0.065-0.115,0.065-0.2c0-0.058-0.009-0.105-0.029-0.146c-0.019-0.041-0.045-0.073-0.081-0.094
	c-0.035-0.023-0.076-0.036-0.12-0.036c-0.063,0-0.118,0.023-0.164,0.066C84.49,85.6,84.468,85.67,84.468,85.772z"/>
<path fill="#00DFB9" d="M85.782,86.101v-0.676h0.089v0.597h0.333v0.079H85.782L85.782,86.101z"/>
<path fill="#00DFB9" d="M86.932,85.771c0-0.112,0.03-0.201,0.09-0.263c0.061-0.064,0.138-0.097,0.234-0.097
	c0.063,0,0.12,0.015,0.168,0.046c0.05,0.028,0.09,0.071,0.116,0.123c0.025,0.055,0.038,0.114,0.038,0.184
	c0,0.066-0.013,0.128-0.04,0.183c-0.028,0.054-0.067,0.095-0.117,0.124c-0.052,0.026-0.106,0.04-0.165,0.04
	c-0.063,0-0.12-0.015-0.172-0.046c-0.05-0.029-0.087-0.071-0.112-0.126C86.944,85.887,86.932,85.831,86.932,85.771z M87.023,85.772
	c0,0.082,0.023,0.146,0.066,0.192c0.045,0.048,0.098,0.071,0.165,0.071c0.068,0,0.123-0.023,0.167-0.071
	c0.044-0.046,0.064-0.115,0.064-0.2c0-0.058-0.008-0.105-0.027-0.146c-0.019-0.041-0.046-0.073-0.081-0.094
	c-0.036-0.023-0.076-0.036-0.122-0.036c-0.063,0-0.118,0.023-0.162,0.066C87.047,85.6,87.023,85.67,87.023,85.772z"/>
<path fill="#00DFB9" d="M88.659,85.834v-0.079h0.287v0.253c-0.045,0.034-0.09,0.061-0.138,0.079
	c-0.046,0.017-0.094,0.024-0.142,0.024c-0.068,0-0.128-0.014-0.184-0.043c-0.053-0.026-0.094-0.069-0.122-0.121
	c-0.027-0.055-0.042-0.114-0.042-0.182c0-0.066,0.015-0.129,0.042-0.185c0.028-0.057,0.066-0.1,0.119-0.128
	c0.053-0.026,0.112-0.04,0.178-0.04c0.05,0,0.094,0.008,0.134,0.023c0.041,0.016,0.07,0.038,0.093,0.065
	c0.021,0.029,0.04,0.066,0.051,0.112l-0.08,0.021c-0.011-0.035-0.022-0.062-0.037-0.081c-0.016-0.021-0.039-0.036-0.065-0.046
	c-0.029-0.014-0.06-0.021-0.094-0.021c-0.041,0-0.076,0.008-0.104,0.021c-0.032,0.014-0.056,0.029-0.074,0.048
	c-0.018,0.021-0.032,0.043-0.043,0.066c-0.016,0.043-0.024,0.088-0.024,0.136c0,0.062,0.01,0.112,0.031,0.153
	c0.021,0.04,0.051,0.069,0.091,0.089c0.038,0.021,0.08,0.03,0.125,0.03c0.04,0,0.077-0.007,0.115-0.022
	c0.036-0.015,0.064-0.03,0.083-0.047v-0.128H88.659z"/>
<path fill="#00DFB9" d="M89.918,86.101v-0.287l-0.262-0.389h0.109l0.132,0.203c0.026,0.038,0.05,0.075,0.071,0.114
	c0.018-0.035,0.044-0.076,0.073-0.119l0.131-0.198h0.104l-0.271,0.389v0.287H89.918z"/>
<path fill="#00DFB9" d="M91.002,86.101v-0.676h0.09v0.597h0.333v0.079H91.002L91.002,86.101z"/>
</svg>
