<?xml version="1.0" encoding="utf-8"?>
<!-- Generator: Adobe Illustrator 16.2.0, SVG Export Plug-In . SVG Version: 6.00 Build 0)  -->
<!DOCTYPE svg PUBLIC "-//W3C//DTD SVG 1.1//EN" "http://www.w3.org/Graphics/SVG/1.1/DTD/svg11.dtd">
<svg version="1.1" id="图层_1" xmlns="http://www.w3.org/2000/svg" xmlns:xlink="http://www.w3.org/1999/xlink" x="0px" y="0px"
	 width="210px" height="120px" viewBox="0 0 210 120" enable-background="new 0 0 210 120" xml:space="preserve">
<g>
	<path fill-rule="evenodd" clip-rule="evenodd" fill="#231815" d="M70.5,63.655l2.335,5.485h3.251l-8.429-18.282h-3.86l-8.33,18.282
		h3.252l2.336-5.485H70.5L70.5,63.655z M69.688,61.929h-7.921l2.03-4.772c0.609-1.523,1.219-3.047,1.828-4.773l0.203-0.001
		c0.609,1.728,1.319,3.251,1.929,4.774L69.688,61.929z"/>
	<path fill-rule="evenodd" clip-rule="evenodd" fill="#231815" d="M91.773,67.414c-0.913-2.742-1.827-4.977-2.64-7.414l-3.453-9.142
		h-3.048l7.415,18.282h3.657l7.415-18.282h-3.151L94.618,60c-0.913,2.334-1.827,4.672-2.741,7.414H91.773z"/>
	<path fill-rule="evenodd" clip-rule="evenodd" fill="#231815" d="M107.667,60c0,6.602,4.975,9.547,11.069,9.547
		c6.195,0,11.07-2.945,11.07-9.547s-4.875-9.547-11.07-9.547C112.642,50.453,107.667,53.398,107.667,60L107.667,60L107.667,60z
		 M118.736,52.078c4.165,0,8.126,2.234,8.126,7.922c0,5.586-3.961,7.922-8.126,7.922c-4.164,0-8.023-2.336-8.023-7.922
		C110.713,54.313,114.572,52.078,118.736,52.078L118.736,52.078z"/>
	<path fill-rule="evenodd" clip-rule="evenodd" fill="#231815" d="M151.793,67.007c-1.829-2.843-5.587-8.226-11.274-16.147
		l-4.165-0.001v18.282h2.743c0-7.922,0-13.305-0.103-16.148h0.103c1.728,2.741,5.484,8.125,11.172,16.148h4.265V50.858h-2.843
		c0,7.923,0.103,13.306,0.204,16.148H151.793z"/>
</g>
</svg>
